<svg id="レイヤー_1" data-name="レイヤー 1" xmlns="http://www.w3.org/2000/svg" viewBox="0 0 157.08 125.86"><defs><style>.cls-1{fill:#b1aeb1;}.cls-2{fill:#1f2a66;}.cls-3{fill:#836c39;}</style></defs><path class="cls-1" d="M47.74,104.53c-1.59,1.79-.84,4.39-3.59,5.55-4.56,2.92,6,4.94.8,9.09-11.74-9.29-13.17-3.06-3-13.13,2.39-3.67-24.23-2.4-10.87-7,4.49.41,6.3-4.77,10.79-5,4.06-1.36-.71-1.77.08-4.38-.77-1.45-3.85-1.32-5-2.33,0-1.79-1.47-1.56-2.48-1.95-2.86-1.11,4.63-3.12,6.33-1.77,6.49-2.84,9.37,9.68,5.28,13.25C38.76,101.94,41.64,100,47.74,104.53Z"/><path class="cls-1" d="M122.37,87.47c3.33-2.08,5,2.16,1.47,3.32-2.79,1.54-3.36,2.82-2.14,4.27s6.32.41,4.2,1.92c-.62.45-1.78,1.27-1.06,1.76a34.7,34.7,0,0,0,7.15,3.51c7.67,2.74-10.3,5.8-11,9.26,2.19,1.76,0,6.8-2.95,8,0,0-.51-3.07-2.16-4.57-7.37-7.46,11.62-8.42,5.13-12.33-5.21-3.47-4.86-7.44-2.8-11.41,1.39-2.66-4.38-1.24-4.38-1.24C111.56,88,133.44,76.62,122.37,87.47Z"/><path class="cls-1" d="M102.19,110.09c-7.4-2.94,7.93-11.55-1.07-10.82-1.6.13-4.8-.5-3.61-1.6,1.53-1.41,8.29-5,11.65-7.32,1.76-1.19,2.26,4-.43,4.72,9.41,4.46-11,9.53-.29,12.52,1.58.44,3,1.87.72,3.44-5,3.5-5,3.5-3.52,6.21a19.67,19.67,0,0,0-2.5,0C97.56,117.6,100.27,113.57,102.19,110.09Z"/><path class="cls-1" d="M58.39,104.54c-4.65-3.21-9.84-6.77-.94-6.65C55,96.28,49,95.05,51.79,92.33c1.49-1.47,7.05,2.1,10,4-6.49-1,1.81,1.71-3.25,3.79-2.08.86,9.41,5.63,6.39,7-6.39.54-6.14,3.91-3.84,7.89.15,1.89-2.2,2.46-5.21,2.47.13-2.08,1.74-3.63-1-5.05-3.41-2.07,1.66-4,3.4-5.09C52.49,105.65,49.94,104.41,58.39,104.54Z"/><path class="cls-1" d="M76.37,110.11c-11.09,2.32,3.48,3.79-5.58,7.63C68.62,115,72,115.94,68,111.57c4.08-6.41.48-8.72-3.52-11.31-.89-6.42,18.55,3.35,15,4.42C75.6,106.47,71.94,105.84,76.37,110.11Z"/><path class="cls-1" d="M94.51,100.24c-3.71,2.28-2.23,4.17.53,7.31,3.28,3.74-10.18,8.89-6.53,4.3,1.77-2.22,0-8.15-1.28-7.66-3.46,1.37-4,.36-4,.36C81.48,103.16,91.7,97.2,94.51,100.24Z"/><path class="cls-1" d="M104.27,121.44c-1.07-.07-4,3.24-6-.49C98.32,121,101.55,117.21,104.27,121.44Z"/><path class="cls-1" d="M60,120.58s-1.45,4.47-4.72,2.06C55.31,122.64,55.86,118.42,60,120.58Z"/><path class="cls-1" d="M113.64,123.29c1.21-2.43,3.08-2.46,6.33-.43C120,122.86,117.8,127.18,113.64,123.29Z"/><path class="cls-1" d="M41.67,124.24c1.22-2.43,3.09-2.47,6.33-.43C48,123.81,45.84,128.13,41.67,124.24Z"/><path class="cls-1" d="M91.7,116.56c-1.44,1.89-1.72,1.83-2.84.12C89.88,115.15,90.21,115.15,91.7,116.56Z"/><path class="cls-1" d="M71.47,123.48c-1.77-1.44-1.77-1.84-.12-3C72.74,121.67,73.45,121.89,71.47,123.48Z"/><polygon class="cls-2" points="49.6 5.22 49.6 1.8 45.46 4.03 45.46 0.01 38.28 0.01 38.28 10.14 34.24 7.83 34.24 11.42 38.28 15.81 38.28 23.07 34.24 20.76 34.24 24.35 38.28 28.74 38.29 38.81 38.45 38.81 45.47 34.3 45.47 23.1 49.6 18.33 49.6 14.92 45.47 17.14 45.47 9.99 49.6 5.22"/><polygon class="cls-2" points="65.64 5.09 65.64 2.16 61.99 4.13 61.99 0.01 55.34 0.01 55.34 10.65 50.86 8.09 50.86 11.17 55.34 16.04 55.35 27.95 61.99 23.68 61.99 20.43 65.63 16.22 65.63 13.3 61.99 15.26 61.99 9.3 65.64 5.09"/><polygon class="cls-2" points="77.26 2.74 74.2 4.38 74.2 0.01 69.89 0.01 69.89 9.96 66.31 7.91 66.31 10.47 69.89 14.37 69.89 19.41 74.2 16.55 74.2 8.76 77.26 5.23 77.26 2.74"/><polygon class="cls-2" points="128.62 9.08 128.62 5.49 124.48 7.85 124.48 0 117.3 0 117.3 16.05 113.17 13.83 113.17 17.24 117.3 22.01 117.31 34.28 124.33 38.79 124.49 38.79 124.49 28.82 128.62 24.33 128.62 20.74 124.49 23.1 124.48 13.57 128.62 9.08"/><polygon class="cls-2" points="111.92 7.19 107.42 9.76 107.42 0 100.78 0 100.78 3.4 97.14 1.44 97.14 4.37 100.78 8.56 100.78 16.51 97.14 14.55 97.14 17.48 100.78 21.68 100.78 23.68 107.43 27.94 107.42 15.15 111.92 10.27 111.92 7.19"/><polygon class="cls-2" points="96.48 9.35 92.88 11.4 92.88 0.01 88.56 0.01 88.57 6.89 85.52 5.25 85.52 7.74 88.57 11.26 88.57 16.55 92.88 19.41 92.88 15.82 96.48 11.91 96.48 9.35"/><path class="cls-3" d="M50.29,70.79a1,1,0,0,0,.14-.21c0-.11.11-.17.18-.17s.16.08.18.24L51,72.1l0,.18c0,.1,0,.14-.15.14a.17.17,0,0,1-.15,0,1.36,1.36,0,0,1-.18-.32,2.36,2.36,0,0,0-.76-.86,1.83,1.83,0,0,0-1.06-.38,1.27,1.27,0,0,0-.86.3.93.93,0,0,0-.34.74.84.84,0,0,0,.32.65,3.26,3.26,0,0,0,1.23.54A4,4,0,0,1,51,74a2.14,2.14,0,0,1,.13,2.58,2.69,2.69,0,0,1-.88.8,2.65,2.65,0,0,1-1.31.29,3.42,3.42,0,0,1-.93-.13,5.43,5.43,0,0,1-1-.39.91.91,0,0,0-.19.32c0,.14-.12.22-.21.22s-.14-.1-.16-.29l-.15-1.94a1.18,1.18,0,0,1,0-.16c0-.1,0-.15.16-.15s.15.09.22.27a3.91,3.91,0,0,0,.88,1.33,1.83,1.83,0,0,0,1.3.53,1.37,1.37,0,0,0,1-.37,1.15,1.15,0,0,0,.39-.85,1,1,0,0,0-.36-.8,3.59,3.59,0,0,0-1.28-.62,6.82,6.82,0,0,1-1.34-.56,2,2,0,0,1-.7-.73,1.88,1.88,0,0,1-.27-1A1.85,1.85,0,0,1,46.93,71a2.53,2.53,0,0,1,1.76-.59A5.05,5.05,0,0,1,50.29,70.79Z"/><path class="cls-3" d="M54.61,70.31c0,.36,0,.67,0,.92v1.42c0,.61,0,1,0,1.13a2.13,2.13,0,0,1,.7-.65,1.76,1.76,0,0,1,.85-.22,1.5,1.5,0,0,1,.71.18,1.17,1.17,0,0,1,.52.57,3.84,3.84,0,0,1,.18,1.41l0,1.67c0,.37.15.57.44.59.11,0,.17.06.17.15s-.06.15-.18.15h-.15a10.29,10.29,0,0,0-1.1,0l-.44,0a2.82,2.82,0,0,1-.39,0c-.15,0-.22,0-.22-.14s.08-.14.25-.16a.38.38,0,0,0,.31-.3,9.64,9.64,0,0,0,.07-1.62,6,6,0,0,0-.13-1.61.5.5,0,0,0-.51-.38.88.88,0,0,0-.62.32,1.64,1.64,0,0,0-.41.9,9.26,9.26,0,0,0-.09,1.41,5.72,5.72,0,0,0,0,.76.89.89,0,0,0,.12.4.42.42,0,0,0,.26.1c.14,0,.2.07.2.17s-.07.14-.22.14l-.5,0-.47,0a6.52,6.52,0,0,0-.79,0,3.18,3.18,0,0,1-.47,0,.14.14,0,0,1-.16-.15c0-.08.08-.13.22-.15a.46.46,0,0,0,.38-.23,5.38,5.38,0,0,0,.14-1.4c0-.81,0-2,0-3.7a2.52,2.52,0,0,0-.12-1,.62.62,0,0,0-.4-.32c-.17-.06-.26-.12-.26-.2s.07-.14.23-.14C53.33,70.36,53.94,70.34,54.61,70.31Z"/><path class="cls-3" d="M61.85,77.07a2.49,2.49,0,0,1-.67.47,1.51,1.51,0,0,1-.68.16,1.08,1.08,0,0,1-.84-.33,1.24,1.24,0,0,1-.11-1.44,1.27,1.27,0,0,1,.44-.45,5,5,0,0,1,.87-.37,4.3,4.3,0,0,0,.68-.29.93.93,0,0,0,.29-.3A1,1,0,0,0,62,74a.84.84,0,0,0-.18-.56.6.6,0,0,0-.48-.21.48.48,0,0,0-.38.14,1,1,0,0,0-.17.44.63.63,0,0,1-.65.6.57.57,0,0,1-.38-.13.45.45,0,0,1-.15-.37.8.8,0,0,1,.56-.76,3.14,3.14,0,0,1,1.32-.25,2.44,2.44,0,0,1,1.09.2,1,1,0,0,1,.53.47,2.14,2.14,0,0,1,.12.83v1.26a6.65,6.65,0,0,0,.07,1.28c0,.19.14.28.28.28h.23c.15,0,.22,0,.22.12a.15.15,0,0,1-.09.13,2.1,2.1,0,0,1-.55.15,5,5,0,0,1-.82.08.55.55,0,0,1-.66-.62Zm.06-2.13a2.25,2.25,0,0,1-.61.41,2.21,2.21,0,0,0-.59.41,1.07,1.07,0,0,0,0,1.11.47.47,0,0,0,.38.2.8.8,0,0,0,.58-.29,1.44,1.44,0,0,0,.27-1C62,75.63,61.94,75.35,61.91,74.94Z"/><path class="cls-3" d="M66.78,74a2.2,2.2,0,0,1,.62-.8,1.21,1.21,0,0,1,.77-.27.9.9,0,0,1,.65.24.77.77,0,0,1,.24.58.7.7,0,0,1-.17.47.57.57,0,0,1-.43.2.48.48,0,0,1-.31-.1,1.14,1.14,0,0,1-.26-.34c-.13-.23-.24-.35-.33-.35s-.28.13-.45.4a3.18,3.18,0,0,0-.25,1.55,6,6,0,0,0,.1,1.61c.06.11.21.16.43.16s.29.06.29.16-.09.15-.28.15l-.47,0-.52,0c-.35,0-.7,0-1,0h-.26c-.15,0-.22,0-.22-.17s.09-.15.26-.15a.55.55,0,0,0,.36-.12.83.83,0,0,0,.1-.48l0-1.33c0-.27,0-.6,0-1s0-.64-.06-.72a.39.39,0,0,0-.14-.2.51.51,0,0,0-.29-.11,1.15,1.15,0,0,1-.25,0,.14.14,0,0,1,0-.12q0-.15.27-.15c.33,0,.88,0,1.67-.13Z"/><path class="cls-3" d="M71.55,75.15a2.13,2.13,0,0,0,0,.22,2.2,2.2,0,0,0,.37,1.28,1.17,1.17,0,0,0,1,.53,1.93,1.93,0,0,0,1.27-.56.33.33,0,0,1,.18-.11c.09,0,.14,0,.14.15s-.11.21-.32.42a2,2,0,0,1-.78.45,2.85,2.85,0,0,1-1,.16,2.2,2.2,0,0,1-1.7-.66,2.26,2.26,0,0,1-.62-1.57,2.51,2.51,0,0,1,.71-1.81,2.32,2.32,0,0,1,1.76-.73,1.81,1.81,0,0,1,1.51.66,2.16,2.16,0,0,1,.52,1.27c0,.13,0,.2-.1.23a3.4,3.4,0,0,1-.66,0Zm0-.39h.91a1.76,1.76,0,0,0,.74-.09c.09-.05.13-.17.13-.34a1.23,1.23,0,0,0-.25-.77.7.7,0,0,0-.59-.34C72,73.23,71.66,73.74,71.58,74.76Z"/><path class="cls-3" d="M79.28,73.41c0-1,0-1.72,0-2.06a1.64,1.64,0,0,0-.08-.6.66.66,0,0,0-.38-.14q-.21,0-.21-.15a.1.1,0,0,1,.07-.11,1.87,1.87,0,0,1,.46,0h1.41V74.1l0,2.35a1.58,1.58,0,0,0,.1.69.6.6,0,0,0,.43.19c.13,0,.19.06.19.14s-.07.14-.2.14H79.28v-.73a1.62,1.62,0,0,1-.56.62,1.5,1.5,0,0,1-.77.2,1.94,1.94,0,0,1-1.43-.63,2.27,2.27,0,0,1-.61-1.64,2.43,2.43,0,0,1,.7-1.8,2.16,2.16,0,0,1,1.57-.7,1.53,1.53,0,0,1,.6.12A1.55,1.55,0,0,1,79.28,73.41Zm-1.93,1.87a3.21,3.21,0,0,0,.26,1.48.79.79,0,0,0,.69.48.8.8,0,0,0,.68-.45,3.29,3.29,0,0,0,.29-1.63A3.34,3.34,0,0,0,79,73.72a.78.78,0,0,0-.73-.47.74.74,0,0,0-.71.5A3.75,3.75,0,0,0,77.35,75.28Z"/><path class="cls-3" d="M90.93,75.17A2.61,2.61,0,0,1,86.61,77a2.19,2.19,0,0,1-.71-1.7,2.23,2.23,0,0,1,.75-1.75,2.58,2.58,0,0,1,1.81-.67,2.52,2.52,0,0,1,1.77.63A2.11,2.11,0,0,1,90.93,75.17Zm-1.47.36A4.19,4.19,0,0,0,89.17,74c-.2-.47-.48-.71-.84-.71a.82.82,0,0,0-.74.5,3.05,3.05,0,0,0-.26,1.38,3.64,3.64,0,0,0,.3,1.59.9.9,0,0,0,.81.62.81.81,0,0,0,.76-.49A2.88,2.88,0,0,0,89.46,75.53Z"/><path class="cls-3" d="M94.24,73a9.24,9.24,0,0,1,1,0c.14,0,.22.06.22.11a1,1,0,0,1-.06.21.87.87,0,0,1-.1.2.28.28,0,0,1-.15,0l-.86,0c0,1.49,0,2.33,0,2.52a2,2,0,0,0,.15,1,.81.81,0,0,0,.55.28c.17,0,.25.07.25.16s-.09.14-.26.14l-.5,0-.64,0c-.25,0-.55,0-.89,0l-.44,0c-.13,0-.2,0-.2-.16s0-.11.13-.13a.85.85,0,0,0,.46-.21,1.44,1.44,0,0,0,.11-.64c0-.35,0-1.32,0-2.91h-.42c-.26,0-.4,0-.4-.12a.66.66,0,0,1,.06-.22.25.25,0,0,1,.14-.19A3.9,3.9,0,0,1,93,73a2.82,2.82,0,0,1,.64-2,2.37,2.37,0,0,1,1.78-.66,1.77,1.77,0,0,1,1.07.26.69.69,0,0,1,.34.56.43.43,0,0,1-.15.33.54.54,0,0,1-.4.15c-.29,0-.55-.2-.77-.58a.9.9,0,0,0-.27-.33.48.48,0,0,0-.24-.06.6.6,0,0,0-.56.4A5.89,5.89,0,0,0,94.24,73Z"/><path class="cls-3" d="M99.07,73a9,9,0,0,1,1,0c.15,0,.23.06.23.11a.75.75,0,0,1-.07.2.57.57,0,0,1-.1.21.22.22,0,0,1-.14,0l-.87,0c0,1.49,0,2.33,0,2.52a1.86,1.86,0,0,0,.16.94.77.77,0,0,0,.55.29c.17,0,.25.07.25.16s-.09.14-.26.14l-.5,0-.64,0c-.25,0-.55,0-.89,0l-.44,0c-.13,0-.2-.06-.2-.16s0-.11.13-.13a.89.89,0,0,0,.46-.21,1.44,1.44,0,0,0,.11-.64c0-.35,0-1.32,0-2.91h-.42c-.27,0-.4,0-.4-.12a.91.91,0,0,1,0-.22c0-.11.09-.17.15-.19A3.74,3.74,0,0,1,97.8,73a2.78,2.78,0,0,1,.64-2,2.36,2.36,0,0,1,1.77-.66,1.78,1.78,0,0,1,1.08.26.72.72,0,0,1,.34.56.43.43,0,0,1-.15.33.55.55,0,0,1-.4.15c-.29,0-.55-.2-.78-.58a1,1,0,0,0-.26-.34.6.6,0,0,0-.24,0,.59.59,0,0,0-.56.4A5.79,5.79,0,0,0,99.07,73Z"/><path class="cls-3" d="M103.86,72.89c0,.5,0,1.38,0,2.66l0,1.14a.75.75,0,0,0,.11.47.7.7,0,0,0,.38.15c.2,0,.3.08.3.17s-.08.14-.24.15l-.38,0c-.4,0-.78,0-1.17,0l-.57,0-.24,0c-.16,0-.23,0-.23-.15s.1-.15.3-.16.43-.12.46-.28a6.21,6.21,0,0,0,0-1c0-.62,0-1.2,0-1.72a2.77,2.77,0,0,0-.11-.9.64.64,0,0,0-.41-.15q-.27,0-.27-.15t.27-.15h.11Zm-.07-1.8a.76.76,0,0,1-1.31.54.77.77,0,0,1,0-1.08.77.77,0,0,1,1.31.54Z"/><path class="cls-3" d="M105.89,75.32a2.39,2.39,0,0,1,.69-1.72,2.31,2.31,0,0,1,1.72-.71,2.16,2.16,0,0,1,1.2.33A.9.9,0,0,1,110,74a.52.52,0,0,1-.55.57c-.31,0-.52-.22-.66-.66a1.42,1.42,0,0,0-.23-.52.5.5,0,0,0-.38-.16.72.72,0,0,0-.66.44,3,3,0,0,0-.22,1.31,3.12,3.12,0,0,0,.36,1.61,1.08,1.08,0,0,0,.94.6,1.14,1.14,0,0,0,1.08-.91c.07-.2.15-.29.24-.29s.15,0,.15.16a1.6,1.6,0,0,1-.47,1,1.79,1.79,0,0,1-1.41.54,2.19,2.19,0,0,1-1.67-.67A2.33,2.33,0,0,1,105.89,75.32Z"/><path class="cls-3" d="M113,75.14v.22a2.16,2.16,0,0,0,.37,1.29,1.15,1.15,0,0,0,1,.52,1.91,1.91,0,0,0,1.26-.56.48.48,0,0,1,.18-.11c.1,0,.14,0,.14.15s-.1.22-.32.42a2.15,2.15,0,0,1-.78.46,3.11,3.11,0,0,1-1,.15,2.19,2.19,0,0,1-2.32-2.22,2.52,2.52,0,0,1,.71-1.82,2.34,2.34,0,0,1,1.76-.73,1.81,1.81,0,0,1,1.51.66,2.1,2.1,0,0,1,.52,1.27c0,.13,0,.21-.1.23a2.7,2.7,0,0,1-.66,0Zm0-.39h.91a2,2,0,0,0,.74-.08.39.39,0,0,0,.14-.35,1.29,1.29,0,0,0-.25-.77.76.76,0,0,0-.6-.34C113.38,73.22,113.07,73.73,113,74.75Z"/><polygon class="cls-3" points="157.08 64.44 157.08 58 150.94 58 150.94 49.6 147 49.6 145.13 53.12 143.15 49.6 139.31 49.6 139.31 58 132.44 58 132.15 57.69 132.15 51.16 127.43 51.16 127.44 64.45 132.15 64.45 132.15 64.45 157.08 64.44"/><path class="cls-3" d="M46.45,46.37l-5.59,6.79L35.3,46.38H30.36V57.67L30,58H20.18V51.24H0V71.42H20.18v-7H35.66V54.34l4.93,6.07H41l4.92-6.07V64.46H51.4V46.37ZM14.73,66H5.45V56.69h9.28Z"/><path class="cls-3" d="M67.34,61.7a.5.5,0,0,1-.5-.35,3.3,3.3,0,0,1-.14-1.09V55.13a3.67,3.67,0,0,0-1.45-3.08,7.1,7.1,0,0,0-4.34-1.11,12.07,12.07,0,0,0-2.25.2,10.72,10.72,0,0,0-2.12.59,9.37,9.37,0,0,0-1.9,1v3.61a9.7,9.7,0,0,1,2.41-1.75,6.06,6.06,0,0,1,2.86-.68c.87,0,1.43.18,1.69.55A2.56,2.56,0,0,1,62,56a3.87,3.87,0,0,1-.53.23c-.16.07-.41.15-.75.26L59.25,57a19.84,19.84,0,0,0-2.76,1,4.71,4.71,0,0,0-1.67,1.31,3.27,3.27,0,0,0-.62,2,3.68,3.68,0,0,0,.36,1.58,2.86,2.86,0,0,0,1.25,1.26,4.74,4.74,0,0,0,2.35.5,6.28,6.28,0,0,0,2.42-.39,7.38,7.38,0,0,0,1.69-1,2.26,2.26,0,0,0,.65,1,2.39,2.39,0,0,0,1.62.41,7.55,7.55,0,0,0,2.1-.25,18.71,18.71,0,0,0,1.9-.65V61.33A2.88,2.88,0,0,1,67.34,61.7ZM61,61.89a1.89,1.89,0,0,1-1,.27,1.32,1.32,0,0,1-.89-.35,1.29,1.29,0,0,1-.38-1,1.7,1.7,0,0,1,.77-1.47A20,20,0,0,1,62,58.51v2.74A7.43,7.43,0,0,1,61,61.89Z"/><path class="cls-3" d="M109.67,52.89a6.4,6.4,0,0,0-2.39-1.44,10.86,10.86,0,0,0-6.61,0,6.46,6.46,0,0,0-2.39,1.46,5.92,5.92,0,0,0-1.45,2.17,7.45,7.45,0,0,0-.48,2.73,7.18,7.18,0,0,0,.86,3.53,6,6,0,0,0,2.57,2.46,10.16,10.16,0,0,0,8.36,0,6.08,6.08,0,0,0,2.58-2.46,7.18,7.18,0,0,0,.86-3.53,7.56,7.56,0,0,0-.48-2.75A6.27,6.27,0,0,0,109.67,52.89ZM106,60.28a2.61,2.61,0,0,1-4,0,4.83,4.83,0,0,1,0-5,2.66,2.66,0,0,1,4,0,4.86,4.86,0,0,1,0,5Z"/><path class="cls-3" d="M122.54,51.52a4.6,4.6,0,0,0-2.35.7,5.37,5.37,0,0,0-1.5,1.58V51.16H114V64.45h4.69V62.22a8.3,8.3,0,0,1,1-4.41,3.53,3.53,0,0,1,2.09-1.67,3.77,3.77,0,0,1,2.37.24l1.51-4A4.82,4.82,0,0,0,122.54,51.52Z"/><path class="cls-3" d="M128.78,49.81a2,2,0,0,0,1,.26,1.91,1.91,0,0,0,1.4-.58,1.88,1.88,0,0,0,.59-1.39,2,2,0,0,0-2-2,1.87,1.87,0,0,0-1.39.59,1.91,1.91,0,0,0-.58,1.4,2,2,0,0,0,.26,1A2,2,0,0,0,128.78,49.81Z"/><path class="cls-3" d="M92.66,52a5,5,0,0,0-3.35-1.1,6.52,6.52,0,0,0-3.46,1,5.06,5.06,0,0,0-1.67,1.6,4.17,4.17,0,0,0-.77-1.21,4,4,0,0,0-1.08-.83,4.71,4.71,0,0,0-1.21-.42,6.73,6.73,0,0,0-1.29-.12,5.92,5.92,0,0,0-2.53.51,7.07,7.07,0,0,0-2.15,1.63V51.17h-4.7V64.46h4.7V59A3.9,3.9,0,0,1,77,55.56a2,2,0,0,1,2.29,0A3.12,3.12,0,0,1,79.94,58v6.42h4.68V59a3.93,3.93,0,0,1,1.82-3.48,2,2,0,0,1,2.29,0A3.09,3.09,0,0,1,89.41,58v6.42H94.1V55.74A4.27,4.27,0,0,0,92.66,52Z"/></svg>