<svg viewBox="0 0 106.61 85.42" xmlns="http://www.w3.org/2000/svg"><g fill="#fff"><path d="m32.4 70.94c-1.08 1.22-.57 3-2.44 3.77-3.09 2 4 3.35.55 6.17-8-6.31-8.94-2.08-2-8.91 1.62-2.5-16.45-1.63-7.38-4.75 3 .27 4.28-3.24 7.32-3.38 2.76-.93-.48-1.2.06-3-.52-1-2.61-.9-3.38-1.59 0-1.21-1-1.05-1.69-1.32-1.94-.75 3.15-2.12 4.3-1.2 4.41-1.93 6.36 6.57 3.58 9-5.01 3.46-3.06 2.12 1.08 5.21z"/><path d="m83.05 59.36c2.26-1.41 3.43 1.47 1 2.26-1.9 1-2.28 1.91-1.45 2.9s4.29.27 2.85 1.3c-.42.3-1.21.86-.72 1.19a22.63 22.63 0 0 0 4.85 2.38c5.2 1.87-7 3.94-7.49 6.29 1.49 1.19 0 4.61-2 5.43a6.28 6.28 0 0 0 -1.46-3.11c-5-5.06 7.88-5.72 3.48-8.37-3.54-2.35-3.3-5-1.9-7.74.94-1.81-3-.84-3-.84-1.5-1.31 13.36-9.05 5.84-1.69z"/><path d="m69.36 74.72c-5-2 5.38-7.84-.73-7.34-1.09.08-3.26-.34-2.45-1.09 1-1 5.63-3.42 7.91-5 1.19-.81 1.53 2.72-.29 3.2 6.38 3-7.49 6.47-.2 8.5 1.07.3 2 1.27.49 2.34-3.42 2.37-3.42 2.37-2.39 4.21a14.45 14.45 0 0 0 -1.7 0c-3.79.27-1.94-2.46-.64-4.82z"/><path d="m39.63 71c-3.16-2.18-6.68-4.6-.64-4.51-1.69-1.1-5.71-1.93-3.84-3.78 1-1 4.78 1.43 6.77 2.75-4.4-.67 1.23 1.16-2.21 2.58-1.41.58 6.4 3.81 4.34 4.75-4.33.37-4.16 2.65-2.6 5.36.1 1.28-1.49 1.67-3.54 1.67.09-1.41 1.18-2.46-.64-3.42-2.32-1.41 1.12-2.75 2.3-3.46-3.95-1.24-5.68-2.08.06-1.94z"/><path d="m51.83 74.73c-7.52 1.57 2.36 2.57-3.78 5.18-1.48-1.89.83-1.22-1.89-4.19 2.78-4.35.33-5.92-2.38-7.67-.61-4.36 12.58 2.27 10.2 3-2.67 1.21-5.16.78-2.15 3.68z"/><path d="m64.14 68c-2.52 1.55-1.51 2.83.36 5 2.23 2.54-6.91 6-4.43 2.92 1.2-1.51 0-5.53-.87-5.19-2.34.92-2.74.24-2.74.24-1.16-.97 5.78-4.97 7.68-2.97z"/><path d="m70.77 82.42c-.73 0-2.75 2.2-4-.34-.04 0 2.15-2.53 4 .34z"/><path d="m40.74 81.84s-1 3-3.2 1.4c0 0 .37-2.87 3.2-1.4z"/><path d="m77.13 83.68c.87-1.68 2.09-1.68 4.29-.3 0 0-1.42 2.94-4.29.3z"/><path d="m28.28 84.32c.83-1.65 2.1-1.67 4.3-.29 0-.03-1.47 2.97-4.3.29z"/><path d="m62.24 79.11c-1 1.28-1.17 1.24-1.93.08.69-1.04.92-1.04 1.93-.08z"/><path d="m48.51 83.8c-1.21-1-1.2-1.25-.09-2 .95.77 1.43.93.09 2z"/><path d="m33.67 3.54v-2.32l-2.81 1.52v-2.73h-4.88v6.87l-2.74-1.57v2.44l2.74 2.98v4.92l-2.74-1.56v2.44l2.74 2.97v6.84h.11l4.77-3.06v-7.6l2.8-3.24v-2.31l-2.8 1.5v-4.85z"/><path d="m44.55 3.45v-1.98l-2.48 1.33v-2.79h-4.51v7.22l-3.04-1.74v2.09l3.04 3.3v8.09l4.51-2.9v-2.2l2.47-2.86v-1.98l-2.47 1.33v-4.05z"/><path d="m52.44 1.86-2.08 1.12v-2.97h-2.93v6.75l-2.43-1.39v1.74l2.43 2.64v3.43l2.93-1.94v-5.29l2.08-2.4z"/><path d="m87.3 6.16v-2.44l-2.81 1.61v-5.33h-4.88v10.9l-2.8-1.51v2.31l2.8 3.24v8.33l4.77 3.06h.11v-6.77l2.8-3.04v-2.44l-2.8 1.6v-6.47z"/><path d="m75.96 4.88-3.05 1.75v-6.63h-4.51v2.31l-2.47-1.33v1.98l2.47 2.85v5.4l-2.47-1.33v1.98l2.47 2.85v1.36l4.51 2.89v-8.68l3.05-3.31z"/><path d="m65.48 6.34-2.45 1.4v-7.74h-2.92v4.68l-2.07-1.12v1.7l2.07 2.38v3.59l2.93 1.94-.01-2.43 2.45-2.66z"/><path d="m34.13 48a.42.42 0 0 0 .1-.14c0-.07.07-.11.12-.11s.1.05.12.16l.13 1v.12c0 .06 0 .09-.1.09a.13.13 0 0 1 -.1 0 2.48 2.48 0 0 1 -.13-.22 1.46 1.46 0 0 0 -.51-.58 1.18 1.18 0 0 0 -.72-.26.87.87 0 0 0 -.58.2.59.59 0 0 0 -.23.51.57.57 0 0 0 .21.43 2.15 2.15 0 0 0 .84.37 2.77 2.77 0 0 1 1.31.68 1.35 1.35 0 0 1 .34.9 1.38 1.38 0 0 1 -.25.85 1.82 1.82 0 0 1 -.6.54 1.78 1.78 0 0 1 -.89.2 2.39 2.39 0 0 1 -.63-.09 4.1 4.1 0 0 1 -.68-.26.53.53 0 0 0 -.12.21q-.06.15-.15.15c-.06 0-.1-.06-.11-.19l-.1-1.32a.51.51 0 0 1 0-.1.1.1 0 0 1 .11-.11s.1.06.15.18a2.77 2.77 0 0 0 .6.91 1.22 1.22 0 0 0 .88.36 1 1 0 0 0 .69-.26.79.79 0 0 0 .26-.57.68.68 0 0 0 -.24-.54 2.47 2.47 0 0 0 -.87-.43 4.43 4.43 0 0 1 -.91-.38 1.33 1.33 0 0 1 -.48-.49 1.3 1.3 0 0 1 -.18-.64 1.28 1.28 0 0 1 .44-1 1.73 1.73 0 0 1 1.15-.37 3.43 3.43 0 0 1 1.13.2z"/><path d="m37.06 47.72v.62 1 .76a1.53 1.53 0 0 1 .48-.44 1.23 1.23 0 0 1 .57-.14 1.21 1.21 0 0 1 .49.11.84.84 0 0 1 .4.37 2.68 2.68 0 0 1 .12 1v1.13c0 .25.1.39.3.41s.11 0 .11.09 0 .11-.12.11h-.1a6.94 6.94 0 0 0 -.75 0h-.3-.26c-.1 0-.15 0-.15-.1s.06-.09.17-.11a.23.23 0 0 0 .21-.2 6.9 6.9 0 0 0 0-1.1 4.06 4.06 0 0 0 -.09-1.09.34.34 0 0 0 -.34-.26.58.58 0 0 0 -.43.22 1.16 1.16 0 0 0 -.28.61 6.46 6.46 0 0 0 -.06 1 3.89 3.89 0 0 0 0 .51.66.66 0 0 0 .08.27.27.27 0 0 0 .18.07c.09 0 .14.05.14.12s-.06.09-.16.09a2.38 2.38 0 0 1 -.34 0h-.32-.53-.32c-.07 0-.1 0-.1-.1s0-.09.14-.11a.29.29 0 0 0 .26-.15 3.7 3.7 0 0 0 .09-.95c0-.55 0-1.39 0-2.51a1.79 1.79 0 0 0 -.08-.67.43.43 0 0 0 -.27-.22c-.12 0-.18-.08-.18-.13s0-.1.16-.1z"/><path d="m42 52.31a1.79 1.79 0 0 1 -.45.32 1.07 1.07 0 0 1 -.46.11.75.75 0 0 1 -.57-.23.8.8 0 0 1 -.2-.54.83.83 0 0 1 .12-.44.86.86 0 0 1 .3-.3 3.32 3.32 0 0 1 .56-.23 3.77 3.77 0 0 0 .47-.2.61.61 0 0 0 .19-.2.66.66 0 0 0 .08-.36.6.6 0 0 0 -.12-.38.42.42 0 0 0 -.32-.14.33.33 0 0 0 -.26.09.71.71 0 0 0 -.12.3.43.43 0 0 1 -.44.41.37.37 0 0 1 -.25-.09.29.29 0 0 1 -.11-.24.55.55 0 0 1 .38-.52 2.06 2.06 0 0 1 .9-.18 1.74 1.74 0 0 1 .74.14.68.68 0 0 1 .36.32 1.54 1.54 0 0 1 .08.56v.86a4.86 4.86 0 0 0 .05.87c0 .13.09.19.19.19h.16c.1 0 .15 0 .15.08a.09.09 0 0 1 -.07.09 1.27 1.27 0 0 1 -.37.1 2.88 2.88 0 0 1 -.55.06.47.47 0 0 1 -.35-.1.57.57 0 0 1 -.09-.35zm0-1.45a1.71 1.71 0 0 1 -.42.28 1.33 1.33 0 0 0 -.4.28.65.65 0 0 0 -.1.37.59.59 0 0 0 .11.38.33.33 0 0 0 .26.14.57.57 0 0 0 .39-.2 1 1 0 0 0 .18-.68c-.02-.1-.02-.29-.02-.57z"/><path d="m45.33 50.2a1.48 1.48 0 0 1 .41-.54.85.85 0 0 1 .53-.18.56.56 0 0 1 .43.16.52.52 0 0 1 .17.39.44.44 0 0 1 -.12.32.37.37 0 0 1 -.29.14.32.32 0 0 1 -.2-.07.65.65 0 0 1 -.18-.23c-.08-.19-.17-.19-.23-.19s-.19.09-.3.27a2.11 2.11 0 0 0 -.17 1.05 4.8 4.8 0 0 0 .06 1.1.35.35 0 0 0 .3.11c.13 0 .2 0 .2.11s-.07.1-.2.1h-.31-.36c-.24 0-.47 0-.71 0h-.17q-.15 0-.15-.12c0-.06.06-.1.18-.1a.38.38 0 0 0 .24-.08.57.57 0 0 0 .07-.33v-.9c0-.18 0-.41 0-.68a4 4 0 0 0 0-.49.24.24 0 0 0 -.09-.14.4.4 0 0 0 -.2-.07h-.17a.1.1 0 0 1 0-.08c0-.07.06-.1.18-.11s.6 0 1.13-.08z"/><path d="m48.56 51v.15a1.42 1.42 0 0 0 .25.87.77.77 0 0 0 .68.36 1.28 1.28 0 0 0 .85-.38c.06 0 .1-.08.13-.08s.09 0 .09.11-.07.14-.21.28a1.44 1.44 0 0 1 -.54.31 2 2 0 0 1 -.65.11 1.49 1.49 0 0 1 -1.16-.45 1.51 1.51 0 0 1 -.42-1.06 1.7 1.7 0 0 1 .49-1.22 1.56 1.56 0 0 1 1.19-.5 1.24 1.24 0 0 1 1 .45 1.45 1.45 0 0 1 .35.86c0 .09 0 .14-.07.16a2.9 2.9 0 0 1 -.44 0zm0-.26h.62a1.2 1.2 0 0 0 .5-.06.27.27 0 0 0 .09-.24.81.81 0 0 0 -.17-.52.5.5 0 0 0 -.4-.23c-.35.01-.57.36-.62 1.05z"/><path d="m53.81 49.82c0-.7 0-1.16 0-1.39a.93.93 0 0 0 0-.41.5.5 0 0 0 -.26-.1c-.09 0-.14-.05-.14-.1a.08.08 0 0 1 0-.08h1.27v2.56 1.6a1.06 1.06 0 0 0 .06.46.4.4 0 0 0 .3.13c.08 0 .13 0 .13.1s0 .1-.14.1h-1.22v-.5a1.2 1.2 0 0 1 -.38.42 1 1 0 0 1 -.52.13 1.28 1.28 0 0 1 -1-.43 1.49 1.49 0 0 1 -.42-1.1 1.7 1.7 0 0 1 .51-1.21 1.49 1.49 0 0 1 1.07-.48.9.9 0 0 1 .4.09 1 1 0 0 1 .34.21zm-1.32 1.27a2 2 0 0 0 .19 1 .53.53 0 0 0 .46.32.55.55 0 0 0 .47-.31 2.32 2.32 0 0 0 .19-1.1 2.37 2.37 0 0 0 -.16-1 .54.54 0 0 0 -.5-.33.51.51 0 0 0 -.48.35 2.46 2.46 0 0 0 -.17 1.07z"/><path d="m61.71 51a1.77 1.77 0 0 1 -2.93 1.27 1.63 1.63 0 0 1 0-2.34 1.72 1.72 0 0 1 1.22-.45 1.77 1.77 0 0 1 1.21.43 1.44 1.44 0 0 1 .5 1.09zm-1 .25a2.83 2.83 0 0 0 -.19-1.07q-.2-.48-.57-.48a.55.55 0 0 0 -.5.33 2 2 0 0 0 -.18.94 2.57 2.57 0 0 0 .2 1.08c.14.29.32.43.55.43a.57.57 0 0 0 .52-.34 1.88 1.88 0 0 0 .17-.88z"/><path d="m64 49.53h.64s.15 0 .15.08a.63.63 0 0 1 0 .14c0 .07 0 .12-.07.13a.12.12 0 0 1 -.09 0h-.63v1.71a1.27 1.27 0 0 0 .11.64.49.49 0 0 0 .37.19c.12 0 .17.05.17.11s-.06.09-.17.09h-.35a3.17 3.17 0 0 0 -.43 0h-.6-.3c-.09 0-.14 0-.14-.1s0-.08.09-.09a.59.59 0 0 0 .31-.14 1 1 0 0 0 .08-.44c0-.23 0-.89 0-2h-.28c-.18 0-.27 0-.27-.08a.64.64 0 0 1 0-.15.24.24 0 0 1 .1-.13 2.74 2.74 0 0 1 .42 0 1.92 1.92 0 0 1 .44-1.38 1.59 1.59 0 0 1 1.2-.44 1.17 1.17 0 0 1 .73.17.5.5 0 0 1 .23.38.29.29 0 0 1 -.1.23.46.46 0 0 1 -.27.1c-.2 0-.37-.14-.53-.4a.54.54 0 0 0 -.18-.22.29.29 0 0 0 -.16 0 .4.4 0 0 0 -.38.27 4.14 4.14 0 0 0 -.09 1.33z"/><path d="m67.24 49.53h.65s.15 0 .15.08l-.05.13a.38.38 0 0 1 -.06.14.13.13 0 0 1 -.1 0h-.59v1.71a1.3 1.3 0 0 0 .1.64.55.55 0 0 0 .38.19c.11 0 .16.05.16.11s-.05.09-.17.09h-.34a3.39 3.39 0 0 0 -.44 0h-.6-.33c-.09 0-.13 0-.13-.1a.08.08 0 0 1 .08-.09.55.55 0 0 0 .32-.15 1 1 0 0 0 .07-.43c0-.23 0-.89 0-2h-.29c-.18 0-.27 0-.27-.08a.41.41 0 0 1 0-.15.19.19 0 0 1 .09-.13 2.78 2.78 0 0 1 .43 0 1.92 1.92 0 0 1 .43-1.38 1.59 1.59 0 0 1 1.2-.44 1.17 1.17 0 0 1 .73.17.47.47 0 0 1 .23.38.3.3 0 0 1 -.1.23.4.4 0 0 1 -.27.09c-.2 0-.37-.13-.52-.39a.78.78 0 0 0 -.1-.15.33.33 0 0 0 -.17 0 .41.41 0 0 0 -.38.27 4.14 4.14 0 0 0 -.11 1.26z"/><path d="m70.49 49.47v1.8.78a.5.5 0 0 0 .07.32.52.52 0 0 0 .26.1c.13 0 .2.06.2.12s0 .09-.16.09h-.26-.79a2.55 2.55 0 0 0 -.39 0h-.16c-.11 0-.16 0-.16-.09s.07-.1.21-.12.29-.08.31-.18a4.49 4.49 0 0 0 0-.65c0-.43 0-.82 0-1.17a2 2 0 0 0 -.07-.61.4.4 0 0 0 -.29-.1c-.11 0-.17 0-.17-.11s.06-.09.18-.1h.07zm0-1.22a.49.49 0 0 1 -.15.36.51.51 0 0 1 -.74 0 .49.49 0 0 1 -.15-.36.5.5 0 0 1 .15-.37.51.51 0 0 1 .37-.15.53.53 0 0 1 .37.15.5.5 0 0 1 .1.37z"/><path d="m71.87 51.12a1.63 1.63 0 0 1 .46-1.12 1.56 1.56 0 0 1 1.17-.48 1.5 1.5 0 0 1 .82.22.64.64 0 0 1 .35.53.37.37 0 0 1 -.1.28.39.39 0 0 1 -.27.1q-.31 0-.45-.45a1 1 0 0 0 -.16-.35.31.31 0 0 0 -.26-.1.47.47 0 0 0 -.43.25 2.07 2.07 0 0 0 -.15.89 2.12 2.12 0 0 0 .23 1.11.75.75 0 0 0 .64.41c.35 0 .59-.21.73-.62 0-.13.1-.19.17-.19a.09.09 0 0 1 .1.1 1.13 1.13 0 0 1 -.32.69 1.24 1.24 0 0 1 -1 .36 1.54 1.54 0 0 1 -1.14-.45 1.59 1.59 0 0 1 -.39-1.18z"/><path d="m76.67 51a1 1 0 0 0 0 .15 1.54 1.54 0 0 0 .25.87.8.8 0 0 0 .68.36 1.3 1.3 0 0 0 .86-.38c.06-.06.1-.08.12-.08s.1 0 .1.1-.07.15-.22.29a1.46 1.46 0 0 1 -.53.31 2.05 2.05 0 0 1 -.65.1 1.51 1.51 0 0 1 -1.16-.45 1.53 1.53 0 0 1 -.41-1.06 1.7 1.7 0 0 1 .47-1.21 1.58 1.58 0 0 1 1.19-.5 1.24 1.24 0 0 1 1 .45 1.48 1.48 0 0 1 .35.86c0 .09 0 .14-.07.16a1.77 1.77 0 0 1 -.45 0zm0-.27h.62a1.23 1.23 0 0 0 .5-.06.25.25 0 0 0 .09-.23.9.9 0 0 0 -.17-.53.49.49 0 0 0 -.41-.22c-.3.01-.56.31-.61 1.04z"/><path d="m106.61 43.74v-4.38l-4.17.01v-5.71h-2.67l-1.27 2.39-1.35-2.39h-2.6v5.71h-4.66l-.2-.21v-4.44h-3.2v9.02h3.2z"/><path d="m31.52 31.47-3.79 4.61-3.73-4.6h-3.4v7.66l-.23.24h-6.67v-4.61h-13.7v13.7h13.7v-4.72h10.5v-6.87l3.35 4.12h.29l3.34-4.12v6.87h3.7v-12.28zm-21.52 13.3h-6.3v-6.29h6.3z"/><path d="m45.71 41.88a.35.35 0 0 1 -.35-.25 2.2 2.2 0 0 1 -.09-.73v-3.49a2.47 2.47 0 0 0 -1-2.08 4.76 4.76 0 0 0 -2.94-.76 8.71 8.71 0 0 0 -1.53.14 7 7 0 0 0 -1.44.4 5.84 5.84 0 0 0 -1.28.69v2.45a6.55 6.55 0 0 1 1.64-1.19 4.11 4.11 0 0 1 1.94-.46c.59 0 1 .12 1.15.37a1.8 1.8 0 0 1 .26 1 3.52 3.52 0 0 1 -.35.16l-.51.17-1 .33a13.1 13.1 0 0 0 -1.87.71 3.09 3.09 0 0 0 -1.13.89 2.22 2.22 0 0 0 -.42 1.38 2.53 2.53 0 0 0 .21 1.1 2 2 0 0 0 .85.86 3.35 3.35 0 0 0 1.59.34 4.24 4.24 0 0 0 1.65-.27 4.68 4.68 0 0 0 1.17-.64 1.64 1.64 0 0 0 .44.68 1.71 1.71 0 0 0 1.1.28 5.39 5.39 0 0 0 1.43-.17c.39-.11.82-.26 1.29-.44v-1.73a2 2 0 0 1 -.81.26zm-4.29.12a1.3 1.3 0 0 1 -.65.18.85.85 0 0 1 -.6-.24.87.87 0 0 1 -.27-.69 1.17 1.17 0 0 1 .53-1 15.45 15.45 0 0 1 1.65-.55v1.86a5 5 0 0 1 -.66.44z"/><path d="m74.43 35.9a4.37 4.37 0 0 0 -1.62-1 6.48 6.48 0 0 0 -2.25-.35 6.68 6.68 0 0 0 -2.24.34 4.42 4.42 0 0 0 -1.62 1 4 4 0 0 0 -1 1.48 5 5 0 0 0 -.33 1.85 5 5 0 0 0 .58 2.4 4.14 4.14 0 0 0 1.75 1.66 6.92 6.92 0 0 0 5.68 0 4.11 4.11 0 0 0 1.74-1.66 4.9 4.9 0 0 0 .59-2.4 5 5 0 0 0 -.33-1.86 4 4 0 0 0 -.95-1.46zm-2.52 5a1.77 1.77 0 0 1 -2.69 0 2.75 2.75 0 0 1 -.47-1.68 2.69 2.69 0 0 1 .46-1.68 1.8 1.8 0 0 1 2.7 0 2.69 2.69 0 0 1 .46 1.68 2.72 2.72 0 0 1 -.46 1.69z"/><path d="m83.17 35a3.22 3.22 0 0 0 -1.6.48 3.73 3.73 0 0 0 -1 1.07v-1.82h-3.2v9h3.19v-1.5a5.62 5.62 0 0 1 .7-3 2.4 2.4 0 0 1 1.42-1.13 2.57 2.57 0 0 1 1.6.16l1-2.73a3.27 3.27 0 0 0 -2.11-.53z"/><path d="m87.4 33.8a1.33 1.33 0 0 0 .68.18 1.31 1.31 0 0 0 1-.39 1.27 1.27 0 0 0 .4-1 1.3 1.3 0 0 0 -.4-.95 1.31 1.31 0 0 0 -1-.39 1.3 1.3 0 0 0 -1 .39 1.32 1.32 0 0 0 -.38.95 1.3 1.3 0 0 0 .17.68 1.38 1.38 0 0 0 .53.53z"/><path d="m62.88 35.32a3.45 3.45 0 0 0 -2.27-.75 4.49 4.49 0 0 0 -2.35.66 3.56 3.56 0 0 0 -1.13 1.09 3 3 0 0 0 -.52-.82 2.74 2.74 0 0 0 -.73-.56 3.83 3.83 0 0 0 -.82-.29 5 5 0 0 0 -.88-.08 4.06 4.06 0 0 0 -1.72.35 5 5 0 0 0 -1.46 1.08v-1.27h-3.19v9h3.19v-3.66a2.65 2.65 0 0 1 1.24-2.36 1.36 1.36 0 0 1 1.55 0 2.11 2.11 0 0 1 .46 1.68v4.36h3.18v-3.68a2.65 2.65 0 0 1 1.24-2.36 1.36 1.36 0 0 1 1.55 0 2.11 2.11 0 0 1 .46 1.68v4.36h3.18v-5.92a2.89 2.89 0 0 0 -.98-2.51z"/></g></svg>