<svg id="レイヤー_1" data-name="レイヤー 1" xmlns="http://www.w3.org/2000/svg" viewBox="0 0 74 46"><defs><style>.cls-1{fill:#1f2a66;}.cls-2{fill:#836c39;}</style></defs><path class="cls-1" d="M74,37A37,37,0,1,0,1.11,46H72.89A37.1,37.1,0,0,0,74,37Z"/><path class="cls-2" d="M24.42,25.94H26.3V22.5h2.36v3.44h1.88v2.3H28.66v7.88H26.3V28.24H24.42Z"/><path class="cls-2" d="M36,25.94a4.27,4.27,0,0,1,1.57.27,3.5,3.5,0,0,1,1.18.75,3.14,3.14,0,0,1,.75,1.16,4.36,4.36,0,0,1,.26,1.54V32.4a4.38,4.38,0,0,1-.26,1.53,3.22,3.22,0,0,1-.75,1.18,3.5,3.5,0,0,1-1.18.75,4.49,4.49,0,0,1-1.57.26h-.82a4.56,4.56,0,0,1-1.56-.26,3.45,3.45,0,0,1-1.19-.75,3.2,3.2,0,0,1-.74-1.18,4.39,4.39,0,0,1-.25-1.53V29.66a4.36,4.36,0,0,1,.25-1.54A3.12,3.12,0,0,1,32.43,27a3.45,3.45,0,0,1,1.19-.75,4.33,4.33,0,0,1,1.56-.27Zm-.82,2.3a1.49,1.49,0,0,0-1,.41,1.39,1.39,0,0,0-.43,1.07v2.6a1.43,1.43,0,0,0,.43,1.08,1.46,1.46,0,0,0,1,.42H36a1.39,1.39,0,0,0,1-.42,1.49,1.49,0,0,0,.41-1.08v-2.6a1.46,1.46,0,0,0-.41-1.07,1.42,1.42,0,0,0-1-.41Z"/><path class="cls-2" d="M45.62,25.94a4.27,4.27,0,0,1,1.57.27,3.5,3.5,0,0,1,1.18.75,3.14,3.14,0,0,1,.75,1.16,4.36,4.36,0,0,1,.26,1.54V32.4a4.38,4.38,0,0,1-.26,1.53,3.22,3.22,0,0,1-.75,1.18,3.5,3.5,0,0,1-1.18.75,4.49,4.49,0,0,1-1.57.26H45a4.3,4.3,0,0,1-1.6-.28V39.6H41.06V25.94Zm-2.24,2.3v4.08a1.49,1.49,0,0,0,.4,1.08,1.37,1.37,0,0,0,1,.42h.8a1.43,1.43,0,0,0,1.06-.42,1.46,1.46,0,0,0,.42-1.08v-2.6a1.42,1.42,0,0,0-.42-1.07,1.46,1.46,0,0,0-1.06-.41Z"/><path class="cls-2" d="M44,18a1,1,0,0,1-.65-.24L37,12.32l-6.35,5.44a1,1,0,1,1-1.3-1.52l7-6a1,1,0,0,1,1.3,0l7,6A1,1,0,0,1,44,18Z"/></svg>