<svg id="レイヤー_1" data-name="レイヤー 1" xmlns="http://www.w3.org/2000/svg" viewBox="0 0 79 79"><defs><style>.icon_prevention_04-1{fill:#fff;}.icon_prevention_04-2{fill:#d2ecfa;}.icon_prevention_04-3{fill:#626a94;}.icon_prevention_04-4{fill:#bec1d3;}</style></defs><rect class="icon_prevention_04-1" width="79" height="79" rx="5.67"/><polygon class="icon_prevention_04-2" points="44.48 17.87 68.63 14.94 68.63 58.16 44.48 55.82 44.48 17.87"/><path class="icon_prevention_04-3" d="M44.48,56.76a.94.94,0,0,1-.94-.94V17.87a.94.94,0,1,1,1.88,0v38A.94.94,0,0,1,44.48,56.76Z"/><path class="icon_prevention_04-3" d="M68.63,25.18a.46.46,0,0,1-.29-.1l-10.78-8.5a.47.47,0,1,1,.58-.74l10.78,8.51A.47.47,0,0,1,69,25,.48.48,0,0,1,68.63,25.18Z"/><path class="icon_prevention_04-3" d="M68.63,29.44a.53.53,0,0,1-.29-.1L61.63,24a.47.47,0,1,1,.58-.73l6.71,5.29a.47.47,0,0,1,.08.66A.46.46,0,0,1,68.63,29.44Z"/><path class="icon_prevention_04-3" d="M60,22.61a.53.53,0,0,1-.29-.1l-2.12-1.68a.47.47,0,0,1-.08-.66.46.46,0,0,1,.66-.07l2.12,1.67a.47.47,0,0,1,.08.66A.46.46,0,0,1,60,22.61Z"/><path class="icon_prevention_04-3" d="M69.25,14.24a.92.92,0,0,0-.73-.23L20.23,19.63a.94.94,0,0,0-.83.93V45.78c.67-.26,1.29-.54,1.87-.82V21.4L67.69,16V57.13L31.91,53.66c-.65.57-1.33,1.13-2.06,1.68L68.54,59.1h.09a.92.92,0,0,0,.63-.24.93.93,0,0,0,.31-.7V14.94A.94.94,0,0,0,69.25,14.24Z"/><path class="icon_prevention_04-3" d="M21.27,51.07c-.6.23-1.23.45-1.87.66v1.75a.93.93,0,0,0,.84.93l.31,0c1-.5,2-1,2.95-1.6l-2.23-.22Z"/><path class="icon_prevention_04-4" d="M37.19,42.07a1.18,1.18,0,0,0-1.56.56,28.35,28.35,0,0,1-9.52,10.46c-.82.57-1.68,1.11-2.6,1.64a39.53,39.53,0,0,1-10,4A1.17,1.17,0,0,0,13.81,61a1,1,0,0,0,.29,0A41.19,41.19,0,0,0,27.39,55.1c.79-.54,1.54-1.09,2.25-1.66a29.07,29.07,0,0,0,8.1-9.8A1.17,1.17,0,0,0,37.19,42.07Z"/><path class="icon_prevention_04-4" d="M5.32,60l-.56,0a1.17,1.17,0,0,0,.06,2.34h.06l.57,0A1.17,1.17,0,0,0,5.32,60Z"/><path class="icon_prevention_04-4" d="M11,59.4a1,1,0,0,0-.55,0c-.71.12-1.43.23-2.15.32A1.18,1.18,0,0,0,8.49,62h.15c.75-.1,1.51-.21,2.26-.34a1.15,1.15,0,0,0,.56-.28,1.16,1.16,0,0,0-.42-2Z"/><path class="icon_prevention_04-4" d="M10.94,51.82h.12A37.07,37.07,0,0,0,19.4,50c.64-.23,1.27-.46,1.87-.7a27.42,27.42,0,0,0,8.52-5.26,1.17,1.17,0,0,0-1.63-1.69,24.72,24.72,0,0,1-6.89,4.41c-.59.26-1.21.51-1.87.76a34.9,34.9,0,0,1-8.57,1.95,1.16,1.16,0,0,0-1.05,1.28A1.18,1.18,0,0,0,10.94,51.82Z"/><path class="icon_prevention_04-4" d="M8.15,51a.49.49,0,0,0,0-.12,1.09,1.09,0,0,0,0-.26A1.16,1.16,0,0,0,7,49.67H6.32A1.17,1.17,0,0,0,6.3,52H7A1.16,1.16,0,0,0,8.15,51Z"/></svg>