<svg xmlns="http://www.w3.org/2000/svg" viewBox="0 0 85.66 85.65"><defs><style>.icon_smartlock-1{fill:#1f2a66;}</style></defs><path class="icon_smartlock-1" d="M42.67,85.9-.15,43.08,42.67.25,85.5,43.08ZM5.5,43.08,42.67,80.25,79.85,43.08,42.67,5.9Zm33.83,6.27V45.64a3.53,3.53,0,1,0-2.54,0v3.71Zm2,5.36H28a1.62,1.62,0,0,1-1.61-1.61v-18A1.62,1.62,0,0,1,28,33.47H48.11a1.61,1.61,0,0,1,1.61,1.61v4.16l1.66-1.66v-2.5a3.27,3.27,0,0,0-3.27-3.27H44.59V25.33a3.27,3.27,0,0,0-3.27-3.27H34.79a3.28,3.28,0,0,0-3.27,3.27v6.48H28a3.27,3.27,0,0,0-3.27,3.27v18A3.28,3.28,0,0,0,28,56.37H39.62Zm-8.1-22.9V25.33a1.61,1.61,0,0,1,1.61-1.61h6.53a1.61,1.61,0,0,1,1.61,1.61v6.48Zm35,11.81-8.67-8.68a2.46,2.46,0,0,0-3.48,0l-5.59,5.59a2.9,2.9,0,0,0-.73,2.89l1,3.84L39.52,58.5a.8.8,0,0,0-.24.57l-.11,4a.81.81,0,0,0,.24.61A.82.82,0,0,0,40,64l6.67-.12a.82.82,0,0,0,.81-.83V61.29h1.26a.83.83,0,0,0,.83-.83V58.68l.14-.13H51.9a.84.84,0,0,0,.83-.83V55.54l3.15-3.16,3.84,1a2.9,2.9,0,0,0,2.89-.73l5.59-5.59a2.45,2.45,0,0,0,0-3.47ZM40.93,59.44,52.27,48.1a.85.85,0,0,0,.22-.8L51.32,43a1.28,1.28,0,0,1,.31-1.25l5.59-5.59a.8.8,0,0,1,1.13,0L67,44.79a.81.81,0,0,1,0,1.13l-5.59,5.59a1.26,1.26,0,0,1-1.28.3l-4.31-1.16a.86.86,0,0,0-.81.22l-3.73,3.74a.78.78,0,0,0-.24.58v1.7h-1.7a.82.82,0,0,0-.59.24l-.62.62a.82.82,0,0,0-.24.59v1.29H46.66a.83.83,0,0,0-.83.83v1.76l-5,.08Zm21.57-14a.78.78,0,0,0,.58.24.81.81,0,0,0,.59-.24.82.82,0,0,0,.24-.59.78.78,0,0,0-.24-.58l-4.76-4.77a.85.85,0,0,0-1.18,0,.83.83,0,0,0,0,1.17Z"/></svg>