<svg id="レイヤー_1" data-name="レイヤー 1" xmlns="http://www.w3.org/2000/svg" viewBox="0 0 79 79"><defs><style>.icon_prevention_02-1{fill:#fff;}.icon_prevention_02-2{fill:#626a94;}.icon_prevention_02-3{fill:#d2ecfa;}.icon_prevention_02-4{fill:#bec1d3;}</style></defs><rect class="icon_prevention_02-1" width="79" height="79" rx="5.67"/><path class="icon_prevention_02-1" d="M51.94,59c0-.76,0-1.38,0-1.38s0-.62,0-1.38l-.5-24.14A1.75,1.75,0,0,0,50,30.49L37,28.21a5.1,5.1,0,0,0-2.62.33l-5.9,2.68a2.38,2.38,0,0,0-1.28,2l-.64,30.76a1.76,1.76,0,0,0,1.32,1.68l15.8,3.55a3.5,3.5,0,0,0,2.46-.52l4.81-3.57A3,3,0,0,0,52,62.87Z"/><path class="icon_prevention_02-1" d="M51.94,59c0-.76,0-1.38,0-1.38s0-.62,0-1.38l-.5-24.14A1.75,1.75,0,0,0,50,30.49L37,28.21a5.1,5.1,0,0,0-2.62.33l-5.9,2.68a2.38,2.38,0,0,0-1.28,2l-.64,30.76a1.76,1.76,0,0,0,1.32,1.68l15.8,3.55a3.5,3.5,0,0,0,2.46-.52l4.81-3.57A3,3,0,0,0,52,62.87Z"/><path class="icon_prevention_02-2" d="M44.2,69.9h0a2.84,2.84,0,0,1-.68-.07l-15.8-3.54a2.45,2.45,0,0,1-1.86-2.38l.63-30.75a3.13,3.13,0,0,1,1.7-2.57l5.89-2.68a6,6,0,0,1,2.29-.44,5.5,5.5,0,0,1,.74.05l13,2.29a2.44,2.44,0,0,1,2,2.29l.53,25.52h0c0,.13,0,.27,0,.4l.1,4.84a3.68,3.68,0,0,1-1.36,2.77l-4.81,3.56A4.18,4.18,0,0,1,44.2,69.9ZM36.37,28.85a4.67,4.67,0,0,0-1.72.32l-5.89,2.68a1.71,1.71,0,0,0-.88,1.34l-.64,30.75a1.09,1.09,0,0,0,.78,1l15.8,3.54a1.48,1.48,0,0,0,.38,0h0a2.92,2.92,0,0,0,1.52-.44l4.8-3.56a2.32,2.32,0,0,0,.81-1.64L51.25,59c0-.73,0-1.33,0-1.38h0l-.53-25.51a1.06,1.06,0,0,0-.82-1l-13-2.28A2.47,2.47,0,0,0,36.37,28.85Z"/><path class="icon_prevention_02-2" d="M44.2,69.9h0a2.84,2.84,0,0,1-.68-.07l-15.8-3.54a2.45,2.45,0,0,1-1.86-2.38l.63-30.75a3.13,3.13,0,0,1,1.7-2.57l5.89-2.68a6,6,0,0,1,2.29-.44,5.5,5.5,0,0,1,.74.05l13,2.29a2.44,2.44,0,0,1,2,2.29l.53,25.52h0c0,.13,0,.27,0,.4l.1,4.84a3.68,3.68,0,0,1-1.36,2.77l-4.81,3.56A4.18,4.18,0,0,1,44.2,69.9ZM36.37,28.85a4.67,4.67,0,0,0-1.72.32l-5.89,2.68a1.71,1.71,0,0,0-.88,1.34l-.64,30.75a1.09,1.09,0,0,0,.78,1l15.8,3.54a1.48,1.48,0,0,0,.38,0h0a2.92,2.92,0,0,0,1.52-.44l4.8-3.56a2.32,2.32,0,0,0,.81-1.64L51.25,59c0-.73,0-1.33,0-1.38h0l-.53-25.51a1.06,1.06,0,0,0-.82-1l-13-2.28A2.47,2.47,0,0,0,36.37,28.85Z"/><path class="icon_prevention_02-2" d="M46,35.33a.51.51,0,0,1-.42-.21.53.53,0,0,1,.12-.73l3.12-2.21a.52.52,0,1,1,.6.84l-3.12,2.22A.53.53,0,0,1,46,35.33Z"/><path class="icon_prevention_02-2" d="M43,35.58h-.1L30,33a.52.52,0,0,1-.41-.61.53.53,0,0,1,.61-.41l12.91,2.6a.52.52,0,0,1-.11,1Z"/><path class="icon_prevention_02-2" d="M45,66.65a.51.51,0,0,1-.52-.51V37.19a.52.52,0,1,1,1,0v29A.51.51,0,0,1,45,66.65Z"/><path class="icon_prevention_02-2" d="M45.89,32a.34.34,0,0,0-.28-.28l-9.23-1.67a.41.41,0,0,0-.19,0L34.08,31a.35.35,0,0,0,.07.67l9.72,1.8h.06a.37.37,0,0,0,.18,0l1.62-1A.35.35,0,0,0,45.89,32Z"/><path class="icon_prevention_02-3" d="M36.87,37.78a1.32,1.32,0,1,1-1.31-1.31A1.32,1.32,0,0,1,36.87,37.78Z"/><path class="icon_prevention_02-2" d="M35.56,39.62a1.84,1.84,0,1,1,1.83-1.84A1.85,1.85,0,0,1,35.56,39.62Zm0-2.63a.79.79,0,0,0-.8.79.8.8,0,0,0,.8.8.79.79,0,0,0,.79-.8A.79.79,0,0,0,35.56,37Z"/><path class="icon_prevention_02-4" d="M11.21,25.86a.87.87,0,0,1-.81-.58.86.86,0,0,1,.53-1.1A21,21,0,0,1,13,23.56a.87.87,0,0,1,.42,1.68c-.64.16-1.28.35-1.9.57A1,1,0,0,1,11.21,25.86Z"/><path class="icon_prevention_02-4" d="M29.4,28.22a.89.89,0,0,1-.57-.21c-2.36-2-7.22-3.84-12.76-3.24a.86.86,0,0,1-.18-1.72c6.46-.7,11.62,1.53,14.07,3.65a.87.87,0,0,1,.09,1.22A.85.85,0,0,1,29.4,28.22Z"/><path class="icon_prevention_02-4" d="M18.53,17.17h-.06c-.54,0-1.09-.05-1.65-.05a.87.87,0,0,1,0-1.73q.9,0,1.77.06a.85.85,0,0,1,.8.92A.86.86,0,0,1,18.53,17.17Z"/><path class="icon_prevention_02-4" d="M34.14,26.18a.86.86,0,0,1-.8-.52C32.77,24.31,29,19,21.07,17.49a.86.86,0,1,1,.32-1.7c8.53,1.6,12.74,7.31,13.54,9.19a.86.86,0,0,1-.46,1.13A.78.78,0,0,1,34.14,26.18Z"/><path class="icon_prevention_02-4" d="M31.7,14.71a.82.82,0,0,1-.43-.12A8.5,8.5,0,0,0,30,14a.87.87,0,0,1,.62-1.62,10.36,10.36,0,0,1,1.5.73.86.86,0,0,1,.32,1.18A.88.88,0,0,1,31.7,14.71Z"/><path class="icon_prevention_02-4" d="M38.52,25.46a.85.85,0,0,1-.85-.75,15.41,15.41,0,0,0-4.44-8.64.86.86,0,0,1,1.19-1.25,17,17,0,0,1,5,9.68.86.86,0,0,1-.75,1Z"/><path class="icon_prevention_02-4" d="M71.14,26.55a.93.93,0,0,1-.29-.05c-.62-.22-1.26-.41-1.9-.57a.86.86,0,0,1,.41-1.68,21.21,21.21,0,0,1,2.06.62.86.86,0,0,1-.28,1.68Z"/><path class="icon_prevention_02-4" d="M53,28.91a.85.85,0,0,1-.65-.3.86.86,0,0,1,.08-1.22c2.46-2.12,7.61-4.34,14.08-3.65a.86.86,0,0,1-.18,1.72c-5.54-.59-10.4,1.2-12.77,3.24A.85.85,0,0,1,53,28.91Z"/><path class="icon_prevention_02-4" d="M63.4,17.86a.87.87,0,0,1-.06-1.73c.58,0,1.18-.06,1.77-.06a.87.87,0,1,1,0,1.73q-.84,0-1.65.06Z"/><path class="icon_prevention_02-4" d="M47.8,26.87a.8.8,0,0,1-.34-.07A.86.86,0,0,1,47,25.67c.8-1.88,5-7.59,13.55-9.19a.86.86,0,0,1,.31,1.7C52.93,19.66,49.17,25,48.59,26.35A.86.86,0,0,1,47.8,26.87Z"/><path class="icon_prevention_02-4" d="M50,15.33a.88.88,0,0,1-.75-.43.86.86,0,0,1,.31-1.18A9.45,9.45,0,0,1,51.1,13a.86.86,0,1,1,.62,1.61,9.06,9.06,0,0,0-1.26.6A.88.88,0,0,1,50,15.33Z"/><path class="icon_prevention_02-4" d="M43.2,26.09h-.1a.86.86,0,0,1-.76-1,17.09,17.09,0,0,1,5-9.68.87.87,0,1,1,1.19,1.26,15.4,15.4,0,0,0-4.43,8.63A.87.87,0,0,1,43.2,26.09Z"/><path class="icon_prevention_02-1" d="M16,30.09c1.67-.46,2-.84,2.5-2.5.46,1.66.84,2,2.5,2.5-1.66.46-2,.83-2.5,2.5C18.07,30.92,17.7,30.55,16,30.09Z"/><path class="icon_prevention_02-4" d="M18.53,33.1h0a.52.52,0,0,1-.5-.38c-.41-1.48-.65-1.72-2.13-2.13a.53.53,0,0,1-.39-.5.51.51,0,0,1,.39-.5c1.48-.41,1.72-.65,2.13-2.14a.52.52,0,0,1,.5-.38.5.5,0,0,1,.5.38c.41,1.49.65,1.73,2.14,2.14a.5.5,0,0,1,.38.5.52.52,0,0,1-.38.5c-1.49.41-1.73.65-2.14,2.13A.5.5,0,0,1,18.53,33.1Zm-1-3a2.4,2.4,0,0,1,1,1,2.37,2.37,0,0,1,1-1,2.39,2.39,0,0,1-1-1A2.42,2.42,0,0,1,17.52,30.09Z"/><path class="icon_prevention_02-1" d="M55.49,30.73c1.67-.46,2-.83,2.5-2.5.46,1.67.84,2,2.5,2.5-1.66.46-2,.83-2.5,2.5C57.53,31.56,57.16,31.19,55.49,30.73Z"/><path class="icon_prevention_02-4" d="M58,33.75h0a.52.52,0,0,1-.5-.38c-.41-1.49-.65-1.73-2.14-2.14a.52.52,0,0,1,0-1c1.48-.41,1.72-.65,2.13-2.14a.52.52,0,0,1,.5-.38.52.52,0,0,1,.5.38c.41,1.49.65,1.73,2.14,2.14a.52.52,0,0,1,0,1c-1.49.41-1.73.65-2.14,2.14A.52.52,0,0,1,58,33.75Zm-1-3a2.42,2.42,0,0,1,1,1,2.39,2.39,0,0,1,1-1,2.39,2.39,0,0,1-1-1A2.42,2.42,0,0,1,57,30.73Z"/><path class="icon_prevention_02-1" d="M39.27,14.13c1.67-.46,2-.83,2.5-2.5.46,1.67.84,2,2.5,2.5-1.66.46-2,.84-2.5,2.5C41.31,15,40.94,14.59,39.27,14.13Z"/><path class="icon_prevention_02-4" d="M41.77,17.15h0a.51.51,0,0,1-.5-.38c-.41-1.49-.65-1.73-2.14-2.14a.52.52,0,0,1-.38-.5.53.53,0,0,1,.38-.5c1.49-.41,1.73-.65,2.14-2.13a.51.51,0,0,1,.5-.38.5.5,0,0,1,.5.38c.41,1.48.65,1.72,2.14,2.13a.52.52,0,0,1,.38.5.5.5,0,0,1-.38.5c-1.49.41-1.73.65-2.14,2.14A.5.5,0,0,1,41.77,17.15Zm-1-3a2.42,2.42,0,0,1,1,1,2.39,2.39,0,0,1,1-1,2.42,2.42,0,0,1-1-1A2.46,2.46,0,0,1,40.76,14.13Z"/><path class="icon_prevention_02-1" d="M66,14.13c1.67-.46,2-.83,2.5-2.5.46,1.67.83,2,2.5,2.5-1.67.46-2,.84-2.5,2.5C68,15,67.65,14.59,66,14.13Z"/><path class="icon_prevention_02-4" d="M68.48,17.15h0a.51.51,0,0,1-.5-.38c-.41-1.49-.65-1.73-2.14-2.14a.52.52,0,0,1-.38-.5.53.53,0,0,1,.38-.5c1.49-.41,1.73-.65,2.14-2.13a.52.52,0,0,1,1,0c.41,1.48.65,1.72,2.14,2.13a.53.53,0,0,1,.38.5.52.52,0,0,1-.38.5c-1.49.41-1.73.65-2.14,2.14A.51.51,0,0,1,68.48,17.15Zm-1-3a2.39,2.39,0,0,1,1,1,2.39,2.39,0,0,1,1-1,2.42,2.42,0,0,1-1-1A2.42,2.42,0,0,1,67.46,14.13Z"/><path class="icon_prevention_02-1" d="M8,17.33c1.66-.46,2-.83,2.5-2.5.46,1.67.83,2,2.49,2.5-1.66.46-2,.84-2.49,2.5C10.08,18.17,9.7,17.79,8,17.33Z"/><path class="icon_prevention_02-4" d="M10.54,20.35h0A.5.5,0,0,1,10,20c-.42-1.49-.65-1.73-2.14-2.14a.5.5,0,0,1-.38-.5.52.52,0,0,1,.38-.5c1.49-.41,1.72-.65,2.14-2.13a.51.51,0,0,1,1,0c.42,1.48.66,1.72,2.14,2.13a.52.52,0,0,1,.38.5.5.5,0,0,1-.38.5c-1.48.41-1.72.65-2.14,2.14A.5.5,0,0,1,10.54,20.35Zm-1-3a2.39,2.39,0,0,1,1,1,2.37,2.37,0,0,1,1-1,2.4,2.4,0,0,1-1-1A2.42,2.42,0,0,1,9.52,17.33Z"/><path class="icon_prevention_02-4" d="M22.78,59.53a.71.71,0,0,1-.52-.23l-.62-.73a.69.69,0,0,1,.09-1,.71.71,0,0,1,1,.09c.18.23.38.46.58.68a.69.69,0,0,1-.05,1A.69.69,0,0,1,22.78,59.53Z"/><path class="icon_prevention_02-4" d="M20.79,57a.73.73,0,0,1-.58-.3,29.71,29.71,0,0,1-4.09-8.87.69.69,0,0,1,.51-.83.68.68,0,0,1,.83.51h0a28.9,28.9,0,0,0,3.9,8.41.7.7,0,0,1-.18,1A.71.71,0,0,1,20.79,57Z"/><path class="icon_prevention_02-4" d="M22.6,63.6a.65.65,0,0,1-.38-.11c-.35-.23-.7-.47-1-.72a.69.69,0,0,1-.14-1,.68.68,0,0,1,1-.14c.32.23.64.46,1,.67a.69.69,0,0,1,.19,1A.68.68,0,0,1,22.6,63.6Z"/><path class="icon_prevention_02-4" d="M20.05,61.63a.67.67,0,0,1-.46-.18,26.33,26.33,0,0,1-5.19-6.34.69.69,0,0,1,1.22-.66,25.52,25.52,0,0,0,4.89,6,.69.69,0,0,1-.46,1.2Z"/><path class="icon_prevention_02-4" d="M16.24,63.12A.69.69,0,0,1,15.9,63c-.34-.19-.7-.41-1.05-.65a.7.7,0,0,1-.18-1,.68.68,0,0,1,1-.18c.32.21.64.41.95.58a.69.69,0,0,1,.26.94A.68.68,0,0,1,16.24,63.12Z"/><path class="icon_prevention_02-4" d="M13.59,61.21a.66.66,0,0,1-.45-.18,38.19,38.19,0,0,1-5.2-5.76.68.68,0,0,1,.15-1,.69.69,0,0,1,1,.15,37.74,37.74,0,0,0,5,5.54.68.68,0,0,1,.06,1A.67.67,0,0,1,13.59,61.21Z"/><path class="icon_prevention_02-4" d="M21,64.73l-.44-.23a1.2,1.2,0,0,0-.13-.31l.15-.47a.11.11,0,0,0,0-.12.1.1,0,0,0-.12,0l-.47.14a1.66,1.66,0,0,0-.31-.12l-.23-.44a.12.12,0,0,0-.11-.07.14.14,0,0,0-.11.07l-.23.44a1.34,1.34,0,0,0-.3.12l-.48-.14a.1.1,0,0,0-.12,0,.13.13,0,0,0,0,.12l.15.47a1.2,1.2,0,0,0-.13.31l-.44.23a.12.12,0,0,0-.07.11.14.14,0,0,0,.07.11l.44.23a1,1,0,0,0,.13.3L18,66a.13.13,0,0,0,0,.12.12.12,0,0,0,.08,0h0l.48-.15a1,1,0,0,0,.3.13l.23.44a.14.14,0,0,0,.11.07.12.12,0,0,0,.11-.07l.23-.44a1.2,1.2,0,0,0,.31-.13l.47.15h0a.12.12,0,0,0,.12-.12.08.08,0,0,0,0-.07l-.14-.45a1,1,0,0,0,.13-.3L21,65a.15.15,0,0,0,.07-.11A.12.12,0,0,0,21,64.73Z"/><path class="icon_prevention_02-4" d="M24.74,53.24,24.29,53a1.17,1.17,0,0,0-.12-.31l.15-.47a.12.12,0,0,0,0-.12.11.11,0,0,0-.13,0l-.47.14a1.66,1.66,0,0,0-.31-.12l-.23-.44a.12.12,0,0,0-.21,0l-.24.44a1.57,1.57,0,0,0-.3.12l-.48-.14a.1.1,0,0,0-.12,0,.12.12,0,0,0,0,.12l.15.47a1.69,1.69,0,0,0-.13.31l-.44.23a.11.11,0,0,0-.06.11.11.11,0,0,0,.06.1l.44.24a1.6,1.6,0,0,0,.13.3l-.15.48a.13.13,0,0,0,0,.12.15.15,0,0,0,.09,0h0l.48-.15a1.14,1.14,0,0,0,.3.13l.24.44a.11.11,0,0,0,.1.06.11.11,0,0,0,.11-.06l.23-.44a1.2,1.2,0,0,0,.31-.13l.47.15h0a.14.14,0,0,0,.13-.13.14.14,0,0,0,0-.06L24.17,54a1.11,1.11,0,0,0,.12-.3l.45-.24a.11.11,0,0,0,.06-.1A.11.11,0,0,0,24.74,53.24Z"/><path class="icon_prevention_02-4" d="M54.76,60.81a.73.73,0,0,1-.48-.19.7.7,0,0,1,0-1c.21-.22.42-.44.61-.66a.7.7,0,0,1,1-.06.7.7,0,0,1,.06,1l-.65.7A.7.7,0,0,1,54.76,60.81Z"/><path class="icon_prevention_02-4" d="M56.84,58.33a.71.71,0,0,1-.41-.13.7.7,0,0,1-.15-1,20.28,20.28,0,0,0,3.57-6.65.69.69,0,0,1,1.35.29c0,.12-.64,2.88-3.8,7.18A.69.69,0,0,1,56.84,58.33Z"/><path class="icon_prevention_02-4" d="M55.34,63.94a.66.66,0,0,1-.58-.31.69.69,0,0,1,.19-1c.33-.22.65-.45,1-.68a.69.69,0,1,1,.82,1.11c-.33.25-.68.49-1,.72A.67.67,0,0,1,55.34,63.94Z"/><path class="icon_prevention_02-4" d="M57.88,62a.69.69,0,0,1-.55-.27.7.7,0,0,1,.13-1c4.36-3.31,9-9.9,9-10a.7.7,0,0,1,1-.17.69.69,0,0,1,.17,1c-.2.28-4.8,6.84-9.33,10.28A.65.65,0,0,1,57.88,62Z"/><path class="icon_prevention_02-4" d="M61.85,63.9a.69.69,0,0,1-.28-1.32c.32-.14.65-.31,1-.5a.68.68,0,0,1,.94.26.69.69,0,0,1-.26.94c-.37.21-.74.4-1.1.56A.75.75,0,0,1,61.85,63.9Z"/><path class="icon_prevention_02-4" d="M64.65,62.22a.7.7,0,0,1-.57-.3.69.69,0,0,1,.17-1,36.89,36.89,0,0,0,5.88-5.08.69.69,0,0,1,1,.92A38.25,38.25,0,0,1,65,62.09.65.65,0,0,1,64.65,62.22Z"/><path class="icon_prevention_02-4" d="M60.56,64.85l-.44-.23a1,1,0,0,0-.13-.3l.15-.48a.13.13,0,0,0,0-.12.11.11,0,0,0-.12,0l-.48.15a1,1,0,0,0-.3-.13L59,63.27a.13.13,0,0,0-.22,0l-.23.44a1.2,1.2,0,0,0-.31.13l-.47-.15a.11.11,0,0,0-.12,0,.1.1,0,0,0,0,.12l.14.48a1.34,1.34,0,0,0-.12.3l-.44.23a.12.12,0,0,0,0,.22l.44.23a1.34,1.34,0,0,0,.12.3l-.14.48a.1.1,0,0,0,0,.12.09.09,0,0,0,.08,0h0l.47-.15a1.2,1.2,0,0,0,.31.13l.23.44a.12.12,0,0,0,.11.07.15.15,0,0,0,.11-.07l.23-.44a1,1,0,0,0,.3-.13l.48.15h0a.1.1,0,0,0,.09,0,.13.13,0,0,0,0-.12L60,65.6a1,1,0,0,0,.13-.3l.44-.23a.13.13,0,0,0,0-.22Z"/><path class="icon_prevention_02-4" d="M57.37,52.69l-.44-.24a1.14,1.14,0,0,0-.13-.3l.15-.48a.12.12,0,0,0-.15-.15l-.48.15a1.14,1.14,0,0,0-.3-.13l-.24-.44a.11.11,0,0,0-.1-.06.11.11,0,0,0-.11.06l-.23.44a1.2,1.2,0,0,0-.31.13l-.47-.15a.15.15,0,0,0-.13,0,.13.13,0,0,0,0,.12l.15.48a1.57,1.57,0,0,0-.12.3l-.45.24a.11.11,0,0,0-.06.1.11.11,0,0,0,.06.11l.45.23a1.66,1.66,0,0,0,.12.31l-.15.47a.12.12,0,0,0,0,.12.12.12,0,0,0,.09,0h0l.47-.14a1.66,1.66,0,0,0,.31.12l.23.44a.12.12,0,0,0,.11.07.12.12,0,0,0,.1-.07L56,54a1.57,1.57,0,0,0,.3-.12l.48.14h0a.11.11,0,0,0,.09,0,.12.12,0,0,0,0-.12l-.15-.47a1.2,1.2,0,0,0,.13-.31l.44-.23a.11.11,0,0,0,.06-.11A.11.11,0,0,0,57.37,52.69Z"/></svg>