<svg xmlns="http://www.w3.org/2000/svg" viewBox="0 0 27.94 25.2"><polygon points="9.98 3.38 9.98 1.17 7.29 2.61 7.29 0 2.62 0 2.63 6.58 0 5.08 0 7.41 2.63 10.26 2.63 14.97 0 13.48 0 15.81 2.63 18.66 2.63 25.2 2.73 25.2 7.29 22.27 7.29 15 9.97 11.9 9.97 9.68 7.29 11.13 7.29 6.48 9.98 3.38"/><polygon points="20.39 3.3 20.39 1.4 18.02 2.68 18.02 0 13.7 0 13.71 6.91 10.79 5.25 10.79 7.25 13.71 10.41 13.71 18.15 18.02 15.38 18.02 13.26 20.39 10.53 20.39 8.63 18.02 9.91 18.02 6.04 20.39 3.3"/><polygon points="27.94 1.77 25.95 2.84 25.95 0 23.15 0 23.15 6.46 20.82 5.13 20.82 6.8 23.15 9.32 23.15 12.6 25.95 10.75 25.95 5.68 27.94 3.39 27.94 1.77"/></svg>