<svg xmlns="http://www.w3.org/2000/svg" viewBox="0 0 85.66 85.65"><defs><style>.icon_self_drink-1{fill:#1f2a66;}</style></defs><path class="icon_self_drink-1" d="M42.85,86.25,0,43.42,42.85.59,85.68,43.42ZM5.68,43.42,42.85,80.59,80,43.42,42.85,6.25ZM56.8,30.2h-2V27.4a.8.8,0,0,0-.74-.79L32.52,25a.78.78,0,0,0-.61.21.79.79,0,0,0-.25.58V30.2H29.41a.79.79,0,0,0-.8.79v6.75a.8.8,0,0,0,.8.8h2.1l.25,2.64a1.34,1.34,0,0,0-1,1.41l.93,9.55A1.46,1.46,0,0,0,33,53.42L33.88,63a.8.8,0,0,0,.8.72H51.8a.8.8,0,0,0,.8-.72l.92-9.53a1.45,1.45,0,0,0,1.24-1.28l.93-9.55a1.35,1.35,0,0,0-.34-1,1.33,1.33,0,0,0-.64-.39L55,38.54H56.8a.8.8,0,0,0,.8-.8V31A.79.79,0,0,0,56.8,30.2ZM35.4,62.08l-.84-8.65H51.92l-.84,8.65ZM33.11,38.54H53.37l-.25,2.6H33.36Zm21,4.19-.89,9.11H33.3l-.89-9.11ZM33.26,30.2V26.62l20,1.52V30.2ZM56,31.79v5.15H30.2V31.79ZM41.49,51a2.38,2.38,0,0,0,.95.2A3,3,0,0,0,44,50.76a5.54,5.54,0,0,0,2.37-5.23,2.57,2.57,0,0,0-1.39-2c-1.5-.7-3.43.4-4.41,2.5a5.11,5.11,0,0,0-.48,3A2.59,2.59,0,0,0,41.49,51Zm.31-4.43a3.44,3.44,0,0,1,1.89-1.89l-2.12,4.56A3.42,3.42,0,0,1,41.8,46.61Zm1,3.23,2.12-4.55A3.42,3.42,0,0,1,44.68,48a3.74,3.74,0,0,1-1.38,1.65A1.86,1.86,0,0,1,42.79,49.84Z"/></svg>