<svg xmlns="http://www.w3.org/2000/svg" viewBox="0 0 85.66 85.65"><defs><style>.icon_surveillance_camera-1{fill:#836c39;}</style></defs><path class="icon_surveillance_camera-1" d="M42.9,85.43.07,42.6,42.9-.22,85.73,42.6ZM5.73,42.6,42.9,79.78,80.07,42.6,42.9,5.43ZM60.79,32.35H24.25a.85.85,0,0,0-.84.84v8.26a.84.84,0,0,0,.84.83h1.18V45A15.15,15.15,0,0,0,40.56,60.13h3.91A15.14,15.14,0,0,0,59.6,45V42.28h1.19a.83.83,0,0,0,.83-.83V33.19A.84.84,0,0,0,60.79,32.35ZM42.52,46.75A6.51,6.51,0,0,0,36,53.25v4.42A13.45,13.45,0,0,1,27.09,45V42.28H57.94V45A13.45,13.45,0,0,1,49,57.67V53.25A6.51,6.51,0,0,0,42.52,46.75Zm-4.85,6.5a4.85,4.85,0,0,1,9.69,0v4.9a13.4,13.4,0,0,1-2.89.32H40.56a13.54,13.54,0,0,1-2.89-.32ZM60,34v6.6H25.08V34ZM45.89,53a3.37,3.37,0,1,0-3.37,3.38A3.37,3.37,0,0,0,45.89,53Zm-5.08,0a1.48,1.48,0,0,0,1,.37,1.51,1.51,0,0,0,1.51-1.5,1.74,1.74,0,0,0-.05-.39,1.73,1.73,0,0,1,1,1.54,1.71,1.71,0,1,1-3.42,0Z"/></svg>