<svg xmlns="http://www.w3.org/2000/svg" viewBox="0 0 85.66 85.65"><defs><style>.icon_power-1{fill:#1f2a66;}</style></defs><path class="icon_power-1" d="M43.14,85.62.31,42.79,43.14,0,86,42.79ZM6,42.79,43.14,80,80.31,42.79,43.14,5.62ZM56.19,33h-5V25a1,1,0,0,0-1-.95H46.7a1,1,0,0,0-1,.95v8H40.61V25a1,1,0,0,0-1-.95H36.14a1,1,0,0,0-1,.95v8H30.26a1,1,0,0,0-1,1v9.73a13.09,13.09,0,0,0,10.4,12.8v10h1.91V56.7l.76,0h1.69l.76,0v9.7h1.91v-10a13.09,13.09,0,0,0,10.4-12.8V33.92A1,1,0,0,0,56.19,33Zm-19.1,0v-7h1.62v7Zm10.56,0v-7h1.62v7Zm7.59,1.91v8.78A11.18,11.18,0,0,1,44.07,54.82H42.38A11.18,11.18,0,0,1,31.21,43.65V34.87Z"/></svg>