<svg id="レイヤー_1" data-name="レイヤー 1" xmlns="http://www.w3.org/2000/svg" viewBox="0 0 20.69 20.69"><defs><style>.cls-1{fill:#201716;}</style></defs><path class="cls-1" d="M14.72,0H6A6,6,0,0,0,0,6v8.75a6,6,0,0,0,6,6h8.75a6,6,0,0,0,6-6V6a6,6,0,0,0-6-6m4.06,14.87a4,4,0,0,1-4,4H5.87a4,4,0,0,1-4-4V5.92a4,4,0,0,1,4-4h9a4,4,0,0,1,4,4Z"/><path class="cls-1" d="M10.34,5a5.37,5.37,0,1,0,5.37,5.36A5.36,5.36,0,0,0,10.34,5m0,8.84a3.48,3.48,0,1,1,3.48-3.48,3.48,3.48,0,0,1-3.48,3.48"/><path class="cls-1" d="M15.89,3.57a1.25,1.25,0,1,0,1.25,1.25,1.25,1.25,0,0,0-1.25-1.25"/></svg>