<svg xmlns="http://www.w3.org/2000/svg" viewBox="0 0 85.66 85.65"><defs><style>.icon_camera-1{fill:#836c39;}</style></defs><path class="icon_camera-1" d="M42.86,85.53,0,42.7,42.86-.13,85.68,42.7ZM5.68,42.7,42.86,79.87,80,42.7,42.86,5.53Zm53.2-10.81H51.74l-2-4a3.5,3.5,0,0,0-3.27-2.2H39.73a3.5,3.5,0,0,0-3.26,2.17l-2,4H27.32a2.86,2.86,0,0,0-2.86,2.86V51.22a2.86,2.86,0,0,0,2.86,2.85H58.88a2.86,2.86,0,0,0,2.86-2.85V34.75A2.86,2.86,0,0,0,58.88,31.89Zm1,19.33a1,1,0,0,1-1,1H27.32a1,1,0,0,1-1-1V34.75a1,1,0,0,1,1-1H35a.93.93,0,0,0,.84-.52l2.31-4.65a1.65,1.65,0,0,1,1.54-1h6.74A1.68,1.68,0,0,1,48,28.67l2.28,4.58a.93.93,0,0,0,.84.52h7.72a1,1,0,0,1,1,1ZM43.1,34.78a7.6,7.6,0,1,0,7.6,7.6A7.61,7.61,0,0,0,43.1,34.78Zm0,13.32a5.73,5.73,0,1,1,5.72-5.72A5.73,5.73,0,0,1,43.1,48.1Zm10.07-9.61h4.66V35.57H53.17Z"/></svg>