<svg xmlns="http://www.w3.org/2000/svg" viewBox="0 0 85.66 85.65"><defs><style>.icon_post-1{fill:#1f2a66;}.icon_post-2{fill:#fff;}</style></defs><path class="icon_post-1" d="M42.56,85.47-.15,42.52l43-42.7,42.7,43ZM5.51,42.54,42.58,79.82,79.85,42.75,42.79,5.47Z"/><path class="icon_post-1" d="M28,27,27.92,56.5l9.69,0,0,11.36,10,0,0-11.36,9.69,0,.09-29.47ZM39.33,66.14l0-9.61,6.54,0,0,9.61ZM55.66,28.85l-.07,26-25.93-.07.08-26Z"/><rect class="icon_post-1" x="41.79" y="34.65" width="1.74" height="14.43" transform="translate(0.67 84.41) rotate(-89.83)"/><polygon class="icon_post-1" points="35.44 46.29 41.78 46.31 41.76 52.77 43.5 52.78 43.52 46.32 49.86 46.34 49.87 44.59 35.44 44.55 35.44 46.29"/><path class="icon_post-1" d="M42,32.73l-10.1,0v5.09l10.09,0Zm-8.36,3.32v-1.6l6.61,0v1.6Z"/><path class="icon_post-1" d="M53.51,32.77l-10.1,0v5.08l10.09,0Zm-8.37,3.31v-1.6l6.61,0v1.6Z"/><circle class="icon_post-1" cx="66.25" cy="18.71" r="16"/><path class="icon_post-2" d="M55.92,19.35A14.83,14.83,0,0,1,54,21.15c-.14.12-.22.17-.3.17s-.16-.08-.28-.26a3.7,3.7,0,0,0-.73-.82,10.52,10.52,0,0,0,3.93-4.34H54.87c-1.26,0-1.7,0-1.78,0s-.15,0-.15-.15V14.7c0-.14,0-.16.15-.16s.52,0,1.78,0h2.32c.07-.2.13-.39.19-.6a7.69,7.69,0,0,0,.25-1.36c.54.06,1,.13,1.43.22.15.05.26.09.26.2s-.08.18-.15.27a1.72,1.72,0,0,0-.3.64l-.19.63h4.69c1.26,0,1.7,0,1.78,0s.14,0,.14.16v1.08c0,.14,0,.15-.14.15s-.52,0-1.78,0H58.15c-.19.41-.4.8-.61,1.18H61.3c1.26,0,1.9,0,2,0s.16,0,.16.15,0,.69,0,1.87V21.6c0,1,0,1.78,0,2.17A1.43,1.43,0,0,1,63,25c-.33.27-.75.38-2.08.39-.44,0-.44,0-.53-.42a4.61,4.61,0,0,0-.38-1,11.52,11.52,0,0,0,1.33.06c.45,0,.6-.11.6-.49v-.91H57.36v1.11c0,1.16,0,1.54,0,1.61s0,.15-.15.15H56.06c-.16,0-.17,0-.17-.15s0-.45,0-1.61Zm1.44-1v1H62v-1ZM62,21.42v-1H57.36v1Z"/><path class="icon_post-2" d="M69,14.63a13.7,13.7,0,0,0-.11-2c.52,0,.94,0,1.41.1.14,0,.23.08.23.14a.62.62,0,0,1-.09.29,4.22,4.22,0,0,0-.1,1.42v2.63h.12c1.08,0,1.43,0,1.51,0s.15,0,.15.16v1c0,.13,0,.14-.15.14s-.42,0-1.43,0a13,13,0,0,0,1.89,2.42,4.6,4.6,0,0,0-.56.92c-.08.17-.14.25-.19.25s-.13-.07-.23-.21a11.4,11.4,0,0,1-1.13-2c0,2.78.1,5.28.1,5.49s0,.16-.17.16H69.08c-.14,0-.16,0-.16-.16s.07-2.52.1-5.14a13.24,13.24,0,0,1-1.69,3.2c-.11.14-.18.22-.25.22s-.12-.07-.17-.24a3.58,3.58,0,0,0-.51-1,11.75,11.75,0,0,0,2.26-3.89h-.25c-1.1,0-1.45,0-1.53,0s-.15,0-.15-.14v-1c0-.14,0-.16.15-.16s.43,0,1.53,0H69Zm-1.34-1c.16-.07.18-.05.25.09a10.85,10.85,0,0,1,.75,2.35c0,.14,0,.18-.18.25l-.6.23c-.21.08-.22.07-.25-.09a10.61,10.61,0,0,0-.72-2.34c0-.15,0-.18.16-.25Zm3.6.47c0-.14.07-.4.08-.61a9.27,9.27,0,0,1,1.06.4c.12.05.16.09.16.16a.13.13,0,0,1-.09.14.53.53,0,0,0-.16.31,16.31,16.31,0,0,1-.65,1.78c-.08.21-.12.3-.21.3a.85.85,0,0,1-.28-.13,3.72,3.72,0,0,0-.56-.24A13.06,13.06,0,0,0,71.24,14.14Zm5.08,6.34v-5.6a13,13,0,0,0-.11-2.13,14,14,0,0,1,1.48.1c.13,0,.21.07.21.15a.8.8,0,0,1-.08.28,5.65,5.65,0,0,0-.09,1.56V20.2c.82-.17,1.14-.26,1.27-.29s.12,0,.15.14l.17,1.09c0,.13,0,.14-.14.17s-.48.08-1.45.28v1.3c0,1.56,0,2.35,0,2.42s0,.16-.15.16H76.45c-.14,0-.16,0-.16-.16s0-.85,0-2.4v-1l-1.92.38c-1.22.23-1.67.33-1.81.36s-.16,0-.18-.11l-.18-1.11c0-.15,0-.15.13-.18s.6-.07,1.82-.31Zm-3.08-3.57c.07-.07.1-.1.12-.1s.07,0,.14.09a9.53,9.53,0,0,1,1.94,1.79c.1.12.1.15,0,.29l-.69.69c-.15.14-.18.14-.28,0a12.48,12.48,0,0,0-1.85-1.91c-.06-.05-.1-.08-.1-.11s0-.08.11-.15Zm.38-3.19c.12-.12.14-.14.26-.06a9.8,9.8,0,0,1,2,1.78c.08.1.08.15,0,.27l-.68.65c-.15.16-.18.17-.26.05A10.24,10.24,0,0,0,73,14.57c-.1-.07-.11-.14,0-.27Z"/></svg>