<svg id="レイヤー_1" data-name="レイヤー 1" xmlns="http://www.w3.org/2000/svg" viewBox="0 0 79 79"><defs><style>.icon_prevention_01-1{fill:#fff;}.icon_prevention_01-2{fill:#626a94;}.icon_prevention_01-3{fill:#d2ecfa;}</style></defs><rect class="icon_prevention_01-1" width="79" height="79" rx="5.67"/><path class="icon_prevention_01-1" d="M24.69,50.69H17.26c0,2.64,1,9.23-5.92,11.65a49.5,49.5,0,0,0,9.38,1.38,58,58,0,0,0,9.88-1.38C23.68,59.92,24.69,53.33,24.69,50.69Z"/><path class="icon_prevention_01-1" d="M23.12,46.82a6.64,6.64,0,1,1,6.63,6.64A6.63,6.63,0,0,1,23.12,46.82Z"/><path class="icon_prevention_01-2" d="M29.75,54.11A7.29,7.29,0,1,1,37,46.82,7.3,7.3,0,0,1,29.75,54.11Zm0-13.26a6,6,0,1,0,6,6A6,6,0,0,0,29.75,40.85Z"/><path class="icon_prevention_01-2" d="M32.24,51.25c-3.47,0-5.61-2.12-5.74-5.71a.49.49,0,1,1,1,0c.12,3.13,1.95,4.87,5,4.76h0a.5.5,0,0,1,0,1Z"/><path class="icon_prevention_01-2" d="M32.64,48.44a5.6,5.6,0,0,1-3.57-1.12.49.49,0,0,1-.06-.69.48.48,0,0,1,.69-.06c1.62,1.34,4.91,1,6.38-.13a.49.49,0,0,1,.61.77A6.74,6.74,0,0,1,32.64,48.44Z"/><path class="icon_prevention_01-2" d="M11.34,63a.66.66,0,0,1-.62-.44.66.66,0,0,1,.41-.83c5.76-2,5.59-7.07,5.49-10.09,0-.34,0-.66,0-.94a.66.66,0,0,1,1.31,0c0,.26,0,.56,0,.89.1,2.94.31,9-6.37,11.38A.78.78,0,0,1,11.34,63Z"/><path class="icon_prevention_01-2" d="M30.6,63l-.22,0c-6.67-2.34-6.47-8.44-6.37-11.38,0-.33,0-.63,0-.89a.66.66,0,0,1,1.31,0c0,.28,0,.6,0,.94-.1,3-.27,8.07,5.5,10.09A.65.65,0,0,1,30.6,63Z"/><path class="icon_prevention_01-1" d="M27,20.75c2.63-.13,4.76,1.1,6.44,4.81,2.89,6.37-.53,12.69-.53,12.69,1.18-.75,2.62.19,2.62,1.94S34.11,43.06,32,43.27C30.83,45.44,26.78,51,21.09,51s-9.18-5.6-10.36-7.77c-2.09-.21-3.47-1.33-3.47-3.08S8.7,37.5,9.89,38.25a16.16,16.16,0,0,1,0-12.5c2.87-6.38,8.25-7.57,12.31-7.69,2.06-.06,4.13.37,4.75,2.69"/><path class="icon_prevention_01-2" d="M21.09,51.7c-5.48,0-9-4.77-10.77-7.82C8,43.54,6.6,42.15,6.6,40.19a2.68,2.68,0,0,1,2.23-2.85,16.55,16.55,0,0,1,.46-11.86c2.36-5.25,6.58-7.89,12.89-8.08h.38c2.54,0,4.17.9,4.86,2.68,2.89.05,5,1.7,6.57,5.21a15.6,15.6,0,0,1,0,12.06,2.69,2.69,0,0,1,2.16,2.84c0,2-1.41,3.35-3.72,3.69C30.67,46.92,26.49,51.7,21.09,51.7ZM9,38.64c-.53,0-1.1.54-1.1,1.55,0,1.34,1.07,2.25,2.87,2.42a.64.64,0,0,1,.51.34c1.52,2.78,4.81,7.44,9.79,7.44,6.22,0,10.18-7.13,10.35-7.44a.64.64,0,0,1,.51-.34c1.8-.17,2.88-1.08,2.88-2.42,0-1-.57-1.55-1.11-1.55a1,1,0,0,0-.51.16.65.65,0,0,1-.93-.86c0-.06,3.23-6.12.51-12.11-1.39-3.07-3.08-4.44-5.49-4.44H27a.66.66,0,0,1-.66-.48c-.42-1.53-1.58-2.21-3.76-2.21h-.34c-5.76.18-9.6,2.57-11.74,7.31a15.56,15.56,0,0,0,0,12,.66.66,0,0,1-1,.83A1,1,0,0,0,9,38.64Z"/><path class="icon_prevention_01-2" d="M31.45,37.05a.52.52,0,0,1-.29-.09,18.18,18.18,0,0,1-5.57-8.36.5.5,0,0,1,.34-.61.49.49,0,0,1,.61.34,17.32,17.32,0,0,0,5.21,7.84.49.49,0,0,1,.1.68A.51.51,0,0,1,31.45,37.05Z"/><path class="icon_prevention_01-2" d="M10.73,35.89a.49.49,0,0,1-.1-1c11.49-2.47,14.8-9.69,14.93-10a.49.49,0,1,1,.9.4c-1.3,3-6.06,8.51-15.63,10.56Z"/><path class="icon_prevention_01-2" d="M11.19,33.43A.49.49,0,0,1,11,32.5a16.94,16.94,0,0,0,6.47-5.41.49.49,0,0,1,.83.53,17.65,17.65,0,0,1-6.88,5.77A.49.49,0,0,1,11.19,33.43Z"/><path class="icon_prevention_01-3" d="M21.08,41a56.24,56.24,0,0,1-8.28-1.22l.71,8.66s4.09,3.27,7.57,3.27,7.56-3.27,7.56-3.27l.71-8.66A56.27,56.27,0,0,1,21.08,41Z"/><path class="icon_prevention_01-2" d="M21.08,52.17c-3.62,0-7.7-3.23-7.88-3.37a.52.52,0,0,1-.18-.35l-.71-8.66a.5.5,0,0,1,.6-.52,56,56,0,0,0,8.17,1.21,56.06,56.06,0,0,0,8.16-1.21.5.5,0,0,1,.6.52l-.71,8.66a.52.52,0,0,1-.18.35C28.77,48.94,24.69,52.17,21.08,52.17Zm-7.1-4c.79.59,4.21,3,7.1,3s6.3-2.44,7.09-3l.63-7.79a50,50,0,0,1-7.72,1.09,49.92,49.92,0,0,1-7.73-1.09Z"/><path class="icon_prevention_01-2" d="M21.08,50.53a.49.49,0,0,1-.5-.49V42.79a.5.5,0,0,1,1,0V50A.49.49,0,0,1,21.08,50.53Z"/><path class="icon_prevention_01-2" d="M29.35,40.24a.5.5,0,0,1-.46-.3.49.49,0,0,1,.26-.64l3.51-1.5a.49.49,0,1,1,.39.9l-3.51,1.5A.43.43,0,0,1,29.35,40.24Z"/><path class="icon_prevention_01-2" d="M12.8,40.24a.59.59,0,0,1-.22-.05l-2.92-1.5a.49.49,0,0,1,.45-.88L13,39.31a.49.49,0,0,1-.23.93Z"/><path class="icon_prevention_01-2" d="M13.51,48.41a.49.49,0,0,1-.42-.24l-2.78-4.65a.49.49,0,1,1,.84-.51l2.78,4.65a.49.49,0,0,1-.17.68A.45.45,0,0,1,13.51,48.41Z"/><path class="icon_prevention_01-2" d="M28.64,48.41a.52.52,0,0,1-.29-.09.5.5,0,0,1-.11-.69L31.62,43a.48.48,0,0,1,.68-.11.5.5,0,0,1,.11.69L29,48.21A.51.51,0,0,1,28.64,48.41Z"/><path class="icon_prevention_01-2" d="M21.09,62.3a14.51,14.51,0,0,1-6.51-1.62.49.49,0,0,1-.19-.67.5.5,0,0,1,.67-.19,13.8,13.8,0,0,0,6,1.49,11.42,11.42,0,0,0,5.62-1.47.49.49,0,1,1,.53.83A12.19,12.19,0,0,1,21.09,62.3Z"/><path class="icon_prevention_01-1" d="M62.22,48.18H50.85c0,2.65,1,11.86-5.91,14.27a59.16,59.16,0,0,0,11.54,1.39,61.31,61.31,0,0,0,11.66-1.39C61.22,60,62.22,50.83,62.22,48.18Z"/><path class="icon_prevention_01-2" d="M44.94,63.11a.65.65,0,0,1-.62-.44.66.66,0,0,1,.4-.84c5.81-2,5.6-9.24,5.5-12.71,0-.36,0-.68,0-.94a.66.66,0,0,1,1.31,0c0,.25,0,.55,0,.91.1,3.48.34,11.64-6.37,14A.6.6,0,0,1,44.94,63.11Z"/><path class="icon_prevention_01-2" d="M68.14,63.11a.54.54,0,0,1-.22,0c-6.71-2.34-6.48-10.5-6.37-14,0-.36,0-.66,0-.91a.65.65,0,0,1,.65-.65.66.66,0,0,1,.66.65c0,.26,0,.58,0,.94-.1,3.47-.31,10.68,5.49,12.71a.66.66,0,0,1,.4.84A.64.64,0,0,1,68.14,63.11Z"/><path class="icon_prevention_01-2" d="M56.65,62.41A27.69,27.69,0,0,1,48,60.83a.49.49,0,1,1,.34-.92,27.56,27.56,0,0,0,8.34,1.52,20.34,20.34,0,0,0,7.95-1.5.49.49,0,0,1,.66.23.49.49,0,0,1-.23.65A20.79,20.79,0,0,1,56.65,62.41Z"/><path class="icon_prevention_01-1" d="M65.14,21.09c2.79.18,6.73,3.29,4,11.76-.45,2.76-.7,5.52-.7,5.52,1.19-.75,2.63.18,2.63,1.93s-1.38,2.88-3.47,3.08c-1.19,2.17-5.24,7.78-10.93,7.78s-9.17-5.61-10.36-7.78c-2.09-.2-3.46-1.33-3.46-3.08s1.43-2.68,2.62-1.93c-.38-2.11-.35-3.71-.67-6.42,0,0-3-4.28.16-8,3.43-4.1,9.82-6.76,13.18-6.76,2.55,0,6.39,1.62,7,3.93"/><path class="icon_prevention_01-2" d="M56.65,51.82c-5.47,0-9-4.77-10.77-7.83-2.3-.33-3.71-1.73-3.71-3.69a2.63,2.63,0,0,1,2.42-2.85h0c-.12-.85-.18-1.66-.25-2.55s-.13-1.69-.25-2.73c-.51-.83-2.78-5,.3-8.67,3.45-4.13,10-7,13.68-7,2.55,0,6.46,1.5,7.5,4A5.67,5.67,0,0,1,69.42,23c1.11,1.63,2.07,4.7.34,10.05-.28,1.71-.48,3.42-.59,4.45h.12A2.63,2.63,0,0,1,71.7,40.3c0,2-1.41,3.36-3.71,3.69C66.23,47,62.06,51.82,56.65,51.82ZM44.59,38.76c-.54,0-1.11.54-1.11,1.54,0,1.35,1.08,2.25,2.88,2.43a.66.66,0,0,1,.51.34c1.52,2.78,4.8,7.43,9.78,7.43,6.22,0,10.19-7.13,10.35-7.43a.67.67,0,0,1,.52-.34c1.8-.18,2.87-1.08,2.87-2.43,0-1-.57-1.54-1.1-1.54a1,1,0,0,0-.52.16.66.66,0,0,1-.69,0,.67.67,0,0,1-.31-.62s.25-2.81.7-5.57l0-.09c1.58-4.88.79-7.57-.16-9a4.34,4.34,0,0,0-3.25-1.94.66.66,0,0,1-.59-.49c-.5-1.85-3.93-3.45-6.38-3.45-3,0-9.29,2.49-12.68,6.53-2.78,3.33-.15,7.19-.13,7.23a.66.66,0,0,1,.12.3c.13,1.13.21,2.09.27,2.93a34.08,34.08,0,0,0,.4,3.45.69.69,0,0,1-.28.66.65.65,0,0,1-.72,0A1,1,0,0,0,44.59,38.76Z"/><path class="icon_prevention_01-2" d="M64.91,40.36a.49.49,0,0,1-.45-.3.5.5,0,0,1,.26-.65l3.51-1.5a.5.5,0,1,1,.39.91l-3.51,1.5A.48.48,0,0,1,64.91,40.36Z"/><path class="icon_prevention_01-2" d="M48.37,40.36a.46.46,0,0,1-.23-.06l-2.91-1.5a.49.49,0,0,1-.22-.66.5.5,0,0,1,.67-.21l2.91,1.5a.49.49,0,0,1-.22.93Z"/><path class="icon_prevention_01-2" d="M49.08,48.53a.52.52,0,0,1-.43-.24l-2.78-4.65a.5.5,0,1,1,.85-.51l2.78,4.65a.5.5,0,0,1-.17.68A.59.59,0,0,1,49.08,48.53Z"/><path class="icon_prevention_01-2" d="M64.2,49a.47.47,0,0,1-.27-.08.5.5,0,0,1-.14-.68l3.38-5.15a.5.5,0,0,1,.68-.14.49.49,0,0,1,.14.68L64.62,48.8A.52.52,0,0,1,64.2,49Z"/><path class="icon_prevention_01-3" d="M56.64,41.09a56,56,0,0,1-8.27-1.22l.71,8.66s4.08,3.27,7.56,3.27,7.56-3.27,7.56-3.27l.71-8.66A56,56,0,0,1,56.64,41.09Z"/><path class="icon_prevention_01-2" d="M56.64,52.29c-3.61,0-7.7-3.24-7.87-3.38a.45.45,0,0,1-.18-.34l-.71-8.66A.48.48,0,0,1,48,39.5a.46.46,0,0,1,.43-.11,56.93,56.93,0,0,0,8.17,1.2,56.93,56.93,0,0,0,8.17-1.2.46.46,0,0,1,.43.11.48.48,0,0,1,.16.41l-.7,8.66a.49.49,0,0,1-.19.34C64.34,49.05,60.25,52.29,56.64,52.29Zm-7.09-4c.78.59,4.21,3,7.09,3s6.31-2.44,7.09-3l.64-7.79a49,49,0,0,1-7.73,1.1,49,49,0,0,1-7.73-1.1Z"/><path class="icon_prevention_01-2" d="M56.64,50.65a.49.49,0,0,1-.49-.49V42.91a.49.49,0,0,1,1,0v7.25A.49.49,0,0,1,56.64,50.65Z"/><path class="icon_prevention_01-2" d="M46.29,30.84a.49.49,0,0,1-.39-.19A.5.5,0,0,1,46,30c3.52-2.71,7.2-3.58,10.44-4.36,2.78-.66,5.19-1.23,6.78-2.83a.5.5,0,0,1,.7,0,.49.49,0,0,1,0,.69c-1.79,1.8-4.32,2.4-7.25,3.1-3.15.75-6.71,1.6-10.07,4.18A.47.47,0,0,1,46.29,30.84Z"/><path class="icon_prevention_01-2" d="M67.58,32.7a.48.48,0,0,1-.34-.13c-1.9-1.83-3-5.13-3.52-7.56a.49.49,0,0,1,.38-.59.48.48,0,0,1,.58.37c.43,1.89,1.42,5.32,3.24,7.07a.48.48,0,0,1,0,.69A.47.47,0,0,1,67.58,32.7Z"/><path class="icon_prevention_01-2" d="M46.16,28.69a.47.47,0,0,1-.39-.2.49.49,0,0,1,.1-.69,43.4,43.4,0,0,1,5.53-3.34.49.49,0,1,1,.45.87,44.67,44.67,0,0,0-5.39,3.26A.49.49,0,0,1,46.16,28.69Z"/></svg>