<svg id="レイヤー_1" data-name="レイヤー 1" xmlns="http://www.w3.org/2000/svg" viewBox="0 0 79 79"><defs><style>.icon_precention_03-1{fill:#fff;}.icon_precention_03-2{fill:#626a94;}.icon_precention_03-3{fill:#d2ecfa;}.icon_precention_03-4{fill:#bec1d3;}</style></defs><rect class="icon_precention_03-1" width="79" height="79" rx="5.67"/><path class="icon_precention_03-1" d="M29.53,47.46c-.06-.05-.4-.06-1,.42l-.6.57c-1.86,1.71-4.4,3.63-4.53,3.72a.6.6,0,0,1-.38.13.64.64,0,0,1-.51-.26.64.64,0,0,1,.13-.89s2.59-1.94,4.42-3.62c.32-.3.62-.59.88-.86,1.51-1.57,1.62-2.57,1.44-2.91-.05-.1-.09-.11-.12-.11-.19,0-.69.12-1.43.88h0l-.64.62c-1.29,1.23-3,2.76-5.33,4.73a.61.61,0,0,1-.42.16.67.67,0,0,1-.48-.22.64.64,0,0,1,.07-.9c2.36-2,4.07-3.54,5.28-4.69,2.62-2.49,2.93-3.29,2.48-4h0a4.85,4.85,0,0,0-2.2,1.36l-.08.07-.25.24-.26.25,0,0s0,0,0,.05l-.11.09c-2,1.81-6,5-6.22,5.15a.63.63,0,0,1-.89-.11.64.64,0,0,1,.1-.89c.05,0,4.41-3.46,6.28-5.2l0-.05c.19-.19.39-.39.6-.57,1-1,1.07-1.18.84-1.47s-1.33.39-2.1.92l-.34.24c-2.17,1.5-4.09,2.85-5.69,4h0a.27.27,0,0,1-.12.09l-.57.42a51.36,51.36,0,0,0-4.24,3.33.66.66,0,0,1-.44.17.65.65,0,0,1-.46-.2.63.63,0,0,1,0-.89A54.54,54.54,0,0,1,17,43.92l.64-.47c.83-.77,1.13-1.51.82-2l0-.06-.07-.11c-.1,0-.48.08-1.44.84a32.26,32.26,0,0,1-3.68,2.5,9.3,9.3,0,0,0-1.92,1.34,12,12,0,0,0-2.45,4.28l-.21.67a29.62,29.62,0,0,1-2,5.11,10.06,10.06,0,0,1-2.22,2l.24.35L7.91,63l.24.35c1-.85,2.2-1.82,2.8-2.28a18.32,18.32,0,0,1,3.27-1.63,51.33,51.33,0,0,0,5-2.41C26.07,53,29,49,29.27,48.51S29.6,47.53,29.53,47.46Z"/><path class="icon_precention_03-2" d="M30.66,46.2l-.11-.09A3.17,3.17,0,0,0,30.94,43a2,2,0,0,0-.63-.73,2.61,2.61,0,0,0-.15-3A1.64,1.64,0,0,0,29,38.6a2.35,2.35,0,0,0-.82.09,3,3,0,0,0-.31-.49c-1.26-1.58-3.15-.27-4.39.59l-.33.23-3,2.11a2.46,2.46,0,0,0-.25-.59l0,0a1.79,1.79,0,0,0-1.2-.92c-.76-.14-1.6.21-2.83,1.18a27.79,27.79,0,0,1-3.49,2.37,10.93,10.93,0,0,0-2.25,1.61,13.62,13.62,0,0,0-2.86,4.94L7,50.36a32.21,32.21,0,0,1-1.76,4.73A9.27,9.27,0,0,1,3.5,56.61l.24.35.36.52.36.52a10.06,10.06,0,0,0,2.22-2,29.62,29.62,0,0,0,2-5.11l.21-.67a12,12,0,0,1,2.45-4.28,9.3,9.3,0,0,1,1.92-1.34,32.26,32.26,0,0,0,3.68-2.5c1-.76,1.34-.84,1.44-.84l.07.11,0,.06c.31.52,0,1.26-.82,2l-.64.47a54.54,54.54,0,0,0-4.37,3.44.63.63,0,0,0,0,.89.65.65,0,0,0,.46.2.66.66,0,0,0,.44-.17A51.36,51.36,0,0,1,17.72,45l.57-.42a.27.27,0,0,0,.12-.09h0c1.6-1.16,3.52-2.51,5.69-4l.34-.24c.77-.53,1.82-1.26,2.1-.92s.18.47-.84,1.47c-.21.18-.41.38-.6.57l0,.05c-1.87,1.74-6.23,5.16-6.28,5.2a.64.64,0,0,0-.1.89.63.63,0,0,0,.89.11c.19-.15,4.25-3.34,6.22-5.15l.11-.09s0,0,0-.05l0,0,.26-.25.25-.24.08-.07a4.85,4.85,0,0,1,2.2-1.36h0c.45.66.14,1.46-2.48,4-1.21,1.15-2.92,2.66-5.28,4.69a.64.64,0,0,0-.07.9.67.67,0,0,0,.48.22.61.61,0,0,0,.42-.16c2.29-2,4-3.5,5.33-4.73l.64-.62h0c.74-.76,1.24-.91,1.43-.88,0,0,.07,0,.12.11.18.34.07,1.34-1.44,2.91-.26.27-.56.56-.88.86-1.83,1.68-4.39,3.6-4.42,3.62a.64.64,0,0,0-.13.89.64.64,0,0,0,.51.26.6.6,0,0,0,.38-.13c.13-.09,2.67-2,4.53-3.72l.6-.57c.56-.48.9-.47,1-.42s.15.45-.26,1S26.07,53,19.19,57a51.33,51.33,0,0,1-5,2.41A18.32,18.32,0,0,0,11,61.07c-.6.46-1.78,1.43-2.8,2.28l.36.53.37.52.24.35c1-.86,2.26-1.88,2.86-2.34A20,20,0,0,1,14.9,61,52.2,52.2,0,0,0,20,58.49c5.47-3.21,9.14-6.86,10.62-9A2.46,2.46,0,0,0,30.66,46.2Z"/><path class="icon_precention_03-1" d="M34.88,53.82c-.06-.06-.4-.06-1,.41-.18.19-.38.38-.59.57-1.87,1.72-4.41,3.63-4.54,3.73a.64.64,0,0,1-.38.12.6.6,0,0,1-.5-.25.63.63,0,0,1,.12-.89s2.6-1.95,4.42-3.63c.32-.3.63-.59.88-.86,1.51-1.57,1.62-2.57,1.45-2.91a.17.17,0,0,0-.13-.11c-.18,0-.69.13-1.43.89h0l-.64.62c-1.3,1.24-3,2.77-5.34,4.74a.65.65,0,0,1-.41.15.61.61,0,0,1-.48-.22.63.63,0,0,1,.06-.89c2.36-2,4.07-3.55,5.28-4.7,2.63-2.49,2.93-3.28,2.48-4h0A5,5,0,0,0,32,48l-.07.07-.25.25-.27.25,0,0-.05.05-.1.08c-2,1.81-6,5-6.23,5.16a.65.65,0,0,1-.89-.11.63.63,0,0,1,.11-.89s4.4-3.46,6.27-5.21l.05,0a8,8,0,0,1,.59-.57c1-1,1.07-1.18.84-1.47s-1.33.38-2.1.92l-.34.23c-2.17,1.51-4.09,2.86-5.69,4h0l-.12.08-.58.42a53.69,53.69,0,0,0-4.24,3.33.61.61,0,0,1-.43.18.64.64,0,0,1-.44-1.1,51.4,51.4,0,0,1,4.37-3.43l.64-.47c.83-.77,1.13-1.52.81-2l0-.06-.07-.11c-.09,0-.48.08-1.44.85a30.67,30.67,0,0,1-3.68,2.49,10,10,0,0,0-1.92,1.35,11.9,11.9,0,0,0-2.44,4.27l-.22.68A30.89,30.89,0,0,1,12,62.35a13,13,0,0,1-2.87,2.47l.24.35,3.24,4.7.24.35c1.12-.93,2.68-2.24,3.41-2.8a19.43,19.43,0,0,1,3.27-1.63,46.13,46.13,0,0,0,5-2.41c6.88-4,9.77-8.07,10.08-8.51C35,54.27,35,53.88,34.88,53.82Z"/><path class="icon_precention_03-2" d="M36,52.56l-.11-.1a3.15,3.15,0,0,0,.39-3.11,2,2,0,0,0-.63-.73,2.59,2.59,0,0,0-.15-3A1.58,1.58,0,0,0,34.37,45a2.37,2.37,0,0,0-.83.08,2.16,2.16,0,0,0-.31-.48c-1.26-1.58-3.14-.28-4.39.59l-.33.23c-1.07.74-2.08,1.44-3,2.11a2.24,2.24,0,0,0-.26-.59l0,0A1.76,1.76,0,0,0,24,45.94c-.76-.14-1.61.21-2.83,1.18a29.72,29.72,0,0,1-3.5,2.37,11.08,11.08,0,0,0-2.25,1.6A13.54,13.54,0,0,0,12.59,56l-.22.68a32.66,32.66,0,0,1-1.77,4.72,12.07,12.07,0,0,1-2.39,2l.24.35.35.52.37.52A13,13,0,0,0,12,62.35,30.89,30.89,0,0,0,14,57.24l.22-.68a11.9,11.9,0,0,1,2.44-4.27,10,10,0,0,1,1.92-1.35,30.67,30.67,0,0,0,3.68-2.49c1-.77,1.35-.84,1.44-.85l.07.11,0,.06c.32.52,0,1.27-.81,2l-.64.47A51.4,51.4,0,0,0,18,53.71a.64.64,0,0,0,.44,1.1.61.61,0,0,0,.43-.18,53.69,53.69,0,0,1,4.24-3.33l.58-.42.12-.08h0c1.6-1.16,3.52-2.51,5.69-4l.34-.23c.77-.54,1.82-1.27,2.1-.92s.18.47-.84,1.47a8,8,0,0,0-.59.57l-.05,0c-1.87,1.75-6.23,5.17-6.27,5.21a.63.63,0,0,0-.11.89.65.65,0,0,0,.89.11c.19-.15,4.26-3.35,6.23-5.16l.1-.08.05-.05,0,0,.27-.25.25-.25L32,48a5,5,0,0,1,2.2-1.36h0c.45.67.15,1.46-2.48,4-1.21,1.15-2.92,2.67-5.28,4.7a.63.63,0,0,0-.06.89.61.61,0,0,0,.48.22.65.65,0,0,0,.41-.15c2.29-2,4-3.5,5.34-4.74l.64-.62h0c.74-.76,1.25-.92,1.43-.89a.17.17,0,0,1,.13.11c.17.34.06,1.34-1.45,2.91-.25.27-.56.56-.88.86-1.82,1.68-4.39,3.61-4.42,3.63a.63.63,0,0,0-.12.89.6.6,0,0,0,.5.25.64.64,0,0,0,.38-.12c.13-.1,2.67-2,4.54-3.73.21-.19.41-.38.59-.57.56-.47.9-.47,1-.41s.15.45-.26,1c-.31.44-3.2,4.47-10.08,8.51a46.13,46.13,0,0,1-5,2.41,19.43,19.43,0,0,0-3.27,1.63c-.73.56-2.29,1.87-3.41,2.8l.36.53.37.52.24.35c1.11-.93,2.75-2.3,3.47-2.85a19.77,19.77,0,0,1,2.92-1.43,47.26,47.26,0,0,0,5.15-2.5,35.62,35.62,0,0,0,10.62-9C36.84,54.64,36.84,53.29,36,52.56Z"/><path class="icon_precention_03-1" d="M50,58a5.25,5.25,0,0,1-5.26-5.47l.83-21.58a5.69,5.69,0,0,1,5.63-5.42h4.18v-6H52.49a1.84,1.84,0,0,1-1.83-1.67H35.83l-.43,5a.65.65,0,0,1-.24.45.62.62,0,0,1-.4.13h-.09l-3.36-.48a.68.68,0,0,1-.42-.25.64.64,0,0,1-.12-.48l1.2-8a.64.64,0,0,1,.63-.54H50.66V13.1a1.84,1.84,0,0,1,1.83-1.84H63.07a1.85,1.85,0,0,1,1.84,1.84v4.53a1.85,1.85,0,0,1-1.84,1.84H60.22v6H64.4A5.69,5.69,0,0,1,70,30.93l.83,21.58A5.25,5.25,0,0,1,65.6,58Z"/><path class="icon_precention_03-2" d="M63.07,11.9a1.2,1.2,0,0,1,1.2,1.2v4.53a1.2,1.2,0,0,1-1.2,1.2H59.59v7.32H64.4a5.05,5.05,0,0,1,5,4.81l.84,21.57a4.61,4.61,0,0,1-4.63,4.81H50a4.59,4.59,0,0,1-4.62-4.81L46.17,31a5.05,5.05,0,0,1,5-4.81H56V18.83H52.49a1.2,1.2,0,0,1-1.2-1.2v-.46h-16l-.49,5.62-3.36-.48,1.2-8H51.29V13.1a1.2,1.2,0,0,1,1.2-1.2H63.07m0-1.27H52.49A2.48,2.48,0,0,0,50,13H32.6a1.28,1.28,0,0,0-1.26,1.08l-1.2,8a1.25,1.25,0,0,0,.24.95,1.27,1.27,0,0,0,.84.5l3.37.48h.17a1.25,1.25,0,0,0,.79-.28A1.22,1.22,0,0,0,36,22.9l.38-4.46H50.16a2.46,2.46,0,0,0,2.33,1.66h2.22v4.78H51.16a6.33,6.33,0,0,0-6.26,6l-.83,21.57A5.86,5.86,0,0,0,50,58.61H65.6a5.88,5.88,0,0,0,5.9-6.13l-.84-21.57a6.33,6.33,0,0,0-6.26-6H60.86V20.1h2.21a2.48,2.48,0,0,0,2.47-2.47V13.1a2.48,2.48,0,0,0-2.47-2.47Z"/><rect class="icon_precention_03-1" x="51.29" y="11.9" width="12.98" height="6.93" rx="1"/><path class="icon_precention_03-2" d="M63.27,19.47h-11a1.64,1.64,0,0,1-1.63-1.64V12.9a1.64,1.64,0,0,1,1.63-1.64h11a1.65,1.65,0,0,1,1.64,1.64v4.93A1.65,1.65,0,0,1,63.27,19.47Zm-11-6.94a.37.37,0,0,0-.36.37v4.93a.37.37,0,0,0,.36.37h11a.38.38,0,0,0,.37-.37V12.9a.38.38,0,0,0-.37-.37Z"/><path class="icon_precention_03-1" d="M70.26,53.34a3.84,3.84,0,0,1-3.86,4H49.16a3.84,3.84,0,0,1-3.86-4l.9-23.19a4.21,4.21,0,0,1,4.16-4H65.2a4.21,4.21,0,0,1,4.16,4Z"/><path class="icon_precention_03-2" d="M66.4,58H49.16a4.48,4.48,0,0,1-4.49-4.67l.89-23.18a4.85,4.85,0,0,1,4.8-4.62H65.2A4.85,4.85,0,0,1,70,30.13l.89,23.18A4.46,4.46,0,0,1,66.4,58Zm-16-31.2a3.57,3.57,0,0,0-3.53,3.4l-.89,23.18a3.21,3.21,0,0,0,3.22,3.35H66.4a3.21,3.21,0,0,0,3.22-3.35l-.89-23.18a3.57,3.57,0,0,0-3.53-3.4Z"/><rect class="icon_precention_03-1" x="55.98" y="18.83" width="3.61" height="7.32"/><path class="icon_precention_03-2" d="M59.59,26.78H56a.64.64,0,0,1-.64-.63V18.83A.64.64,0,0,1,56,18.2h3.61a.63.63,0,0,1,.63.63v7.32A.63.63,0,0,1,59.59,26.78Zm-3-1.27H59v-6H56.61Z"/><polygon class="icon_precention_03-1" points="51.29 14.28 32.6 14.28 31.39 22.31 34.76 22.79 35.32 17.17 51.29 17.17 51.29 14.28"/><path class="icon_precention_03-2" d="M34.76,23.42h-.09l-3.36-.48a.68.68,0,0,1-.42-.25.64.64,0,0,1-.12-.48l1.2-8a.64.64,0,0,1,.63-.54H51.29a.64.64,0,0,1,.64.63v2.89a.64.64,0,0,1-.64.63H35.9l-.5,5.05a.69.69,0,0,1-.24.44A.64.64,0,0,1,34.76,23.42Zm-2.64-1.65,2.08.3.49-5a.63.63,0,0,1,.63-.58H50.66V14.92H33.14Z"/><rect class="icon_precention_03-3" x="45.87" y="38.5" width="23.81" height="9.37"/><path class="icon_precention_03-2" d="M69.69,48.51H45.87a.64.64,0,0,1-.63-.64V38.5a.64.64,0,0,1,.63-.64H69.69a.64.64,0,0,1,.63.64v9.37A.64.64,0,0,1,69.69,48.51ZM46.51,47.24H69.05V39.13H46.51Z"/><path class="icon_precention_03-2" d="M69.69,39.13H45.87a.63.63,0,0,1-.63-.63.64.64,0,0,1,.63-.64H69.69a.64.64,0,0,1,.63.64A.63.63,0,0,1,69.69,39.13Z"/><path class="icon_precention_03-2" d="M70,48.33H45.52a.64.64,0,0,1-.63-.64.63.63,0,0,1,.63-.63H70a.63.63,0,0,1,.63.63A.64.64,0,0,1,70,48.33Z"/><path class="icon_precention_03-4" d="M31.32,28.33l-.17,0a.64.64,0,0,1-.44-.79l.11-.4a.63.63,0,1,1,1.22.34l-.11.4A.64.64,0,0,1,31.32,28.33Z"/><path class="icon_precention_03-4" d="M29.85,33.6a.52.52,0,0,1-.17,0,.64.64,0,0,1-.44-.78l.18-.66a.64.64,0,0,1,1.23.34l-.18.66A.64.64,0,0,1,29.85,33.6ZM30.59,31a.47.47,0,0,1-.17,0,.64.64,0,0,1-.45-.78l.19-.66a.63.63,0,1,1,1.22.34l-.18.66A.65.65,0,0,1,30.59,31Z"/><path class="icon_precention_03-4" d="M29.19,36,29,36a.64.64,0,0,1-.44-.78l.11-.41a.64.64,0,0,1,1.23.34l-.12.41A.63.63,0,0,1,29.19,36Z"/><path class="icon_precention_03-4" d="M28.15,26.77a.61.61,0,0,1-.39-.13.64.64,0,0,1-.12-.89l.26-.33a.64.64,0,1,1,1,.77l-.26.34A.65.65,0,0,1,28.15,26.77Z"/><path class="icon_precention_03-4" d="M24.82,31.05a.63.63,0,0,1-.5-1l.42-.54a.63.63,0,0,1,1,.78l-.42.54A.62.62,0,0,1,24.82,31.05Zm1.66-2.14a.65.65,0,0,1-.39-.13.64.64,0,0,1-.11-.89l.42-.54a.64.64,0,0,1,.89-.11.63.63,0,0,1,.11.89l-.41.54A.65.65,0,0,1,26.48,28.91Z"/><path class="icon_precention_03-4" d="M23.32,33a.61.61,0,0,1-.39-.13.64.64,0,0,1-.12-.89l.26-.34a.64.64,0,0,1,1,.78l-.26.34A.65.65,0,0,1,23.32,33Z"/><path class="icon_precention_03-4" d="M25.8,24.15A.63.63,0,0,1,25.47,23l.36-.22a.63.63,0,1,1,.66,1.08l-.36.22A.6.6,0,0,1,25.8,24.15Z"/><path class="icon_precention_03-4" d="M21.13,27a.62.62,0,0,1-.54-.3.63.63,0,0,1,.21-.87l.59-.36a.64.64,0,0,1,.66,1.09l-.59.35A.55.55,0,0,1,21.13,27Zm2.34-1.41a.63.63,0,0,1-.33-1.18l.58-.36a.64.64,0,0,1,.66,1.09l-.58.35A.6.6,0,0,1,23.47,25.57Z"/><path class="icon_precention_03-4" d="M19,28.27a.64.64,0,0,1-.33-1.18l.37-.22a.63.63,0,0,1,.87.21.66.66,0,0,1-.21.88l-.37.22A.63.63,0,0,1,19,28.27Z"/><path class="icon_precention_03-4" d="M34.78,28.56a.64.64,0,0,1-.63-.56l0-.42a.64.64,0,0,1,.56-.71.63.63,0,0,1,.7.55l0,.43a.63.63,0,0,1-.55.7Z"/><path class="icon_precention_03-4" d="M35.43,34a.64.64,0,0,1-.63-.56l-.08-.69A.63.63,0,0,1,36,32.63l.08.69a.62.62,0,0,1-.55.7Zm-.32-2.74a.64.64,0,0,1-.63-.56l-.08-.68a.63.63,0,0,1,.55-.71.65.65,0,0,1,.71.56l.08.68a.64.64,0,0,1-.56.71Z"/><path class="icon_precention_03-4" d="M35.73,36.5a.64.64,0,0,1-.63-.56l-.05-.42a.62.62,0,0,1,.55-.7.63.63,0,0,1,.71.55l0,.42a.64.64,0,0,1-.56.71Z"/><path class="icon_precention_03-4" d="M38.14,27.45a.63.63,0,0,1-.56-.33l-.2-.37a.63.63,0,0,1,.25-.86.64.64,0,0,1,.86.25l.2.37a.64.64,0,0,1-.25.87A.66.66,0,0,1,38.14,27.45Z"/><path class="icon_precention_03-4" d="M40.75,32.24a.65.65,0,0,1-.56-.33l-.32-.6A.63.63,0,0,1,41,30.7l.33.6a.63.63,0,0,1-.26.86A.64.64,0,0,1,40.75,32.24Zm-1.31-2.39a.61.61,0,0,1-.55-.34l-.33-.59a.63.63,0,1,1,1.11-.61l.33.6a.63.63,0,0,1-.25.86A.68.68,0,0,1,39.44,29.85Z"/><path class="icon_precention_03-4" d="M41.93,34.4a.62.62,0,0,1-.55-.33l-.21-.37a.64.64,0,0,1,1.12-.61l.2.37a.63.63,0,0,1-.25.86A.58.58,0,0,1,41.93,34.4Z"/></svg>