<svg id="レイヤー_1" data-name="レイヤー 1" xmlns="http://www.w3.org/2000/svg" viewBox="0 0 68.6 68.6"><defs><style>.icon_24h365d-1{fill:#fff;stroke:#1f2a66;stroke-miterlimit:10;stroke-width:7px;}.icon_24h365d-2{fill:#9197b4;}</style></defs><circle class="icon_24h365d-1" cx="34.3" cy="34.3" r="30.8"/><path class="icon_24h365d-2" d="M58.85,31.33a1.15,1.15,0,0,0-.83-.24,1.1,1.1,0,0,0-.76.42l-2.17,2.73a21.11,21.11,0,0,0-7.88-15.38,21,21,0,0,0-29.4,3.35,1.13,1.13,0,0,0-.24.83,1.19,1.19,0,0,0,.42.76,1.13,1.13,0,0,0,.83.24,1.19,1.19,0,0,0,.76-.42A18.66,18.66,0,0,1,52.85,35.36l-3.69-2.93a1.12,1.12,0,0,0-.83-.24,1.13,1.13,0,0,0-.58,2l5.4,4.29a1.13,1.13,0,0,0,.7.25H54a1.14,1.14,0,0,0,.76-.42L59,32.92A1.14,1.14,0,0,0,58.85,31.33Z"/><path class="icon_24h365d-2" d="M49.58,44.45a1.13,1.13,0,0,0-.76.41A18.66,18.66,0,0,1,15.55,33.12l3.69,2.93a1.13,1.13,0,0,0,.83.24,1.1,1.1,0,0,0,.76-.42,1.13,1.13,0,0,0-.18-1.59L15.25,30a1.12,1.12,0,0,0-.83-.24,1.14,1.14,0,0,0-.75.42l-4.29,5.4a1.12,1.12,0,0,0,.18,1.58,1.08,1.08,0,0,0,.83.24,1.06,1.06,0,0,0,.75-.42l2.18-2.73a21.06,21.06,0,0,0,7.87,15.38,20.74,20.74,0,0,0,13,4.54A21.62,21.62,0,0,0,36.58,54a20.8,20.8,0,0,0,14-7.76,1.13,1.13,0,0,0-.18-1.59A1.11,1.11,0,0,0,49.58,44.45Z"/><path class="icon_24h365d-2" d="M28.32,29.16a13.39,13.39,0,0,0-1.88,1.4,5.33,5.33,0,0,0-1.53,2.28,5.1,5.1,0,0,0-.27,1.36,11,11,0,0,1,1.53-.05h3.69c.73,0,1.19,0,1.77.08V32.47a10.49,10.49,0,0,1-1.68.09H27.16a2.6,2.6,0,0,1,.52-.82,10,10,0,0,1,1.21-1,13.46,13.46,0,0,0,1.65-1.21,2.61,2.61,0,0,0,1-2C31.51,26,30.22,25,28.2,25a3.42,3.42,0,0,0-2.71,1.05,3.51,3.51,0,0,0-.78,1.86l1.95.22a2,2,0,0,1,.29-1,1.47,1.47,0,0,1,1.28-.6c.79,0,1.34.42,1.34,1S29.33,28.48,28.32,29.16Z"/><path class="icon_24h365d-2" d="M38.55,25.21H36.69a10.84,10.84,0,0,1-1,1.26l-2.5,3-1,1.11v1.64a12.39,12.39,0,0,1,1.39,0h3.07v.66a7,7,0,0,1-.09,1.32h1.92a6.76,6.76,0,0,1-.09-1.3v-.67h.31a10,10,0,0,1,1.14.07V30.56a7.37,7.37,0,0,1-1.14.08h-.31V27.06A16.92,16.92,0,0,1,38.55,25.21Zm-1.8,3.42v2H34.22l1.92-2.35c.28-.35.5-.63.67-.87C36.77,28,36.75,28.3,36.75,28.63Z"/><path class="icon_24h365d-2" d="M41.18,34.75h1.18a4.59,4.59,0,0,1,0-.81V32.88h1.85v1.06a5.76,5.76,0,0,1,0,.81H45.3a6.34,6.34,0,0,1,0-.81V31a5.83,5.83,0,0,1,0-.82H44.12a5.83,5.83,0,0,1,0,.82v.91H42.31V31a5,5,0,0,1,0-.82H41.18a6,6,0,0,1,0,.82v2.94A5.59,5.59,0,0,1,41.18,34.75Z"/><path class="icon_24h365d-2" d="M26.59,41.87a1.19,1.19,0,0,1-.85-.3.84.84,0,0,1-.27-.52l-1.27.23a2.21,2.21,0,0,0,.42.87,2.46,2.46,0,0,0,1.95.72,2.66,2.66,0,0,0,1.9-.61,1.52,1.52,0,0,0,.44-1.06,1.4,1.4,0,0,0-.34-1,1.62,1.62,0,0,0-1-.5,1.47,1.47,0,0,0,.87-.47,1.46,1.46,0,0,0-.08-1.92,2.4,2.4,0,0,0-1.71-.58,2.4,2.4,0,0,0-1.77.62,1.9,1.9,0,0,0-.5.9l1.28.21a.87.87,0,0,1,.93-.72c.6,0,.9.23.9.7a.69.69,0,0,1-.33.62,1.47,1.47,0,0,1-.79.17,5.06,5.06,0,0,1-.68-.05v1.06a7.51,7.51,0,0,1,.87,0c.72,0,1.09.28,1.09.82S27.22,41.87,26.59,41.87Z"/><path class="icon_24h365d-2" d="M30.12,37.84a4.31,4.31,0,0,0-.48,2.07,3.5,3.5,0,0,0,.66,2.24,2.2,2.2,0,0,0,1.74.72,2.33,2.33,0,0,0,1.68-.62,2,2,0,0,0,.56-1.4,1.85,1.85,0,0,0-2-2,2,2,0,0,0-1,.21,1.39,1.39,0,0,0-.48.38,2.65,2.65,0,0,1,.24-1,1.13,1.13,0,0,1,1.05-.72.84.84,0,0,1,.91.67l1.17-.27a1.89,1.89,0,0,0-.68-1,2.32,2.32,0,0,0-1.4-.39A2.19,2.19,0,0,0,30.12,37.84Zm1.91,2a1,1,0,0,1,1.08,1,1.13,1.13,0,0,1-.14.58,1.11,1.11,0,0,1-.95.47,1,1,0,0,1-1.11-1A1,1,0,0,1,32,39.83Z"/><path class="icon_24h365d-2" d="M37.54,41.86a1,1,0,0,1-.82-.33,1,1,0,0,1-.21-.41l-1.21.22a2.24,2.24,0,0,0,.51.9,2.33,2.33,0,0,0,1.76.64,2,2,0,0,0,2.27-2.12,1.88,1.88,0,0,0-.52-1.4,2,2,0,0,0-1.47-.56,1.9,1.9,0,0,0-1.21.38c0-.08,0-.24,0-.3l.09-1h1.68a8.66,8.66,0,0,1,1.08.06V36.83a7.68,7.68,0,0,1-1.09.05H36.55c-.4,0-.55,0-.81,0,0,.44,0,.49,0,.77l-.17,1.85c0,.3,0,.41-.1.75l1.12.1a.81.81,0,0,1,.21-.31,1.21,1.21,0,0,1,.81-.28,1,1,0,0,1,1.06,1.05A1,1,0,0,1,37.54,41.86Z"/><path class="icon_24h365d-2" d="M40.94,43.28H42V43h2.12v.24H45.2c0-.24,0-.47,0-.8V38.9c0-.17,0-.4,0-.66a5.41,5.41,0,0,1-.63,0h-3a6,6,0,0,1-.65,0c0,.24,0,.45,0,.66v3.58C41,42.77,41,43,40.94,43.28ZM42,39.23h2.12v.91H42Zm0,1.85h2.12v1H42Z"/></svg>