<svg xmlns="http://www.w3.org/2000/svg" viewBox="0 0 85.66 85.65"><defs><style>.icon_guest-1{fill:#836c39;}</style></defs><path class="icon_guest-1" d="M42.9,85.43.07,42.6,42.9-.22,85.73,42.6ZM5.73,42.6,42.9,79.78,80.07,42.6,42.9,5.43ZM49.17,57.66a4.68,4.68,0,0,1,.16,1.19V59A15.54,15.54,0,0,0,57,51.08l.07-.16H55.72A14.19,14.19,0,0,1,49.17,57.66Zm-19.9-6.74H27.89l.07.16A15.54,15.54,0,0,0,35.66,59v-.12a4.28,4.28,0,0,1,.17-1.19A14.25,14.25,0,0,1,29.27,50.92ZM31.05,36a14.21,14.21,0,0,1,4.61-3.79v-1.4a15.49,15.49,0,0,0-5.56,4.36A3.76,3.76,0,0,1,31.05,36ZM54,36a3.9,3.9,0,0,1,.94-.83,15.49,15.49,0,0,0-5.56-4.36v1.4A14.35,14.35,0,0,1,54,36ZM44.9,55.53H40.09a3.32,3.32,0,0,0-3.32,3.32v4.43H38V58.85a2.06,2.06,0,0,1,2.06-2.06H44.9A2.06,2.06,0,0,1,47,58.85v4.43h1.26V58.85A3.32,3.32,0,0,0,44.9,55.53ZM24.4,49.71h1.25v-4H24.4Zm5.79,0h1.26v-4H30.19Zm.14-6.49a2.06,2.06,0,0,1,2.06,2.06v4.43h1.25V45.28A3.32,3.32,0,0,0,30.33,42H25.51a3.32,3.32,0,0,0-3.31,3.32v4.43h1.26V45.28a2.05,2.05,0,0,1,2.05-2.06Zm-2.41-1.67a2.95,2.95,0,1,0-3-2.95A2.95,2.95,0,0,0,27.92,41.55Zm0-4.64a1.7,1.7,0,1,1-1.69,1.69A1.69,1.69,0,0,1,27.92,36.91Zm25.63,8.83v4H54.8v-4Zm5.79,4H60.6v-4H59.34ZM59.48,42H54.67a3.32,3.32,0,0,0-3.32,3.32v4.43h1.26V45.28a2.06,2.06,0,0,1,2.06-2.06h4.81a2.06,2.06,0,0,1,2.06,2.06v4.43h1.25V45.28A3.32,3.32,0,0,0,59.48,42Zm-2.41-.41a2.95,2.95,0,1,0-3-2.95A2.95,2.95,0,0,0,57.07,41.55Zm0-4.64a1.7,1.7,0,1,1-1.69,1.69A1.69,1.69,0,0,1,57.07,36.91ZM39,34.17h1.26v-4H39Zm7.05-4H44.76v4H46ZM44.9,26.43H40.09a3.32,3.32,0,0,0-3.32,3.31v4.43H38V29.74a2.06,2.06,0,0,1,2.06-2.06H44.9A2.06,2.06,0,0,1,47,29.74v4.43h1.26V29.74A3.32,3.32,0,0,0,44.9,26.43ZM42.5,26a2.95,2.95,0,1,0-3-2.95A3,3,0,0,0,42.5,26Zm0-4.64a1.69,1.69,0,1,1-1.69,1.69A1.69,1.69,0,0,1,42.5,21.38ZM39,63.28h1.26v-4H39Zm5.79,0H46v-4H44.76ZM42.5,49.23a2.95,2.95,0,1,0,2.94,3A2.95,2.95,0,0,0,42.5,49.23Zm0,4.64a1.7,1.7,0,1,1,1.69-1.69A1.69,1.69,0,0,1,42.5,53.87Z"/></svg>