<svg xmlns="http://www.w3.org/2000/svg" viewBox="0 0 85.66 85.65"><defs><style>.icon_24_365-1{fill:#836c39;}</style></defs><path class="icon_24_365-1" d="M42.86,85.53,0,42.7,42.86-.13,85.68,42.7ZM5.68,42.7,42.86,79.87,80,42.7,42.86,5.53Zm61.72-4a1.13,1.13,0,0,0-1.59.18l-2.17,2.73a21.06,21.06,0,0,0-7.87-15.38,21,21,0,0,0-29.4,3.35,1.09,1.09,0,0,0-.24.83,1.1,1.1,0,0,0,.42.76A1.14,1.14,0,0,0,28.13,31,18.67,18.67,0,0,1,61.41,42.76l-3.69-2.93a1.13,1.13,0,1,0-1.41,1.77l5.39,4.29a1.16,1.16,0,0,0,.71.25h.13a1.12,1.12,0,0,0,.75-.42l4.29-5.39a1.12,1.12,0,0,0,.24-.84A1.08,1.08,0,0,0,67.4,38.73Zm-10,13.53A18.66,18.66,0,0,1,24.11,40.52l3.69,2.93a1.13,1.13,0,1,0,1.4-1.77l-5.39-4.29a1.13,1.13,0,0,0-.83-.24,1.19,1.19,0,0,0-.76.42L17.93,43a1.12,1.12,0,0,0-.24.83,1.13,1.13,0,0,0,2,.57l2.17-2.73A21.11,21.11,0,0,0,29.75,57a20.72,20.72,0,0,0,13,4.54,21.8,21.8,0,0,0,2.42-.13,20.82,20.82,0,0,0,14-7.76,1.12,1.12,0,0,0,.24-.83,1.19,1.19,0,0,0-.42-.76A1.15,1.15,0,0,0,57.38,52.26ZM36.87,36.56A14.82,14.82,0,0,0,35,38a5.51,5.51,0,0,0-1.53,2.28,5.13,5.13,0,0,0-.26,1.36,10.93,10.93,0,0,1,1.53-.05h3.68a15.82,15.82,0,0,1,1.78.08V39.87A10.55,10.55,0,0,1,38.5,40H35.72a2.29,2.29,0,0,1,.52-.82,9.29,9.29,0,0,1,1.21-1,15.8,15.8,0,0,0,1.65-1.21,2.63,2.63,0,0,0,1-2c0-1.54-1.28-2.52-3.31-2.52a3.39,3.39,0,0,0-2.7,1,3.51,3.51,0,0,0-.78,1.86l1.94.22a2,2,0,0,1,.3-1,1.45,1.45,0,0,1,1.28-.6c.79,0,1.34.42,1.34,1S37.89,35.88,36.87,36.56Zm10.23-4H45.24a10.55,10.55,0,0,1-1,1.26l-2.5,3-1,1.11v1.64a12.59,12.59,0,0,1,1.4,0h3.07v.66a7,7,0,0,1-.09,1.32h1.91a7.83,7.83,0,0,1-.08-1.3v-.67h.3a10.15,10.15,0,0,1,1.15.07V38a7.5,7.5,0,0,1-1.15.08H47V34.46C47,33.65,47.05,33.25,47.1,32.61ZM45.31,36v2H42.78l1.91-2.35c.29-.35.51-.63.68-.87C45.32,35.44,45.31,35.7,45.31,36Zm4.42,6.12h1.18a6,6,0,0,1,0-.81V40.28h1.85v1.06a5.76,5.76,0,0,1,0,.81h1.18a4.81,4.81,0,0,1,0-.81V38.4a4.45,4.45,0,0,1,0-.82H52.68a5.83,5.83,0,0,1,0,.82v.91H50.87V38.4a6.61,6.61,0,0,1,0-.82H49.73a5.76,5.76,0,0,1,.05.82v2.94A5.31,5.31,0,0,1,49.73,42.15ZM35.14,49.27a1.21,1.21,0,0,1-.85-.3.83.83,0,0,1-.26-.52l-1.27.23a2.08,2.08,0,0,0,.42.87,2.44,2.44,0,0,0,2,.72A2.63,2.63,0,0,0,37,49.66a1.48,1.48,0,0,0,.44-1.06,1.36,1.36,0,0,0-.34-1,1.57,1.57,0,0,0-1-.5,1.47,1.47,0,0,0,.87-.47,1.41,1.41,0,0,0,.32-.94,1.37,1.37,0,0,0-.41-1,2.81,2.81,0,0,0-3.47,0,2,2,0,0,0-.51.9l1.28.21a1.07,1.07,0,0,1,.18-.4,1,1,0,0,1,.76-.32c.6,0,.9.23.9.7a.71.71,0,0,1-.33.62,1.5,1.5,0,0,1-.79.17,5.21,5.21,0,0,1-.69,0v1.06a7.6,7.6,0,0,1,.87,0c.72,0,1.09.28,1.09.82S35.78,49.27,35.14,49.27Zm3.54-4a4.2,4.2,0,0,0-.48,2.07,3.5,3.5,0,0,0,.66,2.24,2.16,2.16,0,0,0,1.73.72,2.35,2.35,0,0,0,1.69-.62,2.07,2.07,0,0,0,.56-1.4,1.86,1.86,0,0,0-2-2,2,2,0,0,0-1,.21,1.33,1.33,0,0,0-.49.38,2.48,2.48,0,0,1,.25-1,1.11,1.11,0,0,1,1.05-.72.84.84,0,0,1,.91.67l1.17-.27a2,2,0,0,0-.68-1,2.32,2.32,0,0,0-1.4-.39A2.17,2.17,0,0,0,38.68,45.24Zm1.91,2a1,1,0,0,1,1.08,1,1,1,0,0,1-.15.58,1.09,1.09,0,0,1-.94.47,1.05,1.05,0,0,1-1.12-1A1,1,0,0,1,40.59,47.23Zm5.5,2a1,1,0,0,1-.82-.33,1.2,1.2,0,0,1-.2-.41l-1.21.22a2.24,2.24,0,0,0,.5.9,2.37,2.37,0,0,0,1.77.64,2,2,0,0,0,2.27-2.12,1.85,1.85,0,0,0-.53-1.4,2,2,0,0,0-1.46-.56,1.9,1.9,0,0,0-1.21.38c0-.08,0-.24,0-.3l.09-1H47a8.77,8.77,0,0,1,1.08.06V44.23a7.84,7.84,0,0,1-1.1.05H45.11c-.4,0-.56,0-.82,0a5.34,5.34,0,0,1,0,.77l-.16,1.85c0,.3-.05.41-.1.75l1.12.1a.92.92,0,0,1,.2-.31,1.21,1.21,0,0,1,.82-.28,1,1,0,0,1,1.06,1A1,1,0,0,1,46.09,49.26Zm3.4,1.42h1.07v-.24h2.11v.24h1.09a6.17,6.17,0,0,1,0-.8V46.3c0-.17,0-.4,0-.66a5.22,5.22,0,0,1-.62,0h-3a6,6,0,0,1-.65,0c0,.24,0,.45,0,.66v3.58A6.58,6.58,0,0,1,49.49,50.68Zm1.07-4h2.11v.91H50.56Zm0,1.85h2.11v1H50.56Z"/></svg>