<svg id="レイヤー_1" data-name="レイヤー 1" xmlns="http://www.w3.org/2000/svg" viewBox="0 0 79 79"><defs><style>.icon_prevention_05-1{fill:#fff;}.icon_prevention_05-2{fill:#d2ecfa;}.icon_prevention_05-3{fill:#626a94;}.icon_prevention_05-4{fill:#bec1d3;}</style></defs><rect class="icon_prevention_05-1" width="79" height="79" rx="5.67"/><rect class="icon_prevention_05-2" x="10.66" y="23.15" width="17.73" height="36.71" rx="3.55"/><path class="icon_prevention_05-3" d="M24.84,60.75H14.21a4.44,4.44,0,0,1-4.43-4.43V26.7a4.44,4.44,0,0,1,4.43-4.43H24.84a4.44,4.44,0,0,1,4.44,4.43V56.32A4.44,4.44,0,0,1,24.84,60.75ZM14.21,24a2.67,2.67,0,0,0-2.66,2.66V56.32A2.66,2.66,0,0,0,14.21,59H24.84a2.67,2.67,0,0,0,2.67-2.66V26.7A2.67,2.67,0,0,0,24.84,24Z"/><path class="icon_prevention_05-3" d="M28.46,30.35a.42.42,0,0,1-.28-.1L19.63,23.5a.44.44,0,0,1,.55-.69l8.55,6.74a.45.45,0,0,1,.07.63A.42.42,0,0,1,28.46,30.35Z"/><path class="icon_prevention_05-3" d="M28.46,33.72a.47.47,0,0,1-.28-.09l-5.32-4.2a.46.46,0,0,1-.07-.63.44.44,0,0,1,.62-.07l5.32,4.2a.43.43,0,0,1,.07.62A.42.42,0,0,1,28.46,33.72Z"/><path class="icon_prevention_05-3" d="M21.78,28.45a.49.49,0,0,1-.28-.09l-1.18-.94a.44.44,0,0,1,.55-.69l1.18.93a.44.44,0,0,1,.08.62A.46.46,0,0,1,21.78,28.45Z"/><circle class="icon_prevention_05-1" cx="19.53" cy="38.12" r="5.47"/><path class="icon_prevention_05-3" d="M19.53,44.48a6.36,6.36,0,1,1,6.36-6.36A6.36,6.36,0,0,1,19.53,44.48Zm0-10.95a4.59,4.59,0,1,0,4.59,4.59A4.6,4.6,0,0,0,19.53,33.53Z"/><rect class="icon_prevention_05-1" x="18.18" y="36.17" width="21.63" height="3.91" rx="0.89"/><path class="icon_prevention_05-3" d="M38.92,41H19.07a1.78,1.78,0,0,1-1.77-1.78V37.06a1.78,1.78,0,0,1,1.77-1.78H38.92a1.78,1.78,0,0,1,1.78,1.78v2.12A1.78,1.78,0,0,1,38.92,41Zm-19.85-3.9v2.12H38.92V37.06Z"/><path class="icon_prevention_05-3" d="M17.32,49.32a2.21,2.21,0,1,1,2.21,2.21A2.2,2.2,0,0,1,17.32,49.32Z"/><path class="icon_prevention_05-3" d="M19.28,49.64h.51a.62.62,0,0,1,.62.62V54a.62.62,0,0,1-.62.62h-.51a.61.61,0,0,1-.61-.61V50.26A.62.62,0,0,1,19.28,49.64Z"/><path class="icon_prevention_05-3" d="M44.78,62.5a1.16,1.16,0,0,1-.77-.3L31.33,50.06a1.09,1.09,0,0,1-.19-1.35l16-27.64a1.15,1.15,0,0,1,.68-.52,1.17,1.17,0,0,1,.84.11l17.07,9.86a1.08,1.08,0,0,1,.52.71,1.11,1.11,0,0,1-.16.87L45.7,62a1.15,1.15,0,0,1-.8.48ZM33.49,49.06,44.6,59.69,63.54,31.84l-15.08-8.7Z"/><path class="icon_prevention_05-3" d="M49.17,60.22a1.19,1.19,0,0,1-.56-.14L31.54,50.22a1.1,1.1,0,0,1-.4-1.51l16-27.64a1.15,1.15,0,0,1,.68-.52,1.17,1.17,0,0,1,.84.11l17.07,9.86a1.11,1.11,0,0,1,.51.67,1.07,1.07,0,0,1-.11.84L50.13,59.67a1.15,1.15,0,0,1-.68.52A1.33,1.33,0,0,1,49.17,60.22ZM33.61,48.85,48.76,57.6,63.61,31.89,48.46,23.14Z"/><polygon class="icon_prevention_05-2" points="44.78 61.4 32.1 49.26 48.05 21.63 65.12 31.48 44.78 61.4"/><path class="icon_prevention_05-3" d="M44.78,62.06a.65.65,0,0,1-.46-.18L31.64,49.74a.67.67,0,0,1-.12-.81l16-27.64a.69.69,0,0,1,.4-.31.7.7,0,0,1,.51.07L65.46,30.9a.68.68,0,0,1,.31.43.64.64,0,0,1-.1.52L45.33,61.77a.68.68,0,0,1-.48.29ZM32.94,49.14,44.67,60.37,64.17,31.7,48.3,22.53Z"/><rect class="icon_prevention_05-2" x="32.66" y="30.52" width="31.91" height="19.71" transform="translate(-10.66 62.28) rotate(-60)"/><path class="icon_prevention_05-3" d="M49.17,59.78a.69.69,0,0,1-.34-.09L31.77,49.84a.67.67,0,0,1-.25-.91l16-27.64a.69.69,0,0,1,.4-.31.7.7,0,0,1,.51.07L65.46,30.9a.71.71,0,0,1,.31.41.67.67,0,0,1-.07.5l-16,27.64a.66.66,0,0,1-.4.31ZM33,49l15.91,9.19L64.21,31.72,48.3,22.53Z"/><path class="icon_prevention_05-1" d="M70.81,59.74c0-.19-.08-.41-.14-.67-.6-3-2.21-11.11-6.21-15.27C59.74,38.88,53.25,38,50.81,37.71l-.19,0c-1.12-.15-1.51.23-1.61.36a.32.32,0,0,0-.07.32.2.2,0,0,0,.14.11c.32.06.66.13,1,.22A27.27,27.27,0,0,1,59,42.23a.67.67,0,0,1,.19.92.66.66,0,0,1-.56.3.61.61,0,0,1-.36-.11A26.24,26.24,0,0,0,49.83,40L49,39.82l-.2,0-.52-.09a.84.84,0,0,0-1,.5c-.1.4.38.6.61.68l.2,0,.63.13a25.75,25.75,0,0,1,9,4,.65.65,0,0,1,.18.92.68.68,0,0,1-.93.18,24.53,24.53,0,0,0-8.51-3.79l-.62-.13-.25-.05a.58.58,0,0,0-.5.1.84.84,0,0,0-.29.61c0,.37,0,.45,1.63,1,.43.14,1,.31,1.54.52l.47.17h0l.38.16a27.81,27.81,0,0,1,5.35,2.8.68.68,0,0,1,.14.94.67.67,0,0,1-.93.13,26.5,26.5,0,0,0-5-2.63l-.39-.17-.4-.14a1.77,1.77,0,0,0-1.44,0,.39.39,0,0,0-.22.34c0,.68,0,.68,2,1.69L52,48.73c2.16,1.13,5.33,5.07,6.27,6.36a6.19,6.19,0,0,0,3.63,2.35,5.8,5.8,0,0,1,1,.38c1.67.87,2,3.13,2,4l.44-.15,5-1.75.42-.15Z"/><path class="icon_prevention_05-3" d="M72.41,58.72c-.63-3.17-2.31-11.61-6.67-16.15C60.59,37.2,53.65,36.29,51,36l-.19,0a3.37,3.37,0,0,0-3.25,1A2.24,2.24,0,0,0,47.17,38a2.49,2.49,0,0,0-1.68,1.76,2.21,2.21,0,0,0,.13,1.38,2.6,2.6,0,0,0-.66,1.7A2.12,2.12,0,0,0,46.3,45a2.24,2.24,0,0,0-.24.92c-.08,1.84.68,2.22,2.95,3.35l2.13,1.09c1.49.77,4.24,3.88,5.66,5.83a7.91,7.91,0,0,0,4.56,3,4.4,4.4,0,0,1,.72.25c.89.46,1.1,2.16,1.1,2.72a1.26,1.26,0,0,0,0,.28l.42-.14.65-.23.65-.23c0-.84-.36-3.1-2-4a5.8,5.8,0,0,0-1-.38,6.19,6.19,0,0,1-3.63-2.35c-.94-1.29-4.11-5.23-6.27-6.36L49.8,47.64c-2-1-2-1-2-1.69a.39.39,0,0,1,.22-.34,1.77,1.77,0,0,1,1.44,0l.4.14.39.17a26.5,26.5,0,0,1,5,2.63.67.67,0,0,0,.93-.13.68.68,0,0,0-.14-.94,27.81,27.81,0,0,0-5.35-2.8l-.38-.16h0l-.47-.17c-.59-.21-1.11-.38-1.54-.52-1.59-.51-1.63-.59-1.63-1a.84.84,0,0,1,.29-.61.58.58,0,0,1,.5-.1l.25.05.62.13a24.53,24.53,0,0,1,8.51,3.79.68.68,0,0,0,.93-.18.65.65,0,0,0-.18-.92,25.75,25.75,0,0,0-9-4L48,40.91l-.2,0c-.23-.08-.71-.28-.61-.68a.84.84,0,0,1,1-.5l.52.09.2,0,.85.18a26.24,26.24,0,0,1,8.39,3.34.61.61,0,0,0,.36.11.66.66,0,0,0,.56-.3.67.67,0,0,0-.19-.92A27.27,27.27,0,0,0,50.1,38.7c-.36-.09-.7-.16-1-.22a.2.2,0,0,1-.14-.11.32.32,0,0,1,.07-.32c.1-.13.49-.51,1.61-.36l.19,0c2.44.32,8.93,1.17,13.65,6.09,4,4.16,5.61,12.23,6.21,15.27.06.26.1.48.14.67h0l.63-.22.64-.22.42-.15C72.47,59,72.45,58.88,72.41,58.72Z"/><path class="icon_prevention_05-4" d="M32.22,23.09a.66.66,0,0,1-.64-.49c-.75-2.72-1.23-3.19-3.94-3.94a.67.67,0,0,1,0-1.29c2.71-.75,3.19-1.23,3.94-3.94a.66.66,0,0,1,.64-.49.68.68,0,0,1,.65.49c.75,2.71,1.22,3.19,3.94,3.94a.67.67,0,0,1,0,1.29c-2.72.75-3.19,1.22-3.94,3.94A.68.68,0,0,1,32.22,23.09ZM29.87,18a4.24,4.24,0,0,1,2.35,2.35A4.27,4.27,0,0,1,34.57,18a4.22,4.22,0,0,1-2.35-2.34A4.19,4.19,0,0,1,29.87,18Z"/><path class="icon_prevention_05-1" d="M29.87,18a4.24,4.24,0,0,1,2.35,2.35A4.27,4.27,0,0,1,34.57,18a4.22,4.22,0,0,1-2.35-2.34A4.19,4.19,0,0,1,29.87,18Z"/><path class="icon_prevention_05-1" d="M37.8,23.09a3.1,3.1,0,0,1,1.3,1.31,3.1,3.1,0,0,1,1.3-1.31,3.13,3.13,0,0,1-1.3-1.3A3.13,3.13,0,0,1,37.8,23.09Z"/><path class="icon_prevention_05-4" d="M39.1,27a.67.67,0,0,1-.64-.48c-.53-1.91-.83-2.22-2.74-2.75a.66.66,0,0,1,0-1.28c1.91-.53,2.21-.83,2.74-2.74a.66.66,0,0,1,.64-.49h0a.66.66,0,0,1,.64.49c.53,1.91.84,2.21,2.74,2.74a.66.66,0,0,1,0,1.28c-1.9.53-2.21.84-2.74,2.75A.67.67,0,0,1,39.1,27Zm-1.3-3.87a3.1,3.1,0,0,1,1.3,1.31,3.1,3.1,0,0,1,1.3-1.31,3.13,3.13,0,0,1-1.3-1.3A3.13,3.13,0,0,1,37.8,23.09Z"/><path class="icon_prevention_05-1" d="M30.58,62.8a4.24,4.24,0,0,1,2.35,2.35,4.27,4.27,0,0,1,2.35-2.35,4.22,4.22,0,0,1-2.35-2.34A4.19,4.19,0,0,1,30.58,62.8Z"/><path class="icon_prevention_05-1" d="M23.7,66.84A3.1,3.1,0,0,1,25,68.15a3.07,3.07,0,0,1,1.31-1.31A3.1,3.1,0,0,1,25,65.54,3.13,3.13,0,0,1,23.7,66.84Z"/><path class="icon_prevention_05-4" d="M32.93,67.88a.66.66,0,0,1-.64-.49c-.75-2.72-1.23-3.19-3.94-3.94a.67.67,0,0,1,0-1.29c2.71-.75,3.19-1.23,3.94-3.94a.66.66,0,0,1,.64-.49.65.65,0,0,1,.64.49c.75,2.71,1.23,3.19,4,3.94a.67.67,0,0,1,0,1.29c-2.72.75-3.2,1.22-4,3.94A.65.65,0,0,1,32.93,67.88ZM30.58,62.8a4.24,4.24,0,0,1,2.35,2.35,4.27,4.27,0,0,1,2.35-2.35,4.22,4.22,0,0,1-2.35-2.34A4.19,4.19,0,0,1,30.58,62.8Z"/><path class="icon_prevention_05-4" d="M25,70.72a.66.66,0,0,1-.64-.49c-.53-1.91-.83-2.22-2.74-2.75a.66.66,0,0,1,0-1.28c1.91-.52,2.21-.83,2.74-2.74a.66.66,0,0,1,1.28,0c.53,1.91.84,2.22,2.75,2.74a.67.67,0,0,1,0,1.28c-1.91.53-2.22.84-2.75,2.75A.66.66,0,0,1,25,70.72Zm-1.3-3.88A3.1,3.1,0,0,1,25,68.15a3.07,3.07,0,0,1,1.31-1.31A3.1,3.1,0,0,1,25,65.54,3.13,3.13,0,0,1,23.7,66.84Z"/></svg>