<svg id="レイヤー_1" data-name="レイヤー 1" xmlns="http://www.w3.org/2000/svg" viewBox="0 0 21.28 21.28"><path d="M10.64,0A10.64,10.64,0,1,0,21.28,10.64,10.64,10.64,0,0,0,10.64,0ZM16,8.62c0,.11,0,.22,0,.33A7.3,7.3,0,0,1,4.76,15.1c.2,0,.41,0,.61,0A5.14,5.14,0,0,0,8.56,14a2.58,2.58,0,0,1-2.4-1.78,2.63,2.63,0,0,0,.49,0,2.46,2.46,0,0,0,.67-.09A2.56,2.56,0,0,1,5.26,9.7v0A2.72,2.72,0,0,0,6.43,10a2.56,2.56,0,0,1-.8-3.43,7.32,7.32,0,0,0,5.29,2.68,2.79,2.79,0,0,1-.07-.58A2.57,2.57,0,0,1,15.29,6.9a5.19,5.19,0,0,0,1.63-.62A2.58,2.58,0,0,1,15.79,7.7a5.16,5.16,0,0,0,1.47-.4A5,5,0,0,1,16,8.62Z"/></svg>