<svg id="レイヤー_1" data-name="レイヤー 1" xmlns="http://www.w3.org/2000/svg" viewBox="0 0 27.99 25.19"><polygon points="27.99 5.89 27.99 3.56 25.3 5.1 25.3 0 20.64 0 20.64 10.43 17.96 8.98 17.96 11.2 20.64 14.29 20.64 22.27 25.2 25.19 25.31 25.19 25.31 18.72 27.99 15.8 27.99 13.47 25.31 15.01 25.31 8.81 27.99 5.89"/><polygon points="17.15 4.67 14.22 6.34 14.22 0 9.91 0 9.91 2.21 7.55 0.94 7.55 2.84 9.91 5.56 9.91 10.72 7.54 9.45 7.54 11.35 9.91 14.08 9.91 15.38 14.23 18.15 14.22 9.84 17.15 6.67 17.15 4.67"/><polygon points="7.12 6.07 4.78 7.41 4.78 0 1.98 0 1.98 4.47 0 3.41 0 5.03 1.98 7.31 1.98 10.75 4.78 12.61 4.78 10.27 7.12 7.74 7.12 6.07"/></svg>