<svg id="レイヤー_1" data-name="レイヤー 1" xmlns="http://www.w3.org/2000/svg" viewBox="0 0 68.6 68.6"><defs><style>.icon_price-1{fill:#fff;stroke:#1f2a66;stroke-miterlimit:10;stroke-width:7px;}.icon_price-2{fill:#9197b4;}</style></defs><circle class="icon_price-1" cx="34.3" cy="34.3" r="30.8"/><path class="icon_price-2" d="M56,37.91a.87.87,0,0,0-.45-.13H42.36l0,.21A8.36,8.36,0,0,1,42,39.11l-.11.33H53l-6.88,5.05H15.6l6.88-5.05H27l-.11-.33A8.36,8.36,0,0,1,26.64,38l0-.21H22.2a.89.89,0,0,0-.49.16l-9.06,6.65a1.46,1.46,0,0,0-.37.39.77.77,0,0,0,.05.76l2.25,3.81a.84.84,0,0,0,.71.41H45.16a.86.86,0,0,0,.53-.16l9.66-7.17a.78.78,0,0,0,.32-.49l.71-3.36A.84.84,0,0,0,56,37.91ZM45.26,46.15l-.7,2.15H15.77l-1.28-2.15Zm9.05-5.58-.2.91-7.32,5.43.36-1.08Z"/><polygon class="icon_price-2" points="34.38 22.65 32.9 24.71 31.43 22.65 30.46 22.65 32.21 25.08 30.83 25.08 30.83 25.75 32.49 25.75 32.49 26.12 30.83 26.12 30.83 26.79 32.49 26.79 32.49 28.84 33.31 28.84 33.31 26.79 34.98 26.79 34.98 26.12 33.31 26.12 33.31 25.75 34.98 25.75 34.98 25.08 33.59 25.08 35.34 22.65 34.38 22.65"/><polygon class="icon_price-2" points="41.63 30.18 41.63 30.85 43.29 30.85 43.29 32.9 44.11 32.9 44.11 30.85 45.78 30.85 45.78 30.18 44.11 30.18 44.11 29.82 45.78 29.82 45.78 29.15 44.4 29.15 46.14 26.72 45.18 26.72 43.7 28.78 42.23 26.72 41.26 26.72 43.01 29.15 41.63 29.15 41.63 29.82 43.29 29.82 43.29 30.18 41.63 30.18"/><path class="icon_price-2" d="M36.69,28.69l0,.21.21.06a8.37,8.37,0,0,1,1.08.43l.31.15,0-.35a5.45,5.45,0,1,1,5.41,6.07,6.2,6.2,0,0,1-1-.1l-.34-.07,0,.35a8.74,8.74,0,0,1,.08,1.14v.23l.22,0a7.4,7.4,0,0,0,1,.08,7.11,7.11,0,1,0-7-8.23Z"/><path class="icon_price-2" d="M28.31,31.16l.18.16.16-.18a7.5,7.5,0,0,1,.83-.77l.24-.19-.24-.2A5.44,5.44,0,1,1,38,23.79l.13.34.27-.24a9.11,9.11,0,0,1,.92-.72l.18-.11-.09-.2a7.1,7.1,0,1,0-11.08,8.3Z"/><path class="icon_price-2" d="M27.37,36.57a7.11,7.11,0,1,0,7.11-7.11A7.12,7.12,0,0,0,27.37,36.57Zm1.66,0A5.45,5.45,0,1,1,34.48,42,5.46,5.46,0,0,1,29,36.57Z"/><polygon class="icon_price-2" points="32.26 36.74 32.26 37.41 33.92 37.41 33.92 37.78 32.26 37.78 32.26 38.45 33.92 38.45 33.92 40.5 34.74 40.5 34.74 38.45 36.41 38.45 36.41 37.78 34.74 37.78 34.74 37.41 36.41 37.41 36.41 36.74 35.03 36.74 36.77 34.31 35.81 34.31 34.33 36.37 32.86 34.31 31.89 34.31 33.64 36.74 32.26 36.74"/></svg>