<svg xmlns="http://www.w3.org/2000/svg" viewBox="0 0 85.66 85.65"><defs><style>.icon_registration-1{fill:#836c39;}</style></defs><path class="icon_registration-1" d="M42.34,85.53-.49,42.7,42.34-.13,85.17,42.7ZM5.17,42.7,42.34,79.87,79.51,42.7,42.34,5.53ZM41.65,32.64l-12.5,2.21.27,1.54,12.51-2.2Zm-.83,6.58-.27-1.54L30,39.54l.28,1.55Zm4,2.54L30.8,44.24l.27,1.54L45.13,43.3Zm-13,8.72,9.23-1.63-.28-1.55-9.22,1.63ZM62.48,37.16h0a.84.84,0,0,0-.44-.41l-9.28-3.37.94.85a1.69,1.69,0,0,1,.47.75l.23.67L60.76,38l-2.84,7.81.81,2.35,3.78-10.36A.78.78,0,0,0,62.48,37.16ZM53.24,59.32v.25l-.07-.25H53l-.67,1.85L39.83,56.62l-.06,0-3.09.55L52.52,62.9a.86.86,0,0,0,.27.05.78.78,0,0,0,.73-.52l1.28-3.49-.7.24A2.82,2.82,0,0,1,53.24,59.32ZM49,52.5,30.89,55.7,26.52,30.9l19.73-3.48.25,1.42.23,0a1.68,1.68,0,0,1,1,.15l.45.23-.5-2.81a.76.76,0,0,0-.32-.51.77.77,0,0,0-.59-.13L25.48,29.49a.78.78,0,0,0-.64.91l4.65,26.34a.77.77,0,0,0,.77.65h.13L49.53,54Zm2.37-14.8a.78.78,0,0,0-.44.4.74.74,0,0,0,0,.6l4.52,13a.78.78,0,1,0,1.48-.51l-4.52-13a.77.77,0,0,0-.4-.45A.74.74,0,0,0,51.38,37.7Zm2-2.44h0a1.1,1.1,0,0,0-.24-.4l-5.63-5a.79.79,0,0,0-1.3.45l-1.31,7.43a1,1,0,0,0,.06.46l6.64,19.1a1.76,1.76,0,0,0,1.66,1.19,1.91,1.91,0,0,0,.58-.1l5.09-1.77a1.75,1.75,0,0,0,1-.9A1.78,1.78,0,0,0,60,54.36Zm-6.7,1.42.43-2.44,2.14-.74,1.85,1.64Zm11,15.73L52.2,54.3l-5.55-16,5.46-1.9Zm.85,2.46a.19.19,0,0,1,0,.15h0a.23.23,0,0,1-.12.1l-5.08,1.77a.19.19,0,0,1-.15,0,.16.16,0,0,1-.1-.11l-.34-1,5.45-1.89Z"/></svg>