<svg id="レイヤー_1" data-name="レイヤー 1" xmlns="http://www.w3.org/2000/svg" viewBox="0 0 114 114"><defs><style>.feature_04-1{fill:#836c39;}</style></defs><path class="feature_04-1" d="M28.86,38.08h3.33a13.64,13.64,0,0,0,1.5-.06v1.45a13.51,13.51,0,0,0-1.47-.06H28.33v.66h4.14A11.82,11.82,0,0,0,34.2,40v1.71a13.64,13.64,0,0,0-1.73-.08H29.85a12.43,12.43,0,0,0,4.65,1.62,7,7,0,0,0-1,1.8,14.68,14.68,0,0,1-2.86-1,8.75,8.75,0,0,1-2.37-1.58c0,.45,0,.74,0,.93v.74a4.1,4.1,0,0,0,.09,1H26.31a5,5,0,0,0,.09-1V43.4c0-.31,0-.6,0-.93a8.32,8.32,0,0,1-2.61,1.71,13.38,13.38,0,0,1-2.58.89,6.63,6.63,0,0,0-1-1.77,11,11,0,0,0,2.45-.59,8.38,8.38,0,0,0,2.1-1.08H22.32a13.44,13.44,0,0,0-1.73.08V40a11.66,11.66,0,0,0,1.73.07H26.4v-.66H23.59c-.6,0-1,0-1.38.05a9.44,9.44,0,0,0,.06-1.29V36.62c0-.43,0-.67.05-1.27a6.32,6.32,0,0,1-1.26,1.2,8.16,8.16,0,0,0-.87-1.8,9,9,0,0,0,2.65-2.81,4.22,4.22,0,0,0,.47-1l2,.29a9.3,9.3,0,0,1-.77,1.18h2.49A6.13,6.13,0,0,0,27.79,31l2,.22a13.17,13.17,0,0,1-.72,1.23h3a10.51,10.51,0,0,0,1.5-.07V34a7.92,7.92,0,0,0-1.2-.06H28.86v.58h2.73A10.38,10.38,0,0,0,33,34.43v1.31a8.74,8.74,0,0,0-1.45-.06H28.86v.6h2.73A9.21,9.21,0,0,0,33,36.22v1.3a11.46,11.46,0,0,0-1.45-.06H28.86ZM27,33.91H24.13v.58H27Zm0,1.77H24.13v.6H27Zm-2.85,1.78v.62H27v-.62Zm17.18-4.6a10.58,10.58,0,0,0-.09-1.67h2.23a10.8,10.8,0,0,0-.09,1.59v.84h4a11.35,11.35,0,0,0,1.47-.06,12.67,12.67,0,0,0-.06,1.38V39.7a10.43,10.43,0,0,0,.08,1.56H46.74v-.84H43.36v2.85a11.71,11.71,0,0,0,.11,1.93H41.2a12.87,12.87,0,0,0,.11-1.93V40.42H38.08v.84H36a11.5,11.5,0,0,0,.08-1.56V34.93A13.53,13.53,0,0,0,36,33.56a12.06,12.06,0,0,0,1.44.06h3.84ZM38.08,35.5v3h3.23v-3Zm8.66,3v-3H43.36v3Zm4.15-5.35h.59c.28,0,.37,0,2.5-.13,1-.08,3.62-.2,7.74-.38a9.17,9.17,0,0,0,1.68-.13l.12,2.29h-.36a6.88,6.88,0,0,0-3.19.91c-1.7,1-2.72,2.36-2.72,3.72a2.34,2.34,0,0,0,2,2.28,9.58,9.58,0,0,0,2.22.35,3.07,3.07,0,0,0,.38,0l-.32,2.43a4.41,4.41,0,0,0-.52-.07,10,10,0,0,1-3.63-.93A4.09,4.09,0,0,1,55,39.68a5.52,5.52,0,0,1,3.16-4.87c-1.5.16-1.56.18-4.9.43-.83.06-1.64.17-2.21.27Zm10.46,5.23a9.57,9.57,0,0,0-1.25-2.08l1.28-.57a8.4,8.4,0,0,1,1.26,2Zm1.75-.82a9.58,9.58,0,0,0-1.21-2l1.24-.54A7.42,7.42,0,0,1,64.38,37Zm3.77-4.17c.46,0,1,.06,1.6.06.87,0,2.27-.06,2.87-.14l-.2-.48a3.31,3.31,0,0,1-.19-.45,4.7,4.7,0,0,0-.32-.69l2.24-.3a7.31,7.31,0,0,0,.54,1.7,25,25,0,0,0,4-.87l.18,1.87c-1.77.38-3.09.65-3.57.71.21.48.22.51.46,1A20.24,20.24,0,0,0,78,35l.18,1.92c-.19,0-.79.15-1.81.38l-1,.21a15.23,15.23,0,0,0,2,2.76l-1.76,1a7.18,7.18,0,0,0-3.3-.64c-1.87,0-2.89.42-2.89,1.17,0,.43.34.72,1,.88a8.52,8.52,0,0,0,1.54.14,12.45,12.45,0,0,0,4.71-1L77,44.06c-.41.08-.44.08-1,.23a17.16,17.16,0,0,1-4.1.49c-2.11,0-3.58-.45-4.29-1.33A2.57,2.57,0,0,1,67,41.84a2.67,2.67,0,0,1,1.73-2.37,7.33,7.33,0,0,1,3.06-.54,11.17,11.17,0,0,1,2.43.24,2.85,2.85,0,0,1-.3-.39,7.87,7.87,0,0,1-.44-.67c-.1-.18-.1-.18-.19-.32a50.87,50.87,0,0,1-5.79.38c-.27,0-.39,0-.66,0l-.08-1.92a8.4,8.4,0,0,0,1.44.08,31.37,31.37,0,0,0,4.29-.27l-.24-.48c-.13-.3-.16-.35-.24-.53a40.69,40.69,0,0,1-4.44.2H67Zm16-1.26a14.23,14.23,0,0,0,2,.1c1.29,0,3.15-.07,4.54-.18a2.44,2.44,0,0,0,1-.19l1.07,1.56a7.62,7.62,0,0,0-1.5,1.21,27.19,27.19,0,0,1-3.26,2.64A8.46,8.46,0,0,1,89.13,37a4.77,4.77,0,0,1,3.13,1,3.06,3.06,0,0,1,1.1,2.49,3.79,3.79,0,0,1-2.06,3.41,7.58,7.58,0,0,1-3.76.9A5.27,5.27,0,0,1,84.49,44a2.27,2.27,0,0,1-.91-1.83,2.49,2.49,0,0,1,2.76-2.27A3.34,3.34,0,0,1,89,41.14a3.87,3.87,0,0,1,.69,1.29c1.06-.44,1.5-1,1.5-2,0-1.1-1.11-1.8-2.84-1.8a9,9,0,0,0-6.12,2.52L81,39.26A33.9,33.9,0,0,0,87.67,34c-1.23.11-1.48.12-3.69.23-.48,0-.61,0-1.06.09Zm3.49,9.45c-.45,0-.75.24-.75.6,0,.52.57.82,1.55.82a2.37,2.37,0,0,0,.63-.07C87.52,42.08,87,41.62,86.32,41.62ZM36.72,55.48a10,10,0,0,0-1.07.17c-.75.12-1.15.18-1.84.25v1.64a10.09,10.09,0,0,1,2.64-.32,5.62,5.62,0,0,1,3.18.81,3.61,3.61,0,0,1,1.51,3,3.47,3.47,0,0,1-3.57,3.59c-1.81,0-2.82-1.2-2.82-3.36a2.21,2.21,0,0,1,0-.32,7.4,7.4,0,0,0,2-.81,4.67,4.67,0,0,0-.08.83c0,1.08.3,1.54,1,1.54A1.35,1.35,0,0,0,39,61c0-1.18-1-1.93-2.55-1.93a8.66,8.66,0,0,0-2.6.4v2.82c0,1.13,0,1.44-.25,1.74a1.63,1.63,0,0,1-1.38.62,5,5,0,0,1-2.67-.86,2.48,2.48,0,0,1-1.26-2.07,3.4,3.4,0,0,1,1.33-2.37,8.88,8.88,0,0,1,2.21-1.29V56l-1.35,0-.95,0h-.63V54a10,10,0,0,0,1.89.13h.73a1.07,1.07,0,0,0,.3,0v-.75a11,11,0,0,0-.09-1.86h2.22a11.1,11.1,0,0,0-.09,1.74V54a15.84,15.84,0,0,0,2.82-.54ZM31.8,60.13c-.92.45-1.53,1.08-1.53,1.58,0,.21.13.4.42.58a1.63,1.63,0,0,0,.82.29c.23,0,.29-.12.29-.62ZM40.15,57a13,13,0,0,0-3-3.38l1.65-1.17a12.94,12.94,0,0,1,3,3.23Zm8.09,1.84c-.92.74-1.35,1.37-1.35,1.95,0,.87,1,1.26,3.37,1.26a16.06,16.06,0,0,0,4.88-.66l.16,2.46c-.36,0-.36,0-1.35.14a23.54,23.54,0,0,1-3.39.24,11.47,11.47,0,0,1-3.94-.5,2.67,2.67,0,0,1-2-2.61c0-1.23.61-2.28,2-3.42Zm-2.66-6.46a22.68,22.68,0,0,0,4.85.37,20.16,20.16,0,0,0,3.93-.27l.07,2A28.25,28.25,0,0,0,50.34,57l-1.53-1.14c.52-.35,1.54-1,2-1.23a14.42,14.42,0,0,1-1.71.09A29.64,29.64,0,0,1,46,54.54a2.31,2.31,0,0,0-.52,0ZM59,57.27a10.39,10.39,0,0,0,2.63.55c.1-.88.1-.88.25-1.83a14.91,14.91,0,0,1-2.11-.36l-.53-.09.17-2a10.13,10.13,0,0,0,2.71.53,16.55,16.55,0,0,0,.26-2.33v-.18l2.37.21a11.6,11.6,0,0,0-.47,2.37,14.73,14.73,0,0,0,3.35-.34l-.08,2.1L66.42,56c-1,.07-1.17.09-2.27.09h-.22c-.11.72-.15,1-.26,1.84.24,0,.42,0,.53,0a11.52,11.52,0,0,0,3-.33l0,2a4.08,4.08,0,0,0-.48,0,18.68,18.68,0,0,1-2.31.15l-.81,0c0,.29,0,.62,0,.9A1.77,1.77,0,0,0,64,62.17a2.61,2.61,0,0,0,1.76.53c1.78,0,2.8-.78,2.8-2.15A3.67,3.67,0,0,0,67.26,58a6.59,6.59,0,0,0,2.22-.43,4.88,4.88,0,0,1,1.3,3.28,3.61,3.61,0,0,1-1.48,2.85,5.58,5.58,0,0,1-3.48,1A5.46,5.46,0,0,1,63,64.09a3.38,3.38,0,0,1-1.61-3.19,11.44,11.44,0,0,1,0-1.17c-.72-.09-1.25-.17-2-.33-.16,0-.31-.06-.58-.09ZM77.8,51.66a20.78,20.78,0,0,0-.66,3.7,6.09,6.09,0,0,1,1.34-2,3.64,3.64,0,0,1,2.47-1,3.45,3.45,0,0,1,3,1.87,6.86,6.86,0,0,1,.81,3.65,6.31,6.31,0,0,1-4.05,6.28,14,14,0,0,1-3.09.83,7.32,7.32,0,0,0-1-2.18c4.2-.33,5.94-1.84,5.94-5.17,0-2-.66-3.14-1.85-3.14a2.11,2.11,0,0,0-1.5.71A6.73,6.73,0,0,0,77.28,60v.23l-2.15,0a1.2,1.2,0,0,0,0-.24c0-.06,0-.06,0-.86,0-.54,0-1,0-1.3,0-1.28.09-2.93.21-4s.17-1.54.2-1.81a3.32,3.32,0,0,0,0-.53Zm-38,33a27.17,27.17,0,0,0-4.46-4.37A17.19,17.19,0,0,1,29.7,84.5a7,7,0,0,0-1.44-2,13.32,13.32,0,0,0,3.33-1.83,13.83,13.83,0,0,0,3.93-4.33c.19-.33.45-.87.79-1.64l-4.38.08a13.77,13.77,0,0,0-2.1.13l0-2.28a10.63,10.63,0,0,0,1.83.09h.29L37,72.63c.83,0,.9,0,1.26-.18l1.16,1.2a2.43,2.43,0,0,0-.5.84,19.42,19.42,0,0,1-2.26,4.08,33.25,33.25,0,0,1,4.87,4.16ZM42.82,79a3.82,3.82,0,0,0,.59-.5c.43-.43,1.84-2.11,2.71-3.22a4.85,4.85,0,0,1,1.19-1.22,2.12,2.12,0,0,1,1.08-.28c.81,0,1.2.25,2.38,1.6a54.12,54.12,0,0,0,4.73,4.73A11.37,11.37,0,0,0,57,81.36l-1.12,2.45A87.28,87.28,0,0,1,49,76.7c-.24-.27-.39-.36-.57-.36s-.24,0-.86.82-1.56,2-2.68,3.38a7.33,7.33,0,0,0-.54.66Zm13.07-4.62a1.66,1.66,0,1,1-1.65-1.67A1.66,1.66,0,0,1,55.89,74.39Zm-2.39,0a.73.73,0,1,0,.74-.74A.74.74,0,0,0,53.5,74.39Zm4.86,2.52a18.86,18.86,0,0,0,2.75.12H68.7a19.42,19.42,0,0,0,2.74-.11v2.46c-.6,0-1.59-.07-2.76-.07H61.11c-1.31,0-2.16,0-2.75.09Zm26.39,7.77a27.17,27.17,0,0,0-4.46-4.37A17.19,17.19,0,0,1,74.7,84.5a7,7,0,0,0-1.44-2,13.32,13.32,0,0,0,3.33-1.83,13.83,13.83,0,0,0,3.93-4.33c.19-.33.45-.87.79-1.64l-4.38.08a13.77,13.77,0,0,0-2.1.13l0-2.28a10.63,10.63,0,0,0,1.83.09h.29L82,72.63c.83,0,.9,0,1.26-.18l1.16,1.2a2.43,2.43,0,0,0-.5.84,19.42,19.42,0,0,1-2.26,4.08,33.25,33.25,0,0,1,4.87,4.16ZM8.94,74.06A51,51,0,0,1,92.68,20.6l5.17-3.3A57,57,0,0,0,3.77,77.36Zm92.33-42.34a51,51,0,0,1-85.82,54.8l-5.06,3.23a57,57,0,0,0,95.94-61.26Z"/></svg>