<svg id="レイヤー_1" data-name="レイヤー 1" xmlns="http://www.w3.org/2000/svg" viewBox="0 0 114 114"><defs><style>.home_feature_02-1{fill:#836c39;}</style></defs><path class="home_feature_02-1" d="M38.18,40.69a1.75,1.75,0,0,0,.55,1.08,2.49,2.49,0,0,0,1.77.63c1.32,0,2.16-.68,2.16-1.74S41.9,39,40.4,39a16.36,16.36,0,0,0-1.82.07v-2.2a11.2,11.2,0,0,0,1.43.09,3.12,3.12,0,0,0,1.65-.35,1.44,1.44,0,0,0,.69-1.29c0-1-.63-1.45-1.88-1.45a1.93,1.93,0,0,0-1.57.66,2,2,0,0,0-.38.82l-2.67-.42a4.09,4.09,0,0,1,1-1.87,5,5,0,0,1,3.69-1.29,5,5,0,0,1,3.56,1.2,3,3,0,0,1,.18,4,3.19,3.19,0,0,1-1.82,1,3.41,3.41,0,0,1,2.12,1,3,3,0,0,1,.7,2.07,3.14,3.14,0,0,1-.91,2.21,5.51,5.51,0,0,1-4,1.27A5.09,5.09,0,0,1,36.41,43a4.26,4.26,0,0,1-.87-1.8Zm15-4h-.84a11.7,11.7,0,0,0-1.34.06,14,14,0,0,0,.06-1.52V33.13A13.74,13.74,0,0,0,51,31.61a14,14,0,0,0,1.52.06h2.28a12.65,12.65,0,0,0,1.5-.06,13,13,0,0,0-.06,1.52v1.15A7,7,0,0,0,58.76,31l2,.38c-.24.48-.24.48-.45.85h1.55a7.06,7.06,0,0,0,1.26-.07l.91,1.12c-.73,1.25-.73,1.25-1,1.62a13.31,13.31,0,0,1-1.31,1.67,12.12,12.12,0,0,0,2.93,1.26A7.74,7.74,0,0,0,64,39.8l-.54-.22a4.11,4.11,0,0,0,0,.54v3.42a13.38,13.38,0,0,0,.08,1.68h-2v-.68H59v.68H57.06a9.44,9.44,0,0,0,.08-1.47v-4l-.41.18A4.69,4.69,0,0,0,56,38.27V40A9.35,9.35,0,0,0,55,40h-.1v2c.46-.12.76-.21,1.59-.48v1.75a51.49,51.49,0,0,1-5.15,1.37,3.08,3.08,0,0,0-.67.19l-.42-2a7.83,7.83,0,0,0,.79-.08V39.16a10,10,0,0,0-.07-1.5H52.7a8,8,0,0,0-.08,1.42v3.39l.59-.12Zm-.32-1.64h1.65V33.32H52.89ZM56,38.18a12,12,0,0,0,3-1.54,12.14,12.14,0,0,1-1-1.28,7.62,7.62,0,0,1-1,.84,6.11,6.11,0,0,0-.63-1c0,.81,0,1.14,0,1.51-.34,0-.63,0-1.15,0h-.24v1.6H55a4.12,4.12,0,0,0,1-.07Zm6.36,1.1h.44a15.9,15.9,0,0,1-2.39-1.41,10.7,10.7,0,0,1-2.25,1.41ZM59,42.82h2.56V41H59Zm.31-8.91-.24.28a6.22,6.22,0,0,0,1.22,1.35,7.55,7.55,0,0,0,1.26-1.63Zm6.14,3.58a3.85,3.85,0,0,0,.79.06h.44c.33-.42.42-.54.69-.93a18.11,18.11,0,0,0-2-2.22l.9-1.56.49.52a9.18,9.18,0,0,0,1-2.31l1.73.6a4,4,0,0,0-.33.65,19.75,19.75,0,0,1-1.34,2.32l.47.6a15.85,15.85,0,0,0,1.36-2.5l1.5.82c-.12.18-.12.18-.6,1-.64,1-1.42,2.15-2.08,3,.69,0,.94,0,1.39-.09a9.22,9.22,0,0,0-.39-1.19l1.2-.43A18.53,18.53,0,0,1,71.43,38c0-.33,0-.88,0-1.35V33.77c0-.52,0-1.06-.06-1.5a10.73,10.73,0,0,0,1.45.06h.81A8.79,8.79,0,0,0,74.09,31l2,.26a11,11,0,0,1-.42,1h1.56a10.37,10.37,0,0,0,1.46-.06,12.9,12.9,0,0,0-.06,1.53v2.85a11.16,11.16,0,0,0,.06,1.47c-.44,0-1,0-1.43,0H75.93a8.07,8.07,0,0,0,.71,1.62,8.6,8.6,0,0,0,1.48-1.52l1.26,1.11A15.08,15.08,0,0,1,77.54,41a8.34,8.34,0,0,0,2.13,1.94,6.42,6.42,0,0,0-1.13,1.78,8.83,8.83,0,0,1-2.73-3.66c.08.81.11,1.37.11,1.62v.92c0,1-.56,1.44-1.94,1.44l-1,0a5.47,5.47,0,0,0-.37-1.62,12.89,12.89,0,0,1-1.31,1.38A6.66,6.66,0,0,0,70,43.33a7.28,7.28,0,0,0,1.35-1.17,5.66,5.66,0,0,0,.9-1.61h-.6a5.45,5.45,0,0,0-.8.05V39.05l-.52.23-.09-.42a3.08,3.08,0,0,0-.47.06l-.52,0V43.6a8.34,8.34,0,0,0,.09,1.6H67.52a12.82,12.82,0,0,0,.09-1.62V39.1l-1.13.06a8.4,8.4,0,0,0-.87.09Zm1.81,2.37a18.52,18.52,0,0,1-.55,4.67l-1.32-.78a13.59,13.59,0,0,0,.52-4Zm3.35-.25A23.78,23.78,0,0,1,71,42.49l-1.21.3a20.26,20.26,0,0,0-.29-2.94Zm.64-.72h1.68a5.54,5.54,0,0,0,.68,0l.52.71v-1.5H72.9c-.46,0-.94,0-1.44,0,.08.3.08.32.15.62Zm2.88,1c-.12.36-.12.38-.27.81a8.19,8.19,0,0,1-1.21,2.55,5.08,5.08,0,0,0,1,.11c.37,0,.46-.08.46-.36Zm-.9-5.43h3.62v-.7H73.23Zm0,2.16h3.62v-.75H73.23ZM47.61,60.75a1.75,1.75,0,0,0,.55,1.09,2.53,2.53,0,0,0,1.77.63c1.32,0,2.16-.67,2.16-1.75S51.33,59,49.83,59c-.75,0-1.26,0-1.82.07v-2.2a11.2,11.2,0,0,0,1.43.09,3.12,3.12,0,0,0,1.65-.35,1.44,1.44,0,0,0,.69-1.29c0-1-.63-1.45-1.88-1.45a1.93,1.93,0,0,0-1.57.66,2.09,2.09,0,0,0-.38.82L45.28,55a4.17,4.17,0,0,1,1-1.89A5,5,0,0,1,50,51.78,5,5,0,0,1,53.58,53a3.05,3.05,0,0,1,.18,4,3.24,3.24,0,0,1-1.82,1,3.32,3.32,0,0,1,2.12,1,2.89,2.89,0,0,1,.7,2.05,3.16,3.16,0,0,1-.91,2.22,5.52,5.52,0,0,1-4,1.28A5,5,0,0,1,45.84,63,4.22,4.22,0,0,1,45,61.24Zm12-.45A16.6,16.6,0,0,1,59,64.65L57.76,64a11.58,11.58,0,0,0,.69-4Zm3.27-2.07h.53a8.17,8.17,0,0,0,1.17-.06,3.39,3.39,0,0,0,0,.51,38.85,38.85,0,0,1-.26,4c-.15,1.18-.39,1.77-.82,2.05a2.79,2.79,0,0,1-1.73.35h-.24a5.31,5.31,0,0,0-.34-1.82,4.33,4.33,0,0,0,.94.09c.38,0,.51-.12.62-.51a6,6,0,0,0,.16-1l-.66.33a10.36,10.36,0,0,0-.4-2.08l.6-.2a8.24,8.24,0,0,1,.48,1.89A20.54,20.54,0,0,0,63,59.7H59.8a9.78,9.78,0,0,0-1.3.06,13.53,13.53,0,0,0,.06-1.44V53.5a14.38,14.38,0,0,0-.08-1.83,15,15,0,0,0,1.71.06H63a14,14,0,0,0,1.68-.07v1.72a10.12,10.12,0,0,0-1.17-.06h-.62v.75h.45A6,6,0,0,0,64.41,54v1.41a8.27,8.27,0,0,0-1.07-.06h-.45v.74h.45A7.26,7.26,0,0,0,64.41,56v1.42a7.85,7.85,0,0,0-1.07-.06h-.45Zm-2.28,1.93a25,25,0,0,1,.23,3.32v.4l-1,.17c.05-.81.05-1,.05-2,0-.57,0-1-.08-1.77Zm.66-6.84h-1v.75h1Zm0,2h-1v.74h1Zm-1,2v.83h1V57.4Zm1.28,2.69A19,19,0,0,1,62,63l-.82.27a15.25,15.25,0,0,0-.35-2.95Zm8.29-2.37a11.16,11.16,0,0,0,.77,3.43,6.38,6.38,0,0,0,1.5,2.3,6.3,6.3,0,0,0-1.41,1.78,10.55,10.55,0,0,1-1.83-3.31,14.53,14.53,0,0,1-.77-4.2h-1c-.09,3.85-.42,5.55-1.44,7.51A5.64,5.64,0,0,0,64.05,64,7.57,7.57,0,0,0,65,61.6,44.9,44.9,0,0,0,65.31,54a21.17,21.17,0,0,0-.08-2.29,12.58,12.58,0,0,0,1.73.07h2.88a10.74,10.74,0,0,0,1.62-.07c0,.42,0,.67,0,1.6v2.76c0,.75,0,1.2.06,1.65-.28,0-.72,0-1.26,0ZM69.57,56V53.53H67.14v1.71c0,.27,0,.44,0,.48V56ZM38.37,74c-1,.16-1.22.21-2,.31a8,8,0,0,0-.63-1.74,24,24,0,0,0,3.75-.64,7.71,7.71,0,0,0,2-.72l1.14,1.66c-1,.35-1.61.51-2.39.72V75.3h1.07a7.46,7.46,0,0,0,1.26-.07v1.89a9.44,9.44,0,0,0-1.29-.06h-1a8.33,8.33,0,0,0,2.34,2.56,9.09,9.09,0,0,0-.9,1.79,7.3,7.3,0,0,1-1.58-2.09c0,.44.06.93.06,1.58v2.34a14.1,14.1,0,0,0,.09,1.93h-2.1a12.87,12.87,0,0,0,.11-1.93V81.08c0-.5,0-1.07,0-1.5a8.88,8.88,0,0,1-2,3.3,10.36,10.36,0,0,0-1-1.92,8.09,8.09,0,0,0,1.48-1.77A12.92,12.92,0,0,0,38,77.06h-.88a8.65,8.65,0,0,0-1.35.07v-1.9a8.55,8.55,0,0,0,1.38.07h1.23Zm7-1.64a15.67,15.67,0,0,0-.07,1.88v5.61a13.4,13.4,0,0,0,.07,1.81H43.26a11.88,11.88,0,0,0,.07-1.77V74.21a15.12,15.12,0,0,0-.09-1.88Zm3.5-.93a16.64,16.64,0,0,0-.09,2.12v9.54c0,.93-.27,1.47-.83,1.71a6.83,6.83,0,0,1-2.29.24l-1,0A7.82,7.82,0,0,0,44,83c.87.09,1.5.13,2,.13.68,0,.81-.07.81-.46V73.52c0-.72,0-1.38-.09-2.12Zm9.7,11.48a14,14,0,0,0,.08,1.84H56.55a13,13,0,0,0,.09-1.83V80.58H53.47A10.42,10.42,0,0,1,52,85.23a12,12,0,0,0-1.74-1.44c1.23-1.9,1.46-3.48,1.46-10.14a17.83,17.83,0,0,0-.08-2,17.49,17.49,0,0,0,1.76.06H62a16.4,16.4,0,0,0,1.8-.06c0,.48-.06.92-.06,1.8V83.3c0,1.32-.51,1.69-2.29,1.69-.42,0-1.17,0-1.64-.06a6.54,6.54,0,0,0-.51-1.84c.69.06,1.34.1,1.79.1s.7-.06.7-.36V80.58H58.54ZM53.64,77c0,.65,0,1,0,1.77h3V77Zm3-3.46h-3v1.71h3Zm5.11,1.71V73.58H58.54v1.71Zm-3.21,3.52h3.21V77H58.54Zm9.12-5.22c-.67,0-1.26,0-2,.09v-2a18.55,18.55,0,0,0,1.93.09h9.71c.7,0,1.32,0,2-.09v2c-.52,0-.88-.07-1.6-.09v9.59c0,1.57-.47,1.89-2.79,1.89-.39,0-1,0-1.58,0a5.76,5.76,0,0,0-.51-2,19.74,19.74,0,0,0,2.19.15c.57,0,.69-.08.69-.47V73.59ZM74,80.1A10.14,10.14,0,0,0,74,81.36c-.3,0-1-.06-1.38-.06H69.15v1.17h-2a11.42,11.42,0,0,0,.09-1.39V76.34a9.73,9.73,0,0,0-.07-1.41,13,13,0,0,0,1.39.06H72.6c.6,0,1,0,1.44-.06A9,9,0,0,0,74,76.22Zm-4.85-.54h2.94V76.73H69.13ZM8.94,74.06A51,51,0,0,1,92.68,20.6l5.17-3.3A57,57,0,0,0,3.77,77.36Zm92.33-42.34a51,51,0,0,1-85.82,54.8l-5.06,3.23a57,57,0,0,0,95.94-61.26Z"/></svg>