<svg id="レイヤー_1" data-name="レイヤー 1" xmlns="http://www.w3.org/2000/svg" viewBox="0 0 114 114"><defs><style>.home_feature_03-1{fill:#836c39;}</style></defs><path class="home_feature_03-1" d="M23.73,35.56a3.73,3.73,0,0,0-.75-.05h-.19a7,7,0,0,0,1.17,2,10.86,10.86,0,0,0-.59,1.71,11.25,11.25,0,0,1-.69-1.39c0,.19,0,.19.05.63,0,.15,0,.7,0,1V43.3a16.35,16.35,0,0,0,.09,1.89H20.91A12.73,12.73,0,0,0,21,43.3V40.69c0-.38,0-.75.06-1.74A8.58,8.58,0,0,1,20,41.68a18.24,18.24,0,0,0-.86-1.85,12.9,12.9,0,0,0,1.8-4.32h-.25a9,9,0,0,0-1.08.06V33.73a8.4,8.4,0,0,0,1.11.07H21v-1a10.08,10.08,0,0,0-.09-1.56h1.92a11,11,0,0,0-.07,1.54v1h.18a5,5,0,0,0,.72,0V32.41a11.21,11.21,0,0,0,1.23.07h.64v-.13a6.12,6.12,0,0,0-.09-1.1h1.89a6.1,6.1,0,0,0-.07,1.1v.13h.66c.4,0,.87,0,1.26-.07v1.51a4.12,4.12,0,0,0,1,.08h.72v-1a13.71,13.71,0,0,0-.09-1.83h2a11.17,11.17,0,0,0-.09,1.83v1a5.26,5.26,0,0,0,.9-.11v1.94a6.66,6.66,0,0,0-.9-.08v7.67a1.51,1.51,0,0,1-.5,1.32,2.87,2.87,0,0,1-1.66.3c-.32,0-.68,0-1.08,0a7.28,7.28,0,0,0-.23-1.29,33.44,33.44,0,0,1-3.27.74c-1.5.24-1.59.25-1.89.31l-.37.08L23.31,43l.15,0a17.7,17.7,0,0,0,2.73-.29,12.6,12.6,0,0,0,.74-2.34l1.75.5c-.13.36-.49,1.21-.64,1.51.45-.09.66-.15,1.39-.33v1.07a6.81,6.81,0,0,0,1,.09c.39,0,.48-.08.48-.36V40l-1.17.81a27.67,27.67,0,0,0-.91-3.28v1.86a5.8,5.8,0,0,0,0,.9c-.41,0-.71-.05-1-.05H25c-.4,0-.79,0-1.08.05a7.75,7.75,0,0,0,0-1V37.54a6.86,6.86,0,0,0,0-.9,10.47,10.47,0,0,0,1.08,0h2.79a6.61,6.61,0,0,0,1-.06,4.12,4.12,0,0,0,0,.69l1.2-.63a15.87,15.87,0,0,1,.88,2.63V35.75h-.72a5.45,5.45,0,0,0-1.06.08V34c-.32,0-.77-.06-1.17-.06h-.66v.76h.48a6.2,6.2,0,0,0,1-.06v1.56a9.42,9.42,0,0,0-1.06-.06H25.17a10.47,10.47,0,0,0-1.14.06V34.67a7.16,7.16,0,0,0,1.08.06h.42V34h-.61a11,11,0,0,0-1.19.06Zm.74,7.23A8.08,8.08,0,0,0,23.81,41l1.56-.6a11.24,11.24,0,0,1,.69,1.8Zm1.08-3.95h1.68V38H25.55Zm17.43-3a12.53,12.53,0,0,0,2.38,3.09,13.56,13.56,0,0,0,3.26,2.32,8.54,8.54,0,0,0-1.29,1.95,15,15,0,0,1-2.67-2.14,13.08,13.08,0,0,1-2.4-3.24q.09,1,.09,1.56v3.82a15.94,15.94,0,0,0,.1,1.94H40.17a17.58,17.58,0,0,0,.11-1.94V39.4c0-.41,0-1,.06-1.55a9.09,9.09,0,0,1-1.28,2.06,15.62,15.62,0,0,1-3.63,3.34,7.52,7.52,0,0,0-1.23-1.86,14,14,0,0,0,5.45-5.56h-3a15.14,15.14,0,0,0-1.88.1V33.86A12.92,12.92,0,0,0,36.6,34h3.68V32.68a6.88,6.88,0,0,0-.11-1.41h2.27a6.86,6.86,0,0,0-.09,1.39V34h3.84a12.73,12.73,0,0,0,1.89-.11v2.07a15.7,15.7,0,0,0-1.88-.1Zm6.69-.68h.09c.45,0,2.25-.16,3-.28a20.47,20.47,0,0,0,.38-3,1.16,1.16,0,0,0,0-.23l2.33.23a3,3,0,0,0-.11.43c0,.06-.13.71-.34,1.94a5,5,0,0,1-.11.51l.8,0a2.89,2.89,0,0,1,2.34.87,3.93,3.93,0,0,1,.7,2.76c0,2.68-.45,4.77-1.21,5.59a2.07,2.07,0,0,1-1.76.68,7.87,7.87,0,0,1-2.29-.42,6,6,0,0,0,0-.68,6.82,6.82,0,0,0-.2-1.6,6.53,6.53,0,0,0,2.13.57c.38,0,.6-.24.78-.84a14.16,14.16,0,0,0,.41-3.42c0-.72-.11-1.11-.38-1.35s-.43-.26-1-.26a7.42,7.42,0,0,0-.75,0,33.24,33.24,0,0,1-2.75,7.63c-.13.29-.15.32-.24.51l-2.08-1.12a22.64,22.64,0,0,0,2.92-6.86c-1.06.15-2.08.33-2.52.45Zm10-3.06a8.76,8.76,0,0,1,1.38,2l-1.31.66a9.56,9.56,0,0,0-1.39-2Zm1.47,2.45a15.07,15.07,0,0,1,2.38,5.17l-2.07,1a13.87,13.87,0,0,0-1.11-3.39,9.31,9.31,0,0,0-1-1.92Zm.33-3.24a8.81,8.81,0,0,1,1.38,1.9l-1.29.68a10.89,10.89,0,0,0-1.37-2Zm11.28,3.85a4.41,4.41,0,0,0,0-.69v-.33H69.87v.41a3.18,3.18,0,0,0,0,.75H68a5.43,5.43,0,0,0,0-.71v-.45H66.38a13.53,13.53,0,0,0-1.77.08V32.3a13.83,13.83,0,0,0,1.77.09H68v-.27a4.36,4.36,0,0,0-.06-.81h2a5,5,0,0,0-.06.81v.27h2.94v-.27a4.42,4.42,0,0,0-.06-.81h2a5.13,5.13,0,0,0-.06.81v.27h1.68a15.12,15.12,0,0,0,1.83-.09v1.91a15.42,15.42,0,0,0-1.83-.08H74.67v.3a3.7,3.7,0,0,0,0,.45l.91-.22a6.89,6.89,0,0,1,1,1.47c.57,0,.84,0,1.25-.08v1.89A17.18,17.18,0,0,0,76,37.85H72.78a7.15,7.15,0,0,0,.74,2.22,6.92,6.92,0,0,0,1.54-2l1.68,1s-.4.5-1.14,1.44a11.06,11.06,0,0,1-1,1.08,4.15,4.15,0,0,0,1.65,1.29c.23,0,.41-.61.54-1.8a5,5,0,0,0,1.64.95c-.42,2.26-.87,3-1.82,3s-2.32-.87-3.49-2.24a16.52,16.52,0,0,1-4.08,2,7.39,7.39,0,0,0-1.22-1.71A13.18,13.18,0,0,0,72,41.26a10.67,10.67,0,0,1-1.16-3.41h-3l0,.93A14,14,0,0,1,67.14,43a8.07,8.07,0,0,1-1.26,2.27,8,8,0,0,0-1.65-1.5,5,5,0,0,0,1.23-2.37,17.66,17.66,0,0,0,.36-4,11.73,11.73,0,0,0-.07-1.28,12.77,12.77,0,0,0,1.62.08h3.27c0-.27,0-.47-.08-.72a3.58,3.58,0,0,0-.07-.65l2.1,0a4.29,4.29,0,0,0-.06.78c0,.16,0,.28,0,.57h2.13a6.45,6.45,0,0,0-.61-1Zm9.06-3a14.23,14.23,0,0,0,2,.1c1.29,0,3.15-.07,4.54-.18a2.44,2.44,0,0,0,1-.19l1.07,1.56a7.62,7.62,0,0,0-1.5,1.21,27.19,27.19,0,0,1-3.26,2.64A8.46,8.46,0,0,1,88.13,37a4.77,4.77,0,0,1,3.13,1,3.06,3.06,0,0,1,1.1,2.49,3.79,3.79,0,0,1-2.06,3.41,7.58,7.58,0,0,1-3.76.9A5.27,5.27,0,0,1,83.49,44a2.27,2.27,0,0,1-.91-1.83,2.49,2.49,0,0,1,2.76-2.27A3.34,3.34,0,0,1,88,41.14a3.87,3.87,0,0,1,.69,1.29c1.06-.44,1.5-1,1.5-2,0-1.1-1.11-1.8-2.84-1.8a9,9,0,0,0-6.12,2.52L80,39.26A33.9,33.9,0,0,0,86.67,34c-1.23.11-1.48.12-3.69.23-.48,0-.61,0-1.06.09Zm3.49,9.45c-.45,0-.75.24-.75.6,0,.52.57.82,1.55.82a2.37,2.37,0,0,0,.63-.07C86.52,42.08,86,41.62,85.32,41.62ZM10.38,55a17.59,17.59,0,0,1,2.47,1.88l-1,1.65a14.22,14.22,0,0,0-2.49-2Zm2.3,5.21a23.64,23.64,0,0,1-1.34,4c-.23.51-.23.51-.28.6a3.31,3.31,0,0,0-.15.33L9.4,63.66a13.38,13.38,0,0,0,1.86-4.58Zm1.94-6.72v1.44H13a8.2,8.2,0,0,0,0-1v-.54l-.95,1.41a10,10,0,0,0-2.27-2.06l1.12-1.45A14,14,0,0,1,13,53.05v-.33c0-.42,0-.76,0-1.06l.36,0,1.05,0h6a13,13,0,0,0,1.5-.06,8.59,8.59,0,0,0-.05,1.09v1a7.81,7.81,0,0,0,.05,1H20.16V53.49h-1v2c0,.28.08.33.59.33.69,0,.72,0,.72-1a5.73,5.73,0,0,0,1.48.43c-.09,2-.29,2.16-2.36,2.16a4,4,0,0,1-1.51-.19,5.41,5.41,0,0,0,0,.75v.37h2.39a12.58,12.58,0,0,0,1.5-.09v1.92a12,12,0,0,0-1.48-.09H18.78a7.66,7.66,0,0,0,3.53,2.55,6,6,0,0,0-.77,1.95A8.5,8.5,0,0,1,18,61.44c0,.54,0,.7,0,1V63.7a10.27,10.27,0,0,0,.07,1.5H16.31a12.42,12.42,0,0,0,.07-1.51V62.44c0-.3,0-.3,0-1a7.93,7.93,0,0,1-3.24,3.15,5.17,5.17,0,0,0-1-1.72,7.29,7.29,0,0,0,2.15-1.37,7.09,7.09,0,0,0,1.23-1.41H14.31a13.87,13.87,0,0,0-1.47.08V58.29c.43,0,.9.07,1.47.07h2.07V58a5.87,5.87,0,0,0-.06-1h1.49a.84.84,0,0,1-.2-.64V53.49h-.5a5.14,5.14,0,0,1-.52,2.35,4.67,4.67,0,0,1-2.68,2.24,5.77,5.77,0,0,0-.9-1.62,4.36,4.36,0,0,0,1.91-1,2.64,2.64,0,0,0,.62-2Zm11.49-.8A19.87,19.87,0,0,0,26,55.17c0,3.58.5,6.24,1.19,6.24.17,0,.33-.21.48-.62a12.91,12.91,0,0,0,.72-2.67A6.78,6.78,0,0,0,30,59.74C29.26,62.68,28.38,64,27.14,64c-1,0-1.79-.8-2.35-2.36s-.75-3.43-.83-8a8.19,8.19,0,0,0-.05-1Zm6.31.6a16.35,16.35,0,0,1,3.07,8.39l-2,.84A17.23,17.23,0,0,0,32.63,58a14,14,0,0,0-1.94-3.84ZM41.73,63a4.87,4.87,0,0,1-1-1.49,7.74,7.74,0,0,1,.05,1V63.9a7.25,7.25,0,0,0,.07,1.27H39.1a8.16,8.16,0,0,0,.06-1.2V62.79c0-.24,0-.57,0-.89a7.17,7.17,0,0,1-1.86,2.45,5.9,5.9,0,0,0-.9-1.62A8,8,0,0,0,38.79,60H38a7.12,7.12,0,0,0-1.26.07V58.23a7.16,7.16,0,0,0,1.3.07h1.09V58a6.57,6.57,0,0,0,0-1h1.71a6.11,6.11,0,0,0,0,1v.28h.54a6.38,6.38,0,0,0,1.23-.07v1.83A7,7,0,0,0,41.38,60h-.29a5.63,5.63,0,0,0,1.53,1.45,8.22,8.22,0,0,0-.71,1.22A9.08,9.08,0,0,0,44.43,60h-.34a7,7,0,0,0-1.16.06V58.23a6.43,6.43,0,0,0,1.26.07h.62V58a5.78,5.78,0,0,0-.06-1h1.73a5.74,5.74,0,0,0,0,1v.28h1.35a7,7,0,0,0,1.28-.07v1.84A7.11,7.11,0,0,0,47.79,60h-1a7.57,7.57,0,0,0,2.64,2.55,6.38,6.38,0,0,0-1,1.74,8.07,8.07,0,0,1-2.12-2.63c0,.15,0,.71,0,.89v1.33a6.85,6.85,0,0,0,.07,1.29H44.74a9.67,9.67,0,0,0,.07-1.33V62.62c0-.18,0-.42,0-.88a7.65,7.65,0,0,1-2.11,2.55,5.43,5.43,0,0,0-.89-1.52ZM47,52.35a11.61,11.61,0,0,0,1.63-.09v1.86A12.33,12.33,0,0,0,47,54H45a9,9,0,0,0,4.09,1.84,7.78,7.78,0,0,0-.85,1.74,12.33,12.33,0,0,1-2.53-1.17,9.56,9.56,0,0,1-2.09-1.62,1.64,1.64,0,0,0,0,.2,2,2,0,0,1,0,.4v1.26a4.75,4.75,0,0,0,.07,1H41.91a7.83,7.83,0,0,0,.06-1V55.45a4,4,0,0,1,0-.61,10.48,10.48,0,0,1-4.36,2.71,5.71,5.71,0,0,0-.84-1.6A9.67,9.67,0,0,0,40.76,54H38.92a11.91,11.91,0,0,0-1.63.09V52.26a11.81,11.81,0,0,0,1.63.09h3a5.59,5.59,0,0,0-.07-1.13h1.85a6.23,6.23,0,0,0-.07,1.13Zm9.21,8.28c-.75,1.9-1.64,2.79-2.8,2.79-1.68,0-2.87-1.82-2.87-4.4A6.85,6.85,0,0,1,52,54.57a6,6,0,0,1,4.75-2.16c3.39,0,5.55,2.25,5.55,5.76A5.94,5.94,0,0,1,58.93,64a9.17,9.17,0,0,1-2.15.61,6.33,6.33,0,0,0-1-2.13,6.16,6.16,0,0,0,2.68-.72A4.22,4.22,0,0,0,60.32,58a3.79,3.79,0,0,0-1.44-3.13,2.42,2.42,0,0,0-1.26-.48A22.8,22.8,0,0,1,56.17,60.63ZM54,55.2A5.12,5.12,0,0,0,52.37,59c0,1.12.43,2,1,2s.81-.59,1.24-1.8a21.07,21.07,0,0,0,1.08-4.83A2.86,2.86,0,0,0,54,55.2Zm16.85-3.71a22.78,22.78,0,0,0-.1,2.48c0,.09,0,.12,0,.7a14.28,14.28,0,0,0,3.94-.46l.15,2.13c-.11,0-.72.07-1.85.19-.6.06-1.39.12-2.2.15,0,.93,0,1.13.13,3A12.42,12.42,0,0,1,74.82,62c.19.15.26.19.41.3l-1.25,2a7.15,7.15,0,0,0-1.21-1.23A9,9,0,0,0,71,61.89v.39c0,1.71-1.15,2.64-3.25,2.64s-3.34-1.05-3.34-2.82a2.6,2.6,0,0,1,1.45-2.39A4.14,4.14,0,0,1,68,59.22a6.35,6.35,0,0,1,1.07.1c-.07-1-.17-4.48-.18-6.48a13.26,13.26,0,0,0-.07-1.36ZM68,61.14c-.89,0-1.49.39-1.49,1S67,63,67.74,63A1.37,1.37,0,0,0,69,62.44a1.35,1.35,0,0,0,.12-.7c0-.18,0-.42,0-.42A2.89,2.89,0,0,0,68,61.14ZM78.3,56.28A9.39,9.39,0,0,0,80,56a22.79,22.79,0,0,1,4.49-.49,4,4,0,0,1,2.91,1A3.54,3.54,0,0,1,88.31,59a5.23,5.23,0,0,1-2.69,4.45,11,11,0,0,1-4.42,1.37,6.19,6.19,0,0,0-.82-2.21c2.27-.15,3.73-.58,4.71-1.42a2.77,2.77,0,0,0,1.06-2.13,1.41,1.41,0,0,0-.57-1.19,2.52,2.52,0,0,0-1.38-.31,17.59,17.59,0,0,0-5.45,1Zm2.16-4.85a16.82,16.82,0,0,0,5.58.86c.09,0,.34,0,.67,0l-.25,2.19a28.9,28.9,0,0,1-6.61-.91Zm15.67.2a5.53,5.53,0,0,0-.18.81c0,.13-.1.46-.19,1a1.92,1.92,0,0,0-.08.37,8.67,8.67,0,0,0,2-.39l0,2.07-.41.06c-.48.08-1,.14-2.11.24a32.39,32.39,0,0,1-1.47,4.35c-.31.74-.43,1-1,2.09-.17.37-.17.37-.25.57l-1.85-1.14a20.85,20.85,0,0,0,2.53-5.81c-.4,0-.4,0-.72,0h-.17l-.6,0h-.52v-2a9.46,9.46,0,0,0,1.89.15l.6,0a13.16,13.16,0,0,0,.36-2.51Zm6,12.37a8,8,0,0,0-1.92-1.75,2.51,2.51,0,0,1-.46,1.6,3,3,0,0,1-2.49,1c-1.85,0-3.07-1.06-3.07-2.67a2.65,2.65,0,0,1,1.72-2.52,3.7,3.7,0,0,1,1.44-.22,5.36,5.36,0,0,1,1,.09,13.54,13.54,0,0,1-.07-1.46,10.5,10.5,0,0,1,.11-1.66l1.87.1a5,5,0,0,0-.17,1.49,15,15,0,0,0,.12,2,8.92,8.92,0,0,1,2,1.31c.17.13.3.24.53.45L103,62Zm-4.82-2.77c-.74,0-1.24.36-1.24.88s.42.87,1.13.87,1.2-.37,1.2-1.11a3.45,3.45,0,0,0,0-.42A2.7,2.7,0,0,0,97.31,61.23Zm4.9-4.19a17.23,17.23,0,0,0-4-2.13l1-1.74a20.31,20.31,0,0,1,3.93,2ZM45.09,81a14,14,0,0,0-1.83.09v-2a12.18,12.18,0,0,0,1.64.09h7.77a12.1,12.1,0,0,0,1.87-.11v2A14.76,14.76,0,0,0,52.68,81H49.8v1.87h4a15.08,15.08,0,0,0,2-.09v2a16.42,16.42,0,0,0-2-.09h-9.7a16.68,16.68,0,0,0-2,.09v-2a19.18,19.18,0,0,0,2,.09h3.76V81Zm2.7-8.91a4.35,4.35,0,0,0-.07-.93h2.16a4.73,4.73,0,0,0-.08.91v.42h4a17,17,0,0,0,1.73-.06,7.23,7.23,0,0,0-.06,1.14v.9a7,7,0,0,0,.07,1.16h-2v-1.4H51.21v2.06c0,.27.09.34.48.36h.51a4.1,4.1,0,0,0,1-.09c.18-.07.23-.22.23-.88a5.13,5.13,0,0,0,1.84.52c-.12,1.92-.46,2.13-3.37,2.13-2.12,0-2.51-.21-2.51-1.32V74.25h-1.2A4.55,4.55,0,0,1,47,77.19a6.1,6.1,0,0,1-2,1.32,11.49,11.49,0,0,1-1.69.57,7.29,7.29,0,0,0-1.13-1.68,6.75,6.75,0,0,0,2.93-1,2.48,2.48,0,0,0,1.17-2.12H44.21v2h-2A11.43,11.43,0,0,0,42.3,75v-1.4a7.45,7.45,0,0,0-.06-1.14,17,17,0,0,0,1.73.06h3.82ZM59.4,83.21a14.14,14.14,0,0,0,.09,1.92H57.42a14.49,14.49,0,0,0,.09-1.94V73.32a15.14,15.14,0,0,0-.06-1.69,15.07,15.07,0,0,0,1.53.06h2.88a13.4,13.4,0,0,0,1.53-.06c0,.43,0,.78,0,1.38v2.52c0,.73,0,1,0,1.33-.35,0-.84,0-1.31,0H59.4Zm0-9.53h2.19v-.61H59.4Zm0,1.83h2.19V74.9H59.4ZM67,82.29c0,.33,0,.56,0,.86.39,0,.59,0,.78,0,.53,0,.63-.06.63-.37v-6H65.55c-.46,0-1,0-1.3,0,0-.45,0-.6,0-1.33V73c0-.53,0-.9,0-1.38a14.84,14.84,0,0,0,1.55.06h3.06a14.8,14.8,0,0,0,1.53-.06,16.26,16.26,0,0,0-.06,1.68V83.1c0,1-.2,1.46-.74,1.7a4.83,4.83,0,0,1-1.81.21l-1.08,0a6.81,6.81,0,0,0-.32-1.43H62.51v.75h-1.8c0-.44.06-1,.06-1.56V78.9c0-.52,0-.93-.05-1.3.45,0,.75,0,1.35,0H65.7c.62,0,.89,0,1.35,0,0,.36,0,.73,0,1.3Zm-4.5-2.4h2.77v-.76H62.51Zm0,2.16h2.77V81.3H62.51Zm3.55-8.37h2.37v-.61H66.06Zm0,1.83h2.37V74.9H66.06ZM8.94,74.06A51,51,0,0,1,92.68,20.6l5.17-3.3A57,57,0,0,0,3.77,77.36Zm92.33-42.34a51,51,0,0,1-85.82,54.8l-5.06,3.23a57,57,0,0,0,95.94-61.26Z"/></svg>