<svg id="レイヤー_1" data-name="レイヤー 1" xmlns="http://www.w3.org/2000/svg" viewBox="0 0 114 114"><defs><style>.feature_05-1{fill:#836c39;}</style></defs><path class="feature_05-1" d="M45.45,47.32a8.29,8.29,0,0,1-1.8,3.13A44.28,44.28,0,0,1,48,52.57L46.55,54.2a29.36,29.36,0,0,0-4.41-2.4,10.49,10.49,0,0,1-2.64,1.37,21.3,21.3,0,0,1-4,1,6.06,6.06,0,0,0-.93-1.89A14.06,14.06,0,0,0,40,50.93a35,35,0,0,0-3.93-1.23,19.9,19.9,0,0,0,1.72-2.38h-1.5c-.76,0-1.27,0-1.71.07v-2a11.36,11.36,0,0,0,1.71.08h2.54a10.62,10.62,0,0,0,.85-2l2.13.3-.51,1c0,.09,0,.1-.31.66h5.49a10.55,10.55,0,0,0,1.69-.08v2a13.23,13.23,0,0,0-1.69-.07Zm-5.19-6a7.28,7.28,0,0,0-.06-1.1h2.15a6.71,6.71,0,0,0-.06,1.08v.21h3.94A17.12,17.12,0,0,0,48,41.45a11.12,11.12,0,0,0-.06,1.16v1.23A7.55,7.55,0,0,0,48,45h-2V43.3H36.72V45H34.77a5.78,5.78,0,0,0,.08-1.12V42.61c0-.38,0-.78-.06-1.16a16.7,16.7,0,0,0,1.75.06h3.72Zm-.19,6c-.39.66-.53.87-1,1.54a27.58,27.58,0,0,1,2.7.87,6.23,6.23,0,0,0,1.59-2.41ZM49.22,51a14.84,14.84,0,0,0,1.57-6.18l1.94.45c-.42,3.72-.68,4.83-1.58,6.83Zm9.22-6.75a19.79,19.79,0,0,0-5.17-2.37l1.12-1.71a26,26,0,0,1,5.25,2.19Zm-3,7.34c0,.31.25.39,1.42.39,1,0,1.41-.11,1.56-.41a9,9,0,0,0,.32-3,8.68,8.68,0,0,0,2,.71c-.14,2.13-.29,3-.65,3.63a1.7,1.7,0,0,1-1,.79,10.24,10.24,0,0,1-2.67.21c-1.71,0-2.3-.09-2.7-.43s-.41-.62-.41-1.32v-7a13.39,13.39,0,0,0-.09-1.57h2.27a12.5,12.5,0,0,0-.09,1.51Zm6.21.21a25.16,25.16,0,0,0-2.4-6.42l1.9-.84a28.36,28.36,0,0,1,2.51,6.25Zm9.48-2.13c-.84,1.9-1.83,2.79-3.12,2.79-1.86,0-3.18-1.82-3.18-4.4a6.43,6.43,0,0,1,1.68-4.45,7,7,0,0,1,5.28-2.16c3.76,0,6.16,2.25,6.16,5.76A5.88,5.88,0,0,1,74.21,53a11,11,0,0,1-2.39.61,6,6,0,0,0-1.11-2.13,7.31,7.31,0,0,0,3-.72A4.11,4.11,0,0,0,75.75,47a3.63,3.63,0,0,0-1.6-3.13,2.85,2.85,0,0,0-1.4-.48A21.21,21.21,0,0,1,71.15,49.63ZM68.76,44.2A4.91,4.91,0,0,0,66.92,48c0,1.12.48,2,1.06,2s.9-.59,1.38-1.8a19.2,19.2,0,0,0,1.2-4.83A3.39,3.39,0,0,0,68.76,44.2ZM37.53,65.34a16.61,16.61,0,0,1-2.26,1.17,6.53,6.53,0,0,0-1-1.86,12.92,12.92,0,0,0,3.61-1.89,9.43,9.43,0,0,0,2.45-2.48h2.08A9.05,9.05,0,0,0,45,62.7a14.31,14.31,0,0,0,3.72,1.84,9,9,0,0,0-.93,2,13.68,13.68,0,0,1-2.4-1.23v1a13.75,13.75,0,0,0-1.4-.06H38.87c-.47,0-.92,0-1.34.06Zm-.78,3.79a14.23,14.23,0,0,0-1.78.09v-2c.51,0,1.11.07,1.78.07h9.41c.72,0,1.29,0,1.78-.07v2a14.34,14.34,0,0,0-1.78-.09H41.09a18.86,18.86,0,0,1-1.44,2.66c3-.15,3-.15,4.29-.3-.48-.54-.72-.81-1.44-1.56l1.8-.75a31.68,31.68,0,0,1,3.4,4L46,74.29c-.42-.66-.56-.85-.8-1.21-1.44.19-1.47.19-2.29.27s-5.13.46-5.7.49-1.31.12-1.65.18l-.26-2.14c.45,0,.68,0,1,0l1.07,0a19.52,19.52,0,0,0,1.47-2.76Zm7.32-4.63A11.73,11.73,0,0,1,41.42,62a11.81,11.81,0,0,1-2.64,2.49Zm8.21,7c-.74,0-1.16,0-1.67.06,0-.39.06-.79.06-1.57V66.16a13.6,13.6,0,0,0-.06-1.6c.45,0,1,.06,1.67.06h8.19c.75,0,1.11,0,1.66-.06a10.43,10.43,0,0,0-.06,1.6V70a10.81,10.81,0,0,0,.06,1.57c-.48,0-.94-.06-1.66-.06H59.34a12.88,12.88,0,0,0,4.23,1.1,7.53,7.53,0,0,0-1,1.71,12.54,12.54,0,0,1-5.19-2l.92-.84H54.44l1,.89a14.08,14.08,0,0,1-5.23,1.9,6.31,6.31,0,0,0-1-1.72,12.32,12.32,0,0,0,4.18-1.07ZM61.53,63c0,.42,0,.78,0,1.13q-.67,0-1.59,0H52.8q-.94,0-1.62,0c0-.35.06-.72.06-1.13V61.69a11.48,11.48,0,0,0-.07-1.17,16.2,16.2,0,0,0,1.71.06h7a15.92,15.92,0,0,0,1.68-.06,10.5,10.5,0,0,0-.06,1.17Zm-9,3.65h7.59V66H52.58Zm0,1.74h7.59v-.59H52.58Zm0,1.78h7.59v-.63H52.58ZM53.22,62v.7h6.32V62Zm13.26,1.74c-.15.39-.21.54-.42,1a16.25,16.25,0,0,0-1.71-.87,8.63,8.63,0,0,0,1.05-2.76,4,4,0,0,0,.09-.72l1.79.3c0,.12-.11.42-.14.62L67,62h.92v-.35a8.23,8.23,0,0,0-.09-1.41h2a7.75,7.75,0,0,0-.08,1.38V62h1.2a9.73,9.73,0,0,0,1.49-.08v1.88a12.37,12.37,0,0,0-1.49-.06h-1.2v1h1.62a13.06,13.06,0,0,0,1.38-.06V66.6a10.73,10.73,0,0,0-1.45-.06H69.69v1H71.1a12.33,12.33,0,0,0,1.4-.06,8.64,8.64,0,0,0,0,1.32v3c0,1-.36,1.32-1.68,1.32h-.66a4.55,4.55,0,0,0-.34-1.68l.66,0c.25,0,.33,0,.33-.23v-2H69.69v3.39a9.67,9.67,0,0,0,.08,1.57h-2a8.83,8.83,0,0,0,.09-1.6V69.24H66.8v2.59c0,.63,0,1,0,1.41H65A8.4,8.4,0,0,0,65,71.8V68.88A13.56,13.56,0,0,0,65,67.47a14.71,14.71,0,0,0,1.47.06h1.47v-1H66.17a11.42,11.42,0,0,0-1.59.07V64.72a7.86,7.86,0,0,0,1.32.08h2v-1Zm8.6-2.39A12,12,0,0,0,75,62.89V69a9.69,9.69,0,0,0,.06,1.56h-2A9.11,9.11,0,0,0,73.2,69V62.94a10.2,10.2,0,0,0-.09-1.58Zm2.89-1a11.08,11.08,0,0,0-.09,1.82v10a1.81,1.81,0,0,1-.4,1.42,1.7,1.7,0,0,1-1,.42,9,9,0,0,1-1.34.09l-1.17,0a4.84,4.84,0,0,0-.49-1.89,16.34,16.34,0,0,0,1.86.15c.57,0,.69-.07.69-.45V62.19a14.26,14.26,0,0,0-.09-1.88Zm-69,13.75A51,51,0,0,1,92.68,20.6l5.17-3.3A57,57,0,0,0,3.77,77.36Zm92.33-42.34a51,51,0,0,1-85.82,54.8l-5.06,3.23a57,57,0,0,0,95.94-61.26Z"/></svg>