<svg viewBox="0 0 114 114" xmlns="http://www.w3.org/2000/svg"><path d="m3.77 77.36a57 57 0 0 1 94.08-60.06l-5.17 3.3a51 51 0 0 0 -83.74 53.46zm97.5-45.64a51 51 0 0 1 -85.82 54.8l-5.06 3.23a57 57 0 0 0 95.94-61.26zm-76.16 16.39v-6h2.52v-2h-4.7v8zm4.9 2a7.67 7.67 0 0 1 -1.45 2.93l1.66 1.14a12 12 0 0 0 1.47-3.38zm1.7-8.65a11.63 11.63 0 0 1 -1.34-.06 11.16 11.16 0 0 1 .08 1.42v5.69c0 .73 0 1.17-.06 1.63h1.17 8.59a10.87 10.87 0 0 1 -.25 1.86c-.11.3-.23.36-.66.36a11.78 11.78 0 0 1 -1.24-.06 5.3 5.3 0 0 1 .47 1.7 5.08 5.08 0 0 0 .53 0 5.37 5.37 0 0 0 1.65-.2 2.06 2.06 0 0 0 1.14-1.71 22.41 22.41 0 0 0 .35-2.85 6.13 6.13 0 0 1 .07-.76 10.56 10.56 0 0 1 -1.09 0h-8.78v-.75h8.73a14.18 14.18 0 0 1 1.42.06v-1.67a8.69 8.69 0 0 1 -1.39.07h-8.76v-.75h6.66c.47 0 1 0 1.31.05a8.86 8.86 0 0 1 -.06-1.29v-1.55a8.92 8.92 0 0 1 .06-1.24 11.51 11.51 0 0 1 -1.34.06h-3.27c.15-.23.46-.83.66-1.25l-2.19-.12a6.31 6.31 0 0 1 -.6 1.37zm.36 9.31a25.74 25.74 0 0 1 .22 3.12l1.79-.18a18.73 18.73 0 0 0 -.42-3.09zm.27-7.72h5.92v.85h-5.92zm2.16 7.66a13.77 13.77 0 0 1 .64 2.76l1.73-.36a15.52 15.52 0 0 0 -.87-2.66zm2.38-.09a9.21 9.21 0 0 1 .75 1.76l1.58-.5a13.14 13.14 0 0 0 -.86-1.72zm8.18-3.76a18.26 18.26 0 0 1 2.2 1.63l.27.21a9 9 0 0 1 -4 3.72 6.5 6.5 0 0 1 1.38 1.82 13.44 13.44 0 0 0 1.95-1.5 9.85 9.85 0 0 0 2.18-2.7 18.7 18.7 0 0 1 1.8 1.87l1.26-1.68c-.65-.64-1.38-1.33-2.25-2.08a15.14 15.14 0 0 0 .6-3.66h2.31l-.11 8c0 1.14.48 1.45 2.3 1.45 1.27 0 1.81-.15 2.17-.61s.6-1.7.66-3.9a5.71 5.71 0 0 1 -1.78-.69 28.27 28.27 0 0 1 -.18 3c-.08.27-.24.34-.71.34s-.49-.07-.49-.33l.1-7.89a12.5 12.5 0 0 1 .08-1.32 10.74 10.74 0 0 1 -1.73.09h-2.55a12.64 12.64 0 0 1 .1-2.38h-2.19a10 10 0 0 1 .12 2.16s0 .1 0 .22h-2.55a12.38 12.38 0 0 1 -1.69-.09v2.06a13.19 13.19 0 0 1 1.69-.1h2.45a13.74 13.74 0 0 1 -.29 2.31c-.72-.54-1.08-.81-1.92-1.38zm16-3.33a7.07 7.07 0 0 1 -.79 1.47 9.35 9.35 0 0 1 -2.09 2.16 8.07 8.07 0 0 1 .62 2.13 6.44 6.44 0 0 0 .81-.83v1.59 2.4a13.55 13.55 0 0 1 -.09 1.76h2a10 10 0 0 1 -.07-1.47v-6.16a11.75 11.75 0 0 0 1-1.53v1.26a12.67 12.67 0 0 1 1.38-.06h.69v4.88l-.62.09v-3a8.47 8.47 0 0 1 .06-1.14h-1.7a8.81 8.81 0 0 1 .06 1.17v3.21c-.19 0-.31 0-.63 0l.3 1.94.92-.2c1.65-.28 2.89-.54 4.71-1v-1.66l-1.44.3v-1.68h.37a7.05 7.05 0 0 1 1 .06v-1.8a6 6 0 0 1 -1 .06h-.34v-1.23h.54a5.25 5.25 0 0 1 .94.06v-1.84a5.18 5.18 0 0 1 -.94.06h-.54v-1.22h.3a7.83 7.83 0 0 1 1 .06v-1.84a8.63 8.63 0 0 1 -1.18.06h-1.68c.13-.39.13-.39.37-1l-1.77-.45a7.16 7.16 0 0 1 -1.54 3.44 3.82 3.82 0 0 1 1.33 1h-.13-.39zm-.28-3.39a7.64 7.64 0 0 1 -2.51 2.67 6 6 0 0 1 .81 1.81 12.32 12.32 0 0 0 2.92-2.79c.21-.3.21-.3.42-.57zm3.69 3.16v1.22h-1.25a8.17 8.17 0 0 0 .78-1.21zm5.23 7.1a5.21 5.21 0 0 1 .23 1.8h.64a1.64 1.64 0 0 0 1.43-.4c.26-.3.33-.64.33-1.47v-7.95c0-.76 0-1.05 0-1.42-.32 0-.65 0-1.23 0h-2c-.48 0-.84 0-1.16 0v1.3 10.34a12.15 12.15 0 0 1 -.08 1.63h1.94a10.67 10.67 0 0 1 -.08-1.53zm0-7.62h.77v7.33c0 .24-.06.32-.27.32a3.5 3.5 0 0 1 -.5 0zm11.88 3.32v3a11.75 11.75 0 0 1 -.07 1.59h2a12.9 12.9 0 0 1 -.06-1.53v-3.63l1.72-.53c0 2.88-.06 3-.84 3-.15 0-.39 0-.78-.07a5.78 5.78 0 0 1 .51 1.78h.7a2.11 2.11 0 0 0 1.65-.49c.38-.44.5-1.29.57-4.19 0-1.54 0-1.54.06-1.71s0-.3 0-.36c0-.34 0-.34 0-.52a11.49 11.49 0 0 1 -1.24.43l-2.37.71v-1.58a9.55 9.55 0 0 1 .09-1.68h-2.03a12.36 12.36 0 0 1 .09 1.68v2.17l-1.39.42v-1.2a11.2 11.2 0 0 1 .07-1.55h-2.07a9.32 9.32 0 0 1 .09 1.62v1.67a6.43 6.43 0 0 1 -1.18.25v.39a16.28 16.28 0 0 0 -2.58-1.77l-1.11 1.49a15.71 15.71 0 0 1 2.7 2l1-1.55.18 1.55a6.84 6.84 0 0 1 .94-.35v5.09c0 .75.2 1.11.77 1.36a9.86 9.86 0 0 0 3.51.33c2.59 0 3.61-.12 4.11-.51s.73-1.06.85-2.89a6.69 6.69 0 0 1 -1.87-.52c0 1.37-.12 1.7-.46 1.86a7.49 7.49 0 0 1 -2.61.24 11.11 11.11 0 0 1 -2-.1c-.27-.08-.34-.18-.34-.48v-5zm-6.07 2a14.93 14.93 0 0 1 -1.41 3.69 4.25 4.25 0 0 1 -.59.85l1.71 1.47a19.33 19.33 0 0 0 1.89-4.87zm-1.58-6.39a14.35 14.35 0 0 1 2.6 2l1.24-1.56a15.84 15.84 0 0 0 -2.62-1.92zm17.21 4.57v6h-2.52v2h4.69v-8zm-58.8 27.45a3.91 3.91 0 0 1 -1.34-1.42c.08-.33.11-.51.15-.75.18-1.16.18-1.16.26-1.5l-2-.32v.14a9.48 9.48 0 0 1 -.21 1.78 8.67 8.67 0 0 1 -1.58 3.71 5.7 5.7 0 0 1 1.49 1.44 9.91 9.91 0 0 0 1.33-2.57 5.42 5.42 0 0 0 2.13 1.58 11.75 11.75 0 0 0 4 .61h1.47a8.2 8.2 0 0 1 .51-2c-1.17.08-1.68.11-2.28.11a12.74 12.74 0 0 1 -2-.14v-2h1.83a12.46 12.46 0 0 1 1.59.07v-2.04a12.28 12.28 0 0 1 -1.59.08h-1.87v-1.41h2.46a14 14 0 0 1 1.62.09v-1.92a12.87 12.87 0 0 1 -1.62.07h-2.44v-1.34h1.84c.59 0 1.1 0 1.56.06v-1.9a11.24 11.24 0 0 1 -1.6.09h-1.8v-.25a6.86 6.86 0 0 1 .07-1.26h-2a5.49 5.49 0 0 1 .09 1.31v.15h-1.76a11 11 0 0 1 -1.59-.09v1.89c.46 0 1-.06 1.6-.06h1.71v1.38h-2.19c-.52 0-.91 0-1.42 0l-1.44-1.2a6.61 6.61 0 0 1 -.83 1.36 10.71 10.71 0 0 1 -2.49 2.4 7.28 7.28 0 0 1 .75 2 4.85 4.85 0 0 0 .94-.92v1.86 2.18a13.52 13.52 0 0 1 -.09 1.72h2c0-.43-.06-.85-.06-1.6v-6.12a13 13 0 0 0 1-1.41v1.54c.58 0 1.06-.07 1.6-.07h2.19zm-5.11-11.16a4.38 4.38 0 0 1 -.84 1.07 9.45 9.45 0 0 1 -2.28 1.69 5.85 5.85 0 0 1 1 1.71 14.22 14.22 0 0 0 3.21-2.74c.42-.5.42-.5.51-.59zm15.4 6.32a7.86 7.86 0 0 1 -3.28 3 8.4 8.4 0 0 1 1.35 1.47 11.23 11.23 0 0 0 3.63-3.53zm4.91-1.8v-1.2h2.91a11.47 11.47 0 0 1 1.62.07v-1.87a11.75 11.75 0 0 1 -1.62.09h-2.91v-.18a10.47 10.47 0 0 1 .07-1.25h-2.14a9.18 9.18 0 0 1 .09 1.43v2.88h-1.91v-2a8.33 8.33 0 0 1 .08-1.32h-2.09a8.57 8.57 0 0 1 .08 1.32v2h-.41a14.26 14.26 0 0 1 -1.75-.06v1.93a14.26 14.26 0 0 1 1.75-.09h4.17v2.3c0 .22-.12.28-.6.28a10.16 10.16 0 0 1 -1.41-.1 6.2 6.2 0 0 1 .5 1.83h.73a5.91 5.91 0 0 0 1.86-.15 1.29 1.29 0 0 0 .86-1.38v-2.78h4a14 14 0 0 1 1.71.09v-1.93a13.79 13.79 0 0 1 -1.71.09zm1.66 4.26a5.86 5.86 0 0 1 -2.28 2.07 11.8 11.8 0 0 1 -5.71 1.29c-.18 0-.39 0-.81 0a8 8 0 0 1 .81 2 15.86 15.86 0 0 0 4.56-.71 11.42 11.42 0 0 0 4.33-2.65c.45-.45.45-.45.68-.65zm-.81-1.46a14 14 0 0 0 3.75 3.35 12.66 12.66 0 0 1 1.32-1.59 10.2 10.2 0 0 1 -3.55-2.75zm24-5a5.3 5.3 0 0 0 -1.9-2.66 6.42 6.42 0 0 0 -3.88-1.1 6.07 6.07 0 0 0 -5.42 3 11.82 11.82 0 0 0 -1.34 5.74 9.65 9.65 0 0 0 1.84 6.22 6 6 0 0 0 4.82 2 6.56 6.56 0 0 0 4.68-1.72 5.74 5.74 0 0 0 1.56-3.9c0-3.4-2.16-5.48-5.68-5.48a5.75 5.75 0 0 0 -2.72.58 3.9 3.9 0 0 0 -1.35 1.07 7.27 7.27 0 0 1 .68-2.88 3.1 3.1 0 0 1 2.92-2 2.32 2.32 0 0 1 2.52 1.84zm-2.9 7.56a3 3 0 0 1 -.4 1.6 3 3 0 0 1 -2.62 1.32 2.92 2.92 0 0 1 -3.1-2.9 2.87 2.87 0 0 1 3.12-2.84c1.93-.01 3.01 1.01 3.01 2.81zm13.23-2.95a5.5 5.5 0 0 1 -.72 2.5 6.57 6.57 0 0 1 -3.55 2.88 7 7 0 0 1 1.27 1.74 8.84 8.84 0 0 0 2.28-1.4 7.82 7.82 0 0 0 2.58-4.28 7.61 7.61 0 0 0 .24-1.44h2.58v.38a14.91 14.91 0 0 1 -.4 4.06c-.12.3-.32.39-1 .39a14.7 14.7 0 0 1 -1.7-.15 8 8 0 0 1 .56 2.06h1.35c1.72 0 2.37-.33 2.67-1.38a26.36 26.36 0 0 0 .48-5.86 13.4 13.4 0 0 0 1.58 1.3 9.47 9.47 0 0 1 1.3-2 11.07 11.07 0 0 1 -4-4.17 5.29 5.29 0 0 1 -.58-1.35l-2 .75c.09.18.24.47.31.63a14.84 14.84 0 0 0 2.21 3.56h-6.45a17.66 17.66 0 0 0 2.17-3.42 4.91 4.91 0 0 1 .39-.77l-2.1-.78a5.25 5.25 0 0 1 -.58 1.49 11.35 11.35 0 0 1 -3.86 4.26 6.82 6.82 0 0 1 1.34 1.78 13.26 13.26 0 0 0 1.83-1.63v.93a6.57 6.57 0 0 1 1.14-.08z" fill="#836c39"/></svg>