<svg xmlns="http://www.w3.org/2000/svg" viewBox="0 0 279.36 49.55"><defs><style>.cls-1{fill:#af1939;}</style></defs><g id="レイヤー_2" data-name="レイヤー 2"><g id="テキスト01"><path d="M4.59,47.45V10.23A36.94,36.94,0,0,1,0,10.42V5A9.82,9.82,0,0,0,6.54,1.72h5.27V47.45Z"/><path d="M23.63,47.45v-.86c.06-8.63,3.45-14.21,8.08-20.77,3.77-5.28,5.08-6.95,5.08-12,0-4.58-.51-6.42-3.14-6.42-2.31,0-3.22,1.73-3.22,5.33v2.38H23.78V12.53c0-5.24,1.7-11.15,10.2-11.15,7.8,0,10,4.85,10,12S41.68,23.7,37.88,28.82C34.66,33.15,32,37.6,31.67,41.25H44.9l-1,6.2Z"/><path d="M53.62,49.55,64.55.68H70L59.1,49.55Z"/><path d="M79.27,47.45v-.86c.07-8.63,3.46-14.21,8.09-20.77,3.76-5.28,5.08-6.95,5.08-12,0-4.58-.51-6.42-3.14-6.42-2.32,0-3.22,1.73-3.22,5.33v2.38H79.43V12.53c0-5.24,1.7-11.15,10.2-11.15,7.8,0,10,4.85,10,12S97.33,23.7,93.53,28.82c-3.22,4.33-5.86,8.78-6.21,12.43h13.22l-1,6.2Z"/><path d="M130,8.28H118.74c-.22,3.8-.58,8.45-.83,11,1-1.26,3-2.06,5.46-2.06,6.08,0,8.44,4.44,8.44,12.1V34c0,8.09-2.43,14-11.14,14-8,0-10.68-5-10.68-11.4v-1h7.16V37.2c0,2.34.71,4.91,3.52,4.91,3,0,3.67-2.16,3.67-7.17V29.6c0-4.38-.71-6.34-3.6-6.34-2.5,0-3.32,1.46-3.8,4.32l-6.4-.66c.65-6.47,1.55-18.64,1.94-25h18.27Z"/><path class="cls-1" d="M181.62,13.09V34.93c0,9-3.8,13.2-11.72,13.2-7.6,0-11-4.34-11-13.07V13c0-8.95,4.51-13,11.48-13S181.62,4.1,181.62,13.09Zm-15.4-.7V35.91c0,3.89,1.4,5.71,4,5.71,2.81,0,4.06-1.7,4.06-5.81V12.34c0-3.72-1.14-5.77-4.06-5.77C167.62,6.57,166.22,8.43,166.22,12.39Z"/><path class="cls-1" d="M194,.68h10.4c7.43,0,11.22,3.67,11.22,11.94v2.76c0,7.72-2.76,12.84-11.62,12.84h-2.78V47.45H194Zm7.22,21.65h2c4.5,0,5.27-2.63,5.27-7.19v-2.3c0-3.4-.62-6.2-4.63-6.2h-2.61Z"/><path class="cls-1" d="M244.36,26.09H234.08V40.82h11.85L245,47.45H226.87V.68h18.06v6.7H234.08V19.45h10.28Z"/><path class="cls-1" d="M256.68,47.45V.68H265c1.87,6.6,7.45,29.69,7.94,32.16h.08c-.33-5.75-.35-12.33-.35-20V.68h6.66V47.45h-8c-1.47-5.59-7.7-31.24-8.16-33.2h-.07c.34,5.66.31,12,.31,20.41V47.45Z"/></g></g></svg>